Geist-Mono.glyphspackage
{
color = 4;
glyphname = exclam;
kernLeft = "0";
kernRight = "0";
layers = (
{
anchors = (
{
name = top;
pos = (138,530);
}
);
associatedMasterId = "EE2FFE84-06F1-4AFB-BBEC-60D09A436D14";
layerId = "89098DA8-21DF-4174-9759-EA410723EA26";
name = "25 de ene. de 23 09:33";
shapes = (
{
closed = 1;
nodes = (
(171,-6,o),
(196,18,o),
(196,51,cs),
(196,84,o),
(171,108,o),
(138,108,cs),
(105,108,o),
(80,84,o),
(80,51,cs),
(80,18,o),
(105,-6,o),
(138,-6,cs)
);
},
{
closed = 1;
nodes = (
(94,480,l),
(110,205,l),
(166,205,l),
(182,480,l),
(182,710,l),
(94,710,l)
);
}
);
width = 276;
},
{
background = {
shapes = (
{
closed = 1;
nodes = (
(311,205,l),
(313,297,o),
(316,368,o),
(316,460,c),
(316,710,l),
(284,710,l),
(284,460,l),
(284,368,o),
(287,297,o),
(289,205,c)
);
},
{
ref = period;
}
);
};
layerId = "EE2FFE84-06F1-4AFB-BBEC-60D09A436D14";
name = Regular;
shapes = (
{
ref = period;
},
{
closed = 1;
nodes = (
(311,205,l),
(313,295,o),
(316,378,o),
(316,460,cs),
(316,710,l),
(284,710,l),
(284,460,ls),
(284,378,o),
(287,295,o),
(289,205,c)
);
}
);
width = 600;
},
{
background = {
shapes = (
{
closed = 1;
nodes = (
(327,205,l),
(332,297,o),
(343,387,o),
(343,479,c),
(343,710,l),
(257,710,l),
(257,479,l),
(257,387,o),
(268,297,o),
(273,205,c)
);
},
{
alignment = -1;
ref = period;
}
);
};
layerId = "574EE4B9-5C1A-4E7E-9985-C08FACB65BD8";
name = Regular;
shapes = (
{
alignment = -1;
ref = period;
},
{
closed = 1;
nodes = (
(328,209,l),
(334,279,o),
(343,400,o),
(343,480,cs),
(343,710,l),
(257,710,l),
(257,480,ls),
(257,400,o),
(267,279,o),
(273,209,c)
);
}
);
width = 600;
},
{
background = {
shapes = (
{
closed = 1;
nodes = (
(350,243,l),
(358,326,o),
(373,423,o),
(373,507,c),
(373,710,l),
(227,710,l),
(227,507,l),
(227,423,o),
(242,326,o),
(250,243,c)
);
},
{
alignment = -1;
ref = period;
}
);
};
layerId = "58B1DC7A-69F8-4375-AD2E-AC5103CCF536";
name = Regular;
shapes = (
{
alignment = -1;
ref = period;
},
{
closed = 1;
nodes = (
(360,240,l),
(370,296,o),
(382,410,o),
(382,490,cs),
(382,710,l),
(218,710,l),
(218,490,ls),
(218,410,o),
(230,296,o),
(240,240,c)
);
}
);
width = 600;
}
);
unicode = 33;
}
{
glyphname = quotedbl;
kernLeft = "0";
kernRight = "0";
layers = (
{
layerId = "EE2FFE84-06F1-4AFB-BBEC-60D09A436D14";
shapes = (
{
closed = 1;
nodes = (
(362,383,l),
(372,640,l),
(372,710,l),
(332,710,l),
(334,383,l)
);
},
{
closed = 1;
nodes = (
(264,383,l),
(267,710,l),
(227,710,l),
(227,641,l),
(236,383,l)
);
}
);
width = 600;
},
{
layerId = "574EE4B9-5C1A-4E7E-9985-C08FACB65BD8";
shapes = (
{
closed = 1;
nodes = (
(406,383,l),
(429,630,l),
(429,710,l),
(341,710,l),
(345,383,l)
);
},
{
closed = 1;
nodes = (
(255,383,l),
(259,710,l),
(171,710,l),
(171,630,l),
(194,383,l)
);
}
);
width = 600;
},
{
layerId = "58B1DC7A-69F8-4375-AD2E-AC5103CCF536";
shapes = (
{
closed = 1;
nodes = (
(434,372,l),
(458,624,l),
(458,710,l),
(338,710,l),
(343,372,l)
);
},
{
closed = 1;
nodes = (
(256,372,l),
(260,710,l),
(142,710,l),
(142,625,l),
(166,372,l)
);
}
);
width = 600;
}
);
unicode = 34;
}
{
color = 5;
glyphname = numbersign;
kernLeft = "0";
kernRight = "0";
layers = (
{
background = {
shapes = (
{
closed = 1;
nodes = (
(151,0,l),
(282,710,l),
(249,709,l),
(119,0,l)
);
},
{
closed = 1;
nodes = (
(358,0,l),
(489,710,l),
(456,709,l),
(326,0,l)
);
},
{
closed = 1;
nodes = (
(495,216,l),
(506,246,l),
(64,246,l),
(53,216,l)
);
},
{
closed = 1;
nodes = (
(535,461,l),
(546,491,l),
(104,491,l),
(93,461,l)
);
}
);
};
guides = (
{
pos = (185,513);
},
{
pos = (138,267);
},
{
angle = 270;
pos = (185,513);
},
{
angle = 270;
pos = (138,267);
},
{
angle = 270;
pos = (245,447);
}
);
layerId = "EE2FFE84-06F1-4AFB-BBEC-60D09A436D14";
shapes = (
{
closed = 1;
nodes = (
(348,0,l),
(480,710,l),
(448,710,l),
(316,0,l)
);
},
{
closed = 1;
nodes = (
(498,216,l),
(506,246,l),
(62,246,l),
(54,216,l)
);
},
{
closed = 1;
nodes = (
(152,0,l),
(284,710,l),
(252,710,l),
(120,0,l)
);
},
{
closed = 1;
nodes = (
(538,461,l),
(546,491,l),
(102,491,l),
(94,461,l)
);
}
);
width = 600;
},
{
background = {
shapes = (
{
closed = 1;
nodes = (
(171,0,l),
(302,710,l),
(230,709,l),
(100,0,l)
);
},
{
closed = 1;
nodes = (
(377,0,l),
(508,710,l),
(436,709,l),
(306,0,l)
);
},
{
closed = 1;
nodes = (
(495,197,l),
(506,267,l),
(64,267,l),
(53,197,l)
);
},
{
closed = 1;
nodes = (
(535,440,l),
(546,510,l),
(104,510,l),
(93,440,l)
);
}
);
};
layerId = "574EE4B9-5C1A-4E7E-9985-C08FACB65BD8";
shapes = (
{
closed = 1;
nodes = (
(369,0,l),
(501,710,l),
(429,710,l),
(297,0,l)
);
},
{
closed = 1;
nodes = (
(494,197,l),
(506,267,l),
(66,267,l),
(54,197,l)
);
},
{
closed = 1;
nodes = (
(172,0,l),
(304,710,l),
(232,710,l),
(100,0,l)
);
},
{
closed = 1;
nodes = (
(534,440,l),
(546,510,l),
(106,510,l),
(94,440,l)
);
}
);
width = 600;
},
{
background = {
shapes = (
{
closed = 1;
nodes = (
(205,0,l),
(300,710,l),
(171,709,l),
(76,0,l)
);
},
{
closed = 1;
nodes = (
(428,0,l),
(523,710,l),
(395,709,l),
(300,0,l)
);
},
{
closed = 1;
nodes = (
(526,167,l),
(542,294,l),
(38,294,l),
(22,167,l)
);
},
{
closed = 1;
nodes = (
(562,433,l),
(578,560,l),
(73,560,l),
(57,433,l)
);
}
);
};
layerId = "58B1DC7A-69F8-4375-AD2E-AC5103CCF536";
shapes = (
{
closed = 1;
nodes = (
(421,0,l),
(533,710,l),
(406,710,l),
(293,0,l)
);
},
{
closed = 1;
nodes = (
(524,168,l),
(542,282,l),
(38,282,l),
(20,168,l)
);
},
{
closed = 1;
nodes = (
(195,0,l),
(302,710,l),
(180,710,l),
(67,0,l)
);
},
{
closed = 1;
nodes = (
(562,422,l),
(580,536,l),
(76,536,l),
(58,422,l)
);
}
);
width = 600;
}
);
unicode = 35;
}
{
glyphname = dollar;
kernLeft = "0";
kernRight = "0";
layers = (
{
background = {
shapes = (
{
closed = 1;
nodes = (
(37,109,o),
(149,-12,o),
(318,-12,cs),
(452,-12,o),
(573,52,o),
(573,184,cs),
(573,311,o),
(469,357,o),
(326,398,cs),
(192,436,o),
(155,466,o),
(155,527,cs),
(155,593,o),
(214,640,o),
(300,640,cs),
(392,640,o),
(472,562,o),
(477,458,c),
(427,491,l),
(610,503,l),
(567,469,l),
(563,632,o),
(418,726,o),
(312,726,cs),
(159,726,o),
(63,649,o),
(63,527,cs),
(63,419,o),
(132,364,o),
(298,321,cs),
(419,290,o),
(481,240,o),
(481,184,cs),
(481,116,o),
(421,74,o),
(323,74,cs),
(186,74,o),
(139,144,o),
(129,269,c),
(178,236,l),
(-5,224,l),
(39,256,l)
);
}
);
};
layerId = "EE2FFE84-06F1-4AFB-BBEC-60D09A436D14";
shapes = (
{
closed = 1;
nodes = (
(323,-91,l),
(323,805,l),
(291,805,l),
(291,-91,l)
);
},
{
pos = (1,0);
ref = S;
}
);
width = 600;
},
{
layerId = "574EE4B9-5C1A-4E7E-9985-C08FACB65BD8";
shapes = (
{
closed = 1;
nodes = (
(340,-91,l),
(340,805,l),
(266,805,l),
(266,-91,l)
);
},
{
alignment = -1;
pos = (3,0);
ref = S;
}
);
width = 600;
},
{
layerId = "58B1DC7A-69F8-4375-AD2E-AC5103CCF536";
shapes = (
{
closed = 1;
nodes = (
(348,-91,l),
(348,805,l),
(262,805,l),
(262,-91,l)
);
},
{
alignment = -1;
pos = (2,0);
ref = S;
}
);
width = 600;
}
);
unicode = 36;
}
{
glyphname = percent;
kernLeft = "0";
kernRight = "0";
layers = (
{
background = {
shapes = (
{
closed = 1;
nodes = (
(25,-20,l),
(-28,-12,l),
(111,-12,l),
(44,-50,l),
(596,736,l),
(627,726,l),
(499,726,l),
(572,759,l)
);
},
{
closed = 1;
nodes = (
(176,401,o),
(226,461,o),
(226,537,cs),
(226,613,o),
(176,673,o),
(113,673,cs),
(50,673,o),
(0,613,o),
(0,537,cs),
(0,461,o),
(50,401,o),
(113,401,cs)
);
},
{
closed = 1;
nodes = (
(65,431,o),
(32,475,o),
(32,537,cs),
(32,602,o),
(65,647,o),
(113,647,cs),
(161,647,o),
(194,602,o),
(194,537,cs),
(194,475,o),
(161,431,o),
(113,431,cs)
);
},
{
closed = 1;
nodes = (
(176,401,o),
(226,461,o),
(226,537,cs),
(226,613,o),
(176,673,o),
(113,673,cs),
(50,673,o),
(0,613,o),
(0,537,cs),
(0,461,o),
(50,401,o),
(113,401,cs)
);
},
{
closed = 1;
nodes = (
(65,431,o),
(32,475,o),
(32,537,cs),
(32,602,o),
(65,647,o),
(113,647,cs),
(161,647,o),
(194,602,o),
(194,537,cs),
(194,475,o),
(161,431,o),
(113,431,cs)
);
},
{
closed = 1;
nodes = (
(562,39,o),
(612,99,o),
(612,175,cs),
(612,251,o),
(562,311,o),
(499,311,cs),
(436,311,o),
(386,251,o),
(386,175,cs),
(386,99,o),
(436,39,o),
(499,39,cs)
);
},
{
closed = 1;
nodes = (
(451,69,o),
(418,113,o),
(418,175,cs),
(418,240,o),
(451,285,o),
(499,285,cs),
(547,285,o),
(580,240,o),
(580,175,cs),
(580,113,o),
(547,69,o),
(499,69,cs)
);
},
{
closed = 1;
nodes = (
(562,39,o),
(612,99,o),
(612,175,cs),
(612,251,o),
(562,311,o),
(499,311,cs),
(436,311,o),
(386,251,o),
(386,175,cs),
(386,99,o),
(436,39,o),
(499,39,cs)
);
},
{
closed = 1;
nodes = (
(451,69,o),
(418,113,o),
(418,175,cs),
(418,240,o),
(451,285,o),
(499,285,cs),
(547,285,o),
(580,240,o),
(580,175,cs),
(580,113,o),
(547,69,o),
(499,69,cs)
);
},
{
closed = 1;
nodes = (
(25,-20,l),
(-28,-12,l),
(111,-12,l),
(44,-50,l),
(596,736,l),
(627,726,l),
(499,726,l),
(572,759,l)
);
},
{
closed = 1;
nodes = (
(194,363,o),
(258,440,o),
(258,537,cs),
(258,634,o),
(194,711,o),
(113,711,cs),
(32,711,o),
(-32,634,o),
(-32,537,cs),
(-32,440,o),
(32,363,o),
(113,363,cs)
);
},
{
closed = 1;
nodes = (
(71,441,o),
(45,478,o),
(45,537,cs),
(45,596,o),
(71,633,o),
(113,633,cs),
(155,633,o),
(182,596,o),
(182,537,cs),
(182,478,o),
(155,441,o),
(113,441,cs)
);
},
{
closed = 1;
nodes = (
(580,0,o),
(644,77,o),
(644,174,cs),
(644,271,o),
(580,348,o),
(499,348,cs),
(418,348,o),
(354,271,o),
(354,174,cs),
(354,77,o),
(418,0,o),
(499,0,cs)
);
},
{
closed = 1;
nodes = (
(457,78,o),
(431,115,o),
(431,174,cs),
(431,233,o),
(457,270,o),
(499,270,cs),
(541,270,o),
(568,233,o),
(568,174,cs),
(568,115,o),
(541,78,o),
(499,78,cs)
);
}
);
};
layerId = "EE2FFE84-06F1-4AFB-BBEC-60D09A436D14";
shapes = (
{
closed = 1;
nodes = (
(70,-12,l),
(568,726,l),
(528,726,l),
(30,-12,l)
);
},
{
closed = 1;
nodes = (
(521,0,o),
(571,60,o),
(571,136,cs),
(571,212,o),
(521,272,o),
(458,272,cs),
(395,272,o),
(345,212,o),
(345,136,cs),
(345,60,o),
(395,0,o),
(458,0,cs)
);
},
{
closed = 1;
nodes = (
(410,30,o),
(377,74,o),
(377,136,cs),
(377,201,o),
(410,242,o),
(458,242,cs),
(506,242,o),
(539,201,o),
(539,136,cs),
(539,74,o),
(506,30,o),
(458,30,cs)
);
},
{
closed = 1;
nodes = (
(205,438,o),
(255,498,o),
(255,574,cs),
(255,650,o),
(205,710,o),
(142,710,cs),
(79,710,o),
(29,650,o),
(29,574,cs),
(29,498,o),
(79,438,o),
(142,438,cs)
);
},
{
closed = 1;
nodes = (
(94,468,o),
(61,512,o),
(61,574,cs),
(61,639,o),
(94,680,o),
(142,680,cs),
(190,680,o),
(223,639,o),
(223,574,cs),
(223,512,o),
(190,468,o),
(142,468,cs)
);
}
);
width = 600;
},
{
layerId = "574EE4B9-5C1A-4E7E-9985-C08FACB65BD8";
shapes = (
{
closed = 1;
nodes = (
(114,-12,l),
(564,726,l),
(469,726,l),
(19,-12,l)
);
},
{
closed = 1;
nodes = (
(543,0,o),
(587,76,o),
(587,173,cs),
(587,269,o),
(543,345,o),
(463,345,cs),
(382,345,o),
(338,269,o),
(338,173,cs),
(338,76,o),
(382,0,o),
(463,0,cs)
);
},
{
closed = 1;
nodes = (
(431,76,o),
(414,111,o),
(414,173,cs),
(414,235,o),
(431,269,o),
(463,269,cs),
(494,269,o),
(513,235,o),
(513,173,cs),
(513,111,o),
(494,76,o),
(463,76,cs)
);
},
{
closed = 1;
nodes = (
(218,366,o),
(262,442,o),
(262,538,cs),
(262,635,o),
(218,711,o),
(137,711,cs),
(57,711,o),
(13,635,o),
(13,538,cs),
(13,442,o),
(57,366,o),
(137,366,cs)
);
},
{
closed = 1;
nodes = (
(106,442,o),
(88,476,o),
(88,538,cs),
(88,600,o),
(106,635,o),
(137,635,cs),
(169,635,o),
(187,600,o),
(187,538,cs),
(187,476,o),
(169,442,o),
(137,442,cs)
);
}
);
width = 600;
},
{
layerId = "58B1DC7A-69F8-4375-AD2E-AC5103CCF536";
shapes = (
{
closed = 1;
nodes = (
(207,-12,l),
(521,726,l),
(392,726,l),
(78,-12,l)
);
},
{
closed = 1;
nodes = (
(545,0,o),
(596,73,o),
(596,174,cs),
(596,274,o),
(545,347,o),
(468,347,cs),
(390,347,o),
(339,274,o),
(339,174,cs),
(339,73,o),
(390,0,o),
(468,0,cs)
);
},
{
closed = 1;
nodes = (
(445,85,o),
(435,113,o),
(435,174,cs),
(435,234,o),
(445,263,o),
(468,263,cs),
(490,263,o),
(502,234,o),
(502,174,cs),
(502,113,o),
(490,85,o),
(468,85,cs)
);
},
{
closed = 1;
nodes = (
(209,364,o),
(261,437,o),
(261,537,cs),
(261,638,o),
(209,711,o),
(132,711,cs),
(54,711,o),
(4,638,o),
(4,537,cs),
(4,437,o),
(54,364,o),
(132,364,cs)
);
},
{
closed = 1;
nodes = (
(110,448,o),
(99,477,o),
(99,537,cs),
(99,598,o),
(110,626,o),
(132,626,cs),
(155,626,o),
(166,598,o),
(166,537,cs),
(166,477,o),
(155,448,o),
(132,448,cs)
);
}
);
width = 600;
}
);
unicode = 37;
}
{
glyphname = ampersand;
kernLeft = "0";
kernRight = "0";
layers = (
{
associatedMasterId = "EE2FFE84-06F1-4AFB-BBEC-60D09A436D14";
layerId = "ED6EEBD0-B4D0-4FD3-8853-D40404FF21B9";
name = "25 de ene. de 23 17:22";
shapes = (
{
closed = 1;
nodes = (
(45,276,o),
(85,327,o),
(183,393,c),
(-5,633,o),
(263,821,o),
(412,673,cs),
(501,584,o),
(453,452,o),
(305,374,c),
(467,168,l),
(491,200,o),
(500,265,o),
(496,320,c),
(586,312,l),
(586,232,o),
(560,150,o),
(521,103,c),
(607,0,l),
(503,0,l),
(467,44,l),
(428,8,o),
(366,-16,o),
(297,-16,cs),
(147,-16,o),
(45,58,o),
(45,188,cs)
);
},
{
closed = 1;
nodes = (
(134,117,o),
(189,64,o),
(297,64,cs),
(337,64,o),
(386,81,o),
(408,108,c),
(237,326,l),
(193,297,o),
(134,254,o),
(134,188,cs)
);
},
{
closed = 1;
nodes = (
(295,677,o),
(124,618,o),
(254,440,c),
(347,498,o),
(397,563,o),
(352,611,cs)
);
}
);
width = 642;
},
{
background = {
shapes = (
{
closed = 1;
nodes = (
(0,256,o),
(42,321,o),
(131,380,cs),
(135,382,o),
(144,388,o),
(154,395,c),
(111,449,o),
(54,514,o),
(54,585,cs),
(54,675,o),
(113,729,o),
(196,729,cs),
(277,729,o),
(341,665,o),
(341,575,cs),
(341,505,o),
(281,443,o),
(198,390,c),
(197,390,l),
(408,122,l),
(433,157,o),
(450,200,o),
(457,247,c),
(491,242,l),
(483,186,o),
(461,135,o),
(430,94,c),
(504,0,l),
(464,0,l),
(409,70,l),
(360,19,o),
(292,-12,o),
(213,-12,cs),
(97,-12,o),
(0,64,o),
(0,178,cs)
);
},
{
closed = 1;
nodes = (
(73,306,o),
(34,252,o),
(34,178,cs),
(34,82,o),
(116,20,o),
(213,20,cs),
(284,20,o),
(345,49,o),
(388,96,c),
(171,370,ls)
);
},
{
closed = 1;
nodes = (
(88,532,o),
(130,477,o),
(180,413,c),
(266,473,o),
(307,518,o),
(307,574,cs),
(307,646,o),
(258,697,o),
(196,697,cs),
(133,697,o),
(88,656,o),
(88,584,cs)
);
}
);
};
layerId = "EE2FFE84-06F1-4AFB-BBEC-60D09A436D14";
name = Regular;
shapes = (
{
closed = 1;
nodes = (
(337,729,o),
(401,665,o),
(401,575,cs),
(401,505,o),
(341,443,o),
(258,390,c),
(468,122,l),
(493,157,o),
(510,200,o),
(517,247,c),
(551,242,l),
(543,186,o),
(521,135,o),
(490,94,c),
(564,0,l),
(524,0,l),
(469,70,l),
(420,19,o),
(352,-12,o),
(273,-12,cs),
(157,-12,o),
(60,64,o),
(60,178,cs),
(60,286,o),
(130,336,o),
(214,395,c),
(171,449,o),
(114,514,o),
(114,585,cs),
(114,675,o),
(173,729,o),
(256,729,cs)
);
},
{
closed = 1;
nodes = (
(133,306,o),
(94,252,o),
(94,178,cs),
(94,82,o),
(176,20,o),
(273,20,cs),
(344,20,o),
(405,49,o),
(448,96,c),
(231,370,ls)
);
},
{
closed = 1;
nodes = (
(326,473,o),
(367,518,o),
(367,574,cs),
(367,646,o),
(318,697,o),
(256,697,cs),
(193,697,o),
(148,656,o),
(148,584,cs),
(148,532,o),
(190,477,o),
(240,413,c)
);
}
);
width = 600;
},
{
layerId = "574EE4B9-5C1A-4E7E-9985-C08FACB65BD8";
name = Regular;
shapes = (
{
closed = 1;
nodes = (
(374,717,o),
(453,626,o),
(419,524,cs),
(402,471,o),
(357,418,o),
(288,375,c),
(452,166,l),
(476,199,o),
(485,263,o),
(481,318,c),
(569,310,l),
(569,230,o),
(543,150,o),
(505,103,c),
(590,0,l),
(488,0,l),
(452,45,l),
(412,8,o),
(350,-12,o),
(281,-12,cs),
(132,-12,o),
(30,58,o),
(30,188,cs),
(30,294,o),
(85,330,o),
(169,393,c),
(123,454,o),
(102,511,o),
(102,562,cs),
(102,666,o),
(188,734,o),
(277,726,cs)
);
},
{
closed = 1;
nodes = (
(176,297,o),
(117,254,o),
(117,188,cs),
(117,113,o),
(181,66,o),
(281,66,cs),
(330,66,o),
(373,82,o),
(394,108,c),
(221,327,ls)
);
},
{
closed = 1;
nodes = (
(303,469,o),
(343,515,o),
(343,559,cs),
(343,605,o),
(316,639,o),
(272,642,cs),
(224,645,o),
(187,606,o),
(188,559,cs),
(188,527,o),
(203,488,o),
(238,439,c)
);
}
);
width = 600;
},
{
layerId = "58B1DC7A-69F8-4375-AD2E-AC5103CCF536";
name = Regular;
shapes = (
{
closed = 1;
nodes = (
(373,708,o),
(453,622,o),
(437,521,cs),
(428,465,o),
(389,409,o),
(324,361,c),
(408,251,l),
(420,270,o),
(426,301,o),
(424,330,c),
(566,317,l),
(565,246,o),
(543,173,o),
(503,123,c),
(596,0,l),
(434,0,l),
(412,30,l),
(376,9,o),
(322,-12,o),
(269,-12,cs),
(114,-12,o),
(14,68,o),
(12,200,cs),
(11,302,o),
(73,348,o),
(133,393,c),
(90,445,o),
(66,507,o),
(66,556,cs),
(66,662,o),
(157,730,o),
(268,719,cs)
);
},
{
closed = 1;
nodes = (
(185,272,o),
(158,234,o),
(162,194,cs),
(167,149,o),
(204,119,o),
(251,117,cs),
(286,116,o),
(311,126,o),
(328,145,c),
(214,291,ls)
);
},
{
closed = 1;
nodes = (
(274,475,o),
(297,507,o),
(297,537,cs),
(297,566,o),
(281,586,o),
(258,588,cs),
(232,589,o),
(211,567,o),
(212,537,cs),
(212,512,o),
(223,482,o),
(242,459,c)
);
}
);
width = 600;
}
);
unicode = 38;
}
{
color = 3;
glyphname = parenleft;
kernLeft = "0";
kernRight = "0";
layers = (
{
background = {
shapes = (
{
closed = 1;
nodes = (
(126,503,o),
(126,177,o),
(360,-90,c),
(440,-90,l),
(230,177,o),
(230,503,o),
(440,770,c),
(360,770,l)
);
}
);
};
layerId = "EE2FFE84-06F1-4AFB-BBEC-60D09A436D14";
shapes = (
{
closed = 1;
nodes = (
(419,-90,l),
(203,174,o),
(203,506,o),
(419,770,c),
(394,770,l),
(166,506,o),
(166,174,o),
(394,-90,c)
);
}
);
width = 600;
},
{
layerId = "574EE4B9-5C1A-4E7E-9985-C08FACB65BD8";
shapes = (
{
closed = 1;
nodes = (
(449,-90,l),
(221,174,o),
(221,506,o),
(449,770,c),
(377,770,l),
(126,516,o),
(126,164,o),
(377,-90,c)
);
}
);
width = 600;
},
{
layerId = "58B1DC7A-69F8-4375-AD2E-AC5103CCF536";
shapes = (
{
closed = 1;
nodes = (
(460,-90,l),
(281,190,o),
(281,490,o),
(460,770,c),
(331,770,l),
(128,492,o),
(128,188,o),
(331,-90,c)
);
}
);
width = 600;
}
);
unicode = 40;
}
{
glyphname = asterisk;
kernLeft = "0";
kernRight = "0";
layers = (
{
background = {
shapes = (
{
closed = 1;
nodes = (
(356,546,l),
(434,680,l),
(378,712,l),
(300,578,l),
(222,712,l),
(166,681,l),
(244,546,l),
(85,546,l),
(85,482,l),
(244,482,l),
(166,348,l),
(222,315,l),
(300,449,l),
(378,315,l),
(434,346,l),
(356,482,l),
(515,482,l),
(515,546,l)
);
}
);
};
guides = (
{
pos = (188,706);
},
{
pos = (175,378);
},
{
angle = 270;
pos = (332,608);
},
{
angle = 270;
pos = (11,598);
},
{
pos = (114,706);
}
);
layerId = "EE2FFE84-06F1-4AFB-BBEC-60D09A436D14";
shapes = (
{
closed = 1;
nodes = (
(300,493,l),
(389,337,l),
(416,352,l),
(325,507,l),
(511,507,l),
(511,537,l),
(325,537,l),
(416,693,l),
(390,708,l),
(300,551,l),
(211,707,l),
(184,692,l),
(275,537,l),
(89,537,l),
(89,507,l),
(275,507,l),
(184,351,l),
(210,336,l)
);
}
);
width = 600;
},
{
associatedMasterId = "EE2FFE84-06F1-4AFB-BBEC-60D09A436D14";
guides = (
{
pos = (228,706);
},
{
pos = (215,378);
},
{
angle = 270;
pos = (372,608);
},
{
angle = 270;
pos = (51,598);
},
{
pos = (154,706);
}
);
layerId = "5C64FE3B-FF75-41D6-99E9-254AEB2DE07B";
name = "24 de feb. de 23 13:25";
shapes = (
{
closed = 1;
nodes = (
(40,562,l),
(40,532,l),
(382,532,l),
(382,562,l)
);
},
{
closed = 1;
nodes = (
(138,703,l),
(113,688,l),
(284,391,l),
(309,406,l)
);
},
{
closed = 1;
nodes = (
(138,391,l),
(309,688,l),
(284,703,l),
(113,406,l)
);
}
);
width = 422;
},
{
layerId = "574EE4B9-5C1A-4E7E-9985-C08FACB65BD8";
shapes = (
{
closed = 1;
nodes = (
(300,450,l),
(378,316,l),
(433,346,l),
(355,483,l),
(515,483,l),
(515,546,l),
(355,546,l),
(433,680,l),
(378,712,l),
(300,577,l),
(222,712,l),
(167,681,l),
(245,546,l),
(85,546,l),
(85,483,l),
(245,483,l),
(167,348,l),
(222,316,l)
);
}
);
width = 600;
},
{
layerId = "58B1DC7A-69F8-4375-AD2E-AC5103CCF536";
shapes = (
{
closed = 1;
nodes = (
(300,391,l),
(361,277,l),
(459,332,l),
(386,443,l),
(524,437,l),
(524,550,l),
(386,544,l),
(459,654,l),
(360,711,l),
(300,588,l),
(240,711,l),
(141,655,l),
(214,544,l),
(76,550,l),
(76,437,l),
(214,443,l),
(141,332,l),
(239,276,l)
);
}
);
width = 600;
}
);
unicode = 42;
}
{
glyphname = plus;
kernLeft = "0";
kernRight = "0";
layers = (
{
layerId = "EE2FFE84-06F1-4AFB-BBEC-60D09A436D14";
shapes = (
{
closed = 1;
nodes = (
(62,289,l),
(538,289,l),
(538,319,l),
(62,319,l)
);
},
{
closed = 1;
nodes = (
(284,542,l),
(284,66,l),
(316,66,l),
(316,542,l)
);
}
);
width = 600;
},
{
layerId = "574EE4B9-5C1A-4E7E-9985-C08FACB65BD8";
shapes = (
{
closed = 1;
nodes = (
(62,266,l),
(538,266,l),
(538,344,l),
(62,344,l)
);
},
{
closed = 1;
nodes = (
(261,543,l),
(261,67,l),
(339,67,l),
(339,543,l)
);
}
);
width = 600;
},
{
layerId = "58B1DC7A-69F8-4375-AD2E-AC5103CCF536";
shapes = (
{
closed = 1;
nodes = (
(62,240,l),
(538,240,l),
(538,369,l),
(62,369,l)
);
},
{
closed = 1;
nodes = (
(235,542,l),
(235,66,l),
(365,66,l),
(365,542,l)
);
}
);
width = 600;
}
);
unicode = 43;
}
{
glyphname = comma;
kernLeft = "0";
kernRight = "0";
layers = (
{
background = {
shapes = (
{
closed = 1;
nodes = (
(3,108,l),
(3,33,o),
(-4,-33,o),
(-27,-126,c),
(22,-130,l),
(65,-41,o),
(81,32,o),
(81,108,c)
);
}
);
};
layerId = "EE2FFE84-06F1-4AFB-BBEC-60D09A436D14";
shapes = (
{
closed = 1;
nodes = (
(305,0,l),
(266,-125,l),
(291,-125,l),
(340,0,l)
);
},
{
pos = (3,0);
ref = period;
}
);
width = 600;
},
{
layerId = "574EE4B9-5C1A-4E7E-9985-C08FACB65BD8";
shapes = (
{
closed = 1;
nodes = (
(290,0,l),
(239,-161,l),
(290,-161,l),
(359,0,l)
);
},
{
alignment = -1;
ref = period;
}
);
width = 600;
},
{
layerId = "58B1DC7A-69F8-4375-AD2E-AC5103CCF536";
shapes = (
{
closed = 1;
nodes = (
(284,0,l),
(225,-158,l),
(291,-158,l),
(378,0,l)
);
},
{
alignment = -1;
ref = period;
}
);
width = 600;
}
);
unicode = 44;
}
{
color = 5;
glyphname = hyphen;
kernLeft = "0";
kernRight = "0";
layers = (
{
background = {
shapes = (
{
closed = 1;
nodes = (
(448,292,l),
(448,322,l),
(152,322,l),
(152,292,l)
);
}
);
};
layerId = "EE2FFE84-06F1-4AFB-BBEC-60D09A436D14";
shapes = (
{
closed = 1;
nodes = (
(430,265,l),
(430,295,l),
(170,295,l),
(170,265,l)
);
}
);
width = 600;
},
{
background = {
shapes = (
{
closed = 1;
nodes = (
(465,276,l),
(465,354,l),
(135,354,l),
(135,276,l)
);
}
);
};
layerId = "574EE4B9-5C1A-4E7E-9985-C08FACB65BD8";
shapes = (
{
closed = 1;
nodes = (
(450,252,l),
(450,330,l),
(150,330,l),
(150,252,l)
);
}
);
width = 600;
},
{
background = {
shapes = (
{
closed = 1;
nodes = (
(476,248,l),
(476,377,l),
(124,377,l),
(124,248,l)
);
}
);
};
layerId = "58B1DC7A-69F8-4375-AD2E-AC5103CCF536";
shapes = (
{
closed = 1;
nodes = (
(470,233,l),
(470,353,l),
(130,353,l),
(130,233,l)
);
}
);
width = 600;
}
);
unicode = 45;
}
{
glyphname = period;
kernLeft = "0";
kernRight = "0";
layers = (
{
background = {
shapes = (
{
closed = 1;
nodes = (
(46,-6,o),
(59,7,o),
(59,24,cs),
(59,42,o),
(46,55,o),
(28,55,cs),
(10,55,o),
(-3,42,o),
(-3,24,cs),
(-3,7,o),
(10,-6,o),
(28,-6,cs)
);
}
);
};
layerId = "EE2FFE84-06F1-4AFB-BBEC-60D09A436D14";
shapes = (
{
closed = 1;
nodes = (
(263,0,l),
(337,0,l),
(337,75,l),
(263,75,l)
);
}
);
width = 600;
},
{
layerId = "574EE4B9-5C1A-4E7E-9985-C08FACB65BD8";
shapes = (
{
closed = 1;
nodes = (
(241,0,l),
(359,0,l),
(359,115,l),
(241,115,l)
);
}
);
width = 600;
},
{
layerId = "58B1DC7A-69F8-4375-AD2E-AC5103CCF536";
shapes = (
{
closed = 1;
nodes = (
(222,0,l),
(378,0,l),
(378,154,l),
(222,154,l)
);
}
);
width = 600;
}
);
unicode = 46;
}
{
color = 3;
glyphname = slash;
kernLeft = "0";
kernRight = "0";
layers = (
{
layerId = "EE2FFE84-06F1-4AFB-BBEC-60D09A436D14";
shapes = (
{
closed = 1;
nodes = (
(168,-90,l),
(464,726,l),
(432,726,l),
(137,-90,l)
);
}
);
width = 600;
},
{
layerId = "574EE4B9-5C1A-4E7E-9985-C08FACB65BD8";
shapes = (
{
closed = 1;
nodes = (
(195,-90,l),
(491,769,l),
(404,769,l),
(108,-90,l)
);
}
);
width = 600;
},
{
layerId = "58B1DC7A-69F8-4375-AD2E-AC5103CCF536";
shapes = (
{
closed = 1;
nodes = (
(220,-90,l),
(516,738,l),
(380,738,l),
(84,-90,l)
);
}
);
width = 600;
}
);
unicode = 47;
}
{
color = 5;
glyphname = zero;
kernLeft = "0";
kernRight = "0";
layers = (
{
background = {
shapes = (
{
closed = 1;
nodes = (
(458,-16,o),
(546,160,o),
(546,354,cs),
(546,549,o),
(459,726,o),
(264,726,cs),
(69,726,o),
(-18,549,o),
(-18,354,cs),
(-18,160,o),
(70,-16,o),
(264,-16,cs)
);
},
{
closed = 1;
nodes = (
(118,66,o),
(72,208,o),
(72,354,cs),
(72,500,o),
(118,644,o),
(264,644,cs),
(410,644,o),
(456,500,o),
(456,354,cs),
(456,208,o),
(410,66,o),
(264,66,cs)
);
}
);
};
layerId = "EE2FFE84-06F1-4AFB-BBEC-60D09A436D14";
shapes = (
{
closed = 1;
nodes = (
(443,-16,o),
(540,137,o),
(540,354,cs),
(540,572,o),
(443,726,o),
(300,726,cs),
(157,726,o),
(60,572,o),
(60,354,cs),
(60,137,o),
(157,-16,o),
(300,-16,cs)
);
},
{
closed = 1;
nodes = (
(177,16,o),
(94,156,o),
(94,354,cs),
(94,554,o),
(177,694,o),
(300,694,cs),
(423,694,o),
(506,554,o),
(506,354,cs),
(506,156,o),
(423,16,o),
(300,16,cs)
);
},
{
closed = 1;
nodes = (
(162,86,l),
(468,620,l),
(438,624,l),
(132,90,l)
);
}
);
width = 600;
},
{
layerId = "574EE4B9-5C1A-4E7E-9985-C08FACB65BD8";
shapes = (
{
closed = 1;
nodes = (
(454,-16,o),
(550,124,o),
(550,354,cs),
(550,584,o),
(454,726,o),
(300,726,cs),
(146,726,o),
(50,584,o),
(50,354,cs),
(50,124,o),
(146,-16,o),
(300,-16,cs)
);
},
{
closed = 1;
nodes = (
(200,68,o),
(140,178,o),
(140,354,cs),
(140,530,o),
(200,642,o),
(300,642,cs),
(400,642,o),
(460,530,o),
(460,354,cs),
(460,178,o),
(400,68,o),
(300,68,cs)
);
},
{
closed = 1;
nodes = (
(200,98,l),
(480,608,l),
(400,612,l),
(120,102,l)
);
}
);
width = 600;
},
{
layerId = "58B1DC7A-69F8-4375-AD2E-AC5103CCF536";
shapes = (
{
closed = 1;
nodes = (
(459,-16,o),
(560,114,o),
(560,354,cs),
(560,594,o),
(459,726,o),
(300,726,cs),
(141,726,o),
(40,594,o),
(40,354,cs),
(40,114,o),
(141,-16,o),
(300,-16,cs)
);
},
{
closed = 1;
nodes = (
(231,114,o),
(194,198,o),
(194,354,cs),
(194,511,o),
(231,596,o),
(300,596,cs),
(369,596,o),
(406,511,o),
(406,354,cs),
(406,198,o),
(369,114,o),
(300,114,cs)
);
},
{
closed = 1;
nodes = (
(218,114,l),
(462,586,l),
(382,596,l),
(138,124,l)
);
}
);
width = 600;
}
);
unicode = 48;
}
{
glyphname = one;
kernLeft = "0";
kernRight = "0";
layers = (
{
background = {
shapes = (
{
closed = 1;
nodes = (
(6,512,l),
(152,620,l),
(120,647,l),
(120,0,l),
(206,0,l),
(206,710,l),
(132,710,l),
(-48,577,l)
);
}
);
};
layerId = "EE2FFE84-06F1-4AFB-BBEC-60D09A436D14";
shapes = (
{
closed = 1;
nodes = (
(63,0,l),
(517,0,l),
(517,30,l),
(63,30,l)
);
},
{
closed = 1;
nodes = (
(118,564,l),
(277,564,l),
(277,0,l),
(309,0,l),
(309,710,l),
(284,710,l),
(284,627,o),
(251,590,o),
(175,590,c),
(118,590,l)
);
}
);
width = 600;
},
{
layerId = "574EE4B9-5C1A-4E7E-9985-C08FACB65BD8";
shapes = (
{
closed = 1;
nodes = (
(58,0,l),
(559,0,l),
(559,84,l),
(58,84,l)
);
},
{
closed = 1;
nodes = (
(98,526,l),
(274,526,l),
(274,0,l),
(360,0,l),
(360,710,l),
(293,710,l),
(293,633,o),
(260,600,o),
(184,600,c),
(98,600,l)
);
}
);
width = 600;
},
{
layerId = "58B1DC7A-69F8-4375-AD2E-AC5103CCF536";
shapes = (
{
closed = 1;
nodes = (
(58,0,l),
(560,0,l),
(560,131,l),
(58,131,l)
);
},
{
closed = 1;
nodes = (
(69,454,l),
(249,454,l),
(249,0,l),
(395,0,l),
(395,710,l),
(269,710,l),
(268,614,o),
(223,571,o),
(122,571,c),
(69,571,l)
);
}
);
width = 600;
}
);
unicode = 49;
}
{
color = 5;
glyphname = two;
kernLeft = "0";
kernRight = "0";
layers = (
{
background = {
shapes = (
{
closed = 1;
nodes = (
(527,0,l),
(527,30,l),
(88,30,l),
(91,110,o),
(186,208,o),
(337,293,cs),
(465,365,o),
(529,448,o),
(529,524,cs),
(529,643,o),
(440,726,o),
(313,726,cs),
(179,726,o),
(83,637,o),
(65,496,c),
(99,493,l),
(120,622,o),
(197,694,o),
(313,694,cs),
(420,694,o),
(495,624,o),
(495,524,cs),
(495,459,o),
(448,390,o),
(318,317,cs),
(138,216,o),
(52,116,o),
(52,0,c)
);
}
);
};
layerId = "EE2FFE84-06F1-4AFB-BBEC-60D09A436D14";
shapes = (
{
closed = 1;
nodes = (
(540,0,l),
(540,30,l),
(96,30,l),
(102,122,o),
(176,213,o),
(330,288,cs),
(466,354,o),
(533,412,o),
(533,522,cs),
(533,637,o),
(451,726,o),
(315,726,cs),
(175,726,o),
(80,639,o),
(62,496,c),
(96,493,l),
(116,625,o),
(194,694,o),
(315,694,cs),
(434,694,o),
(499,618,o),
(499,520,cs),
(499,426,o),
(440,379,o),
(312,315,cs),
(132,225,o),
(60,130,o),
(60,0,c)
);
}
);
width = 600;
},
{
associatedMasterId = "EE2FFE84-06F1-4AFB-BBEC-60D09A436D14";
background = {
shapes = (
{
closed = 1;
nodes = (
(178,279,o),
(34,219,o),
(34,0,c),
(533,0,l),
(533,82,l),
(88,82,l),
(133,45,l),
(124,147,o),
(198,200,o),
(293,260,cs),
(345,293,ls),
(442,355,o),
(527,420,o),
(527,524,cs),
(527,640,o),
(431,726,o),
(301,726,cs),
(139,726,o),
(40,599,o),
(43,440,c),
(-4,501,l),
(176,489,l),
(131,434,l),
(131,545,o),
(191,644,o),
(301,644,cs),
(379,644,o),
(437,599,o),
(437,524,cs),
(437,469,o),
(379,417,o),
(316,374,cs),
(251,329,ls)
);
}
);
};
layerId = "E03EF528-E65A-45B9-8975-F20273B8112F";
name = "24 de feb. de 23 11:29";
shapes = (
{
closed = 1;
nodes = (
(87,493,l),
(108,622,o),
(185,694,o),
(301,694,cs),
(408,694,o),
(483,624,o),
(483,524,cs),
(483,463,o),
(435,401,o),
(321,326,cs),
(256,283,ls),
(100,180,o),
(40,101,o),
(40,0,c),
(515,0,l),
(515,30,l),
(64,30,l),
(76,25,l),
(74,93,o),
(151,182,o),
(288,269,cs),
(340,302,ls),
(454,375,o),
(517,454,o),
(517,524,cs),
(517,643,o),
(428,726,o),
(301,726,cs),
(167,726,o),
(71,637,o),
(53,496,c)
);
}
);
width = 557;
},
{
background = {
shapes = (
{
closed = 1;
nodes = (
(550,0,l),
(550,84,l),
(159,84,l),
(162,155,o),
(299,252,o),
(355,284,cs),
(463,351,o),
(544,421,o),
(544,524,cs),
(544,640,o),
(449,726,o),
(319,726,cs),
(177,726,o),
(84,629,o),
(65,498,c),
(155,492,l),
(174,588,o),
(233,642,o),
(319,642,cs),
(399,642,o),
(454,593,o),
(454,524,cs),
(454,469,o),
(400,414,o),
(325,366,cs),
(204,289,o),
(52,212,o),
(52,0,c)
);
}
);
};
layerId = "574EE4B9-5C1A-4E7E-9985-C08FACB65BD8";
shapes = (
{
closed = 1;
nodes = (
(550,0,l),
(550,84,l),
(156,84,l),
(160,138,o),
(226,212,o),
(354,280,cs),
(501,358,o),
(549,412,o),
(549,520,cs),
(549,642,o),
(463,726,o),
(317,726,cs),
(163,726,o),
(70,637,o),
(54,498,c),
(144,492,l),
(159,588,o),
(217,642,o),
(317,642,cs),
(411,642,o),
(459,591,o),
(459,518,cs),
(459,446,o),
(420,414,o),
(322,362,cs),
(109,249,o),
(50,150,o),
(50,0,c)
);
}
);
width = 600;
},
{
background = {
shapes = (
{
closed = 1;
nodes = (
(565,0,l),
(565,131,l),
(221,131,l),
(238,191,o),
(353,258,o),
(405,284,cs),
(495,332,o),
(564,407,o),
(564,505,cs),
(564,632,o),
(459,726,o),
(310,726,cs),
(156,726,o),
(55,622,o),
(48,482,c),
(201,471,l),
(207,543,o),
(246,595,o),
(310,595,cs),
(369,595,o),
(410,556,o),
(410,507,cs),
(410,455,o),
(353,423,o),
(287,383,cs),
(114,280,o),
(36,206,o),
(36,0,c)
);
}
);
};
layerId = "58B1DC7A-69F8-4375-AD2E-AC5103CCF536";
shapes = (
{
closed = 1;
nodes = (
(560,0,l),
(560,130,l),
(211,130,l),
(215,162,o),
(260,214,o),
(376,276,cs),
(512,349,o),
(560,403,o),
(560,513,cs),
(560,640,o),
(469,726,o),
(319,726,cs),
(154,726,o),
(55,635,o),
(42,486,c),
(189,477,l),
(199,559,o),
(244,604,o),
(320,604,cs),
(379,604,o),
(413,566,o),
(413,511,cs),
(413,454,o),
(383,427,o),
(286,376,cs),
(98,277,o),
(40,178,o),
(40,0,c)
);
}
);
width = 600;
}
);
unicode = 50;
}
{
glyphname = three;
kernLeft = "0";
kernRight = "0";
layers = (
{
background = {
shapes = (
{
closed = 1;
nodes = (
(183,336,l),
(237,337,l),
(320,337,o),
(409,297,o),
(409,202,cs),
(409,107,o),
(320,66,o),
(237,66,cs),
(163,66,o),
(70,109,o),
(75,210,c),
(122,192,l),
(-59,180,l),
(-14,207,l),
(-21,70,o),
(90,-16,o),
(237,-16,cs),
(390,-16,o),
(499,65,o),
(499,195,cs),
(499,303,o),
(423,377,o),
(291,396,c),
(292,373,l),
(413,390,o),
(475,447,o),
(475,541,cs),
(475,643,o),
(380,726,o),
(237,726,cs),
(119,726,o),
(14,657,o),
(9,535,c),
(-26,557,l),
(160,545,l),
(96,535,l),
(100,621,o),
(181,644,o),
(237,644,cs),
(314,644,o),
(387,614,o),
(387,541,cs),
(387,449,o),
(303,418,o),
(237,418,c),
(183,419,l)
);
}
);
};
layerId = "EE2FFE84-06F1-4AFB-BBEC-60D09A436D14";
shapes = (
{
closed = 1;
nodes = (
(236,367,l),
(292,368,l),
(410,368,o),
(500,298,o),
(500,199,cs),
(500,88,o),
(410,16,o),
(292,16,cs),
(187,16,o),
(106,81,o),
(96,177,c),
(65,174,l),
(75,61,o),
(169,-16,o),
(292,-16,cs),
(430,-16,o),
(534,71,o),
(534,195,cs),
(534,296,o),
(452,378,o),
(336,395,c),
(336,372,l),
(438,386,o),
(510,457,o),
(510,541,cs),
(510,650,o),
(419,726,o),
(295,726,cs),
(200,726,o),
(113,659,o),
(95,564,c),
(129,561,l),
(144,639,o),
(216,694,o),
(295,694,cs),
(399,694,o),
(476,631,o),
(476,541,cs),
(476,456,o),
(396,397,o),
(292,397,c),
(236,398,l)
);
}
);
width = 600;
},
{
layerId = "574EE4B9-5C1A-4E7E-9985-C08FACB65BD8";
shapes = (
{
closed = 1;
nodes = (
(240,335,l),
(294,336,l),
(396,338,o),
(461,286,o),
(461,202,cs),
(461,120,o),
(396,68,o),
(294,68,cs),
(224,68,o),
(141,102,o),
(133,189,c),
(44,183,l),
(50,66,o),
(153,-16,o),
(294,-16,cs),
(447,-16,o),
(550,71,o),
(550,195,cs),
(550,297,o),
(487,370,o),
(365,392,c),
(364,375,l),
(472,395,o),
(526,450,o),
(526,541,cs),
(526,650,o),
(431,726,o),
(294,726,cs),
(176,726,o),
(82,655,o),
(69,555,c),
(159,549,l),
(168,606,o),
(221,642,o),
(294,642,cs),
(385,642,o),
(436,603,o),
(436,541,cs),
(436,449,o),
(361,418,o),
(294,419,c),
(240,420,l)
);
}
);
width = 600;
},
{
layerId = "58B1DC7A-69F8-4375-AD2E-AC5103CCF536";
shapes = (
{
closed = 1;
nodes = (
(248,314,l),
(288,315,l),
(362,317,o),
(408,275,o),
(408,209,cs),
(408,153,o),
(365,115,o),
(300,115,cs),
(246,115,o),
(196,150,o),
(192,210,c),
(37,204,l),
(43,62,o),
(163,-16,o),
(300,-16,cs),
(455,-16,o),
(562,74,o),
(562,202,cs),
(562,294,o),
(491,384,o),
(359,392,c),
(358,375,l),
(468,386,o),
(538,446,o),
(538,537,cs),
(538,649,o),
(445,726,o),
(300,726,cs),
(165,726,o),
(68,650,o),
(55,534,c),
(210,528,l),
(214,567,o),
(250,595,o),
(299,595,cs),
(351,595,o),
(384,565,o),
(384,522,cs),
(384,465,o),
(341,439,o),
(288,440,c),
(248,441,l)
);
}
);
width = 600;
}
);
unicode = 51;
}
{
color = 5;
glyphname = four;
kernLeft = "0";
kernRight = "0";
layers = (
{
background = {
shapes = (
{
closed = 1;
nodes = (
(465,0,l),
(465,165,l),
(550,165,l),
(550,195,l),
(465,195,l),
(465,710,l),
(433,710,l),
(50,191,l),
(50,165,l),
(433,165,l),
(433,0,l)
);
},
{
closed = 1;
nodes = (
(433,657,l),
(433,195,l),
(92,195,l)
);
}
);
};
layerId = "EE2FFE84-06F1-4AFB-BBEC-60D09A436D14";
shapes = (
{
closed = 1;
nodes = (
(460,0,l),
(460,175,l),
(550,175,l),
(550,205,l),
(460,205,l),
(460,710,l),
(428,710,l),
(50,201,l),
(50,175,l),
(428,175,l),
(428,0,l)
);
},
{
closed = 1;
nodes = (
(428,657,l),
(428,205,l),
(92,205,l)
);
}
);
width = 600;
},
{
background = {
shapes = (
{
closed = 1;
nodes = (
(486,0,l),
(486,146,l),
(567,146,l),
(567,230,l),
(486,230,l),
(486,710,l),
(394,710,l),
(33,230,l),
(33,146,l),
(400,146,l),
(400,0,l)
);
},
{
closed = 1;
nodes = (
(400,578,l),
(400,230,l),
(138,230,l)
);
}
);
};
layerId = "574EE4B9-5C1A-4E7E-9985-C08FACB65BD8";
shapes = (
{
closed = 1;
nodes = (
(474,0,l),
(474,154,l),
(560,154,l),
(560,238,l),
(474,238,l),
(474,710,l),
(382,710,l),
(40,232,l),
(40,154,l),
(388,154,l),
(388,0,l)
);
},
{
closed = 1;
nodes = (
(388,578,l),
(388,238,l),
(144,238,l)
);
}
);
width = 600;
},
{
background = {
shapes = (
{
closed = 1;
nodes = (
(506,0,l),
(506,117,l),
(573,117,l),
(573,248,l),
(506,248,l),
(506,710,l),
(328,710,l),
(14,262,l),
(14,117,l),
(360,117,l),
(360,0,l)
);
},
{
closed = 1;
nodes = (
(360,500,l),
(360,248,l),
(181,248,l)
);
}
);
};
layerId = "58B1DC7A-69F8-4375-AD2E-AC5103CCF536";
shapes = (
{
closed = 1;
nodes = (
(490,0,l),
(490,134,l),
(570,134,l),
(570,264,l),
(490,264,l),
(490,710,l),
(311,710,l),
(30,257,l),
(30,134,l),
(344,134,l),
(344,0,l)
);
},
{
closed = 1;
nodes = (
(344,530,l),
(344,264,l),
(176,264,l)
);
}
);
width = 600;
}
);
unicode = 52;
}
{
glyphname = five;
kernLeft = "0";
kernRight = "0";
layers = (
{
background = {
shapes = (
{
closed = 1;
nodes = (
(54,710,l),
(-5,279,l),
(-34,310,l),
(136,310,l),
(89,295,l),
(101,349,o),
(164,389,o),
(236,389,cs),
(336,389,o),
(403,324,o),
(403,228,cs),
(403,136,o),
(337,66,o),
(249,66,cs),
(133,66,o),
(63,136,o),
(76,237,c),
(120,192,l),
(-59,180,l),
(-13,227,l),
(-25,83,o),
(77,-16,o),
(239,-16,cs),
(394,-16,o),
(493,80,o),
(493,228,cs),
(493,370,o),
(396,471,o),
(259,471,cs),
(176,471,o),
(90,434,o),
(77,359,c),
(93,359,l),
(135,673,l),
(83,628,l),
(445,628,l),
(445,710,l)
);
}
);
};
layerId = "EE2FFE84-06F1-4AFB-BBEC-60D09A436D14";
shapes = (
{
closed = 1;
nodes = (
(436,-16,o),
(533,85,o),
(533,228,cs),
(533,371,o),
(435,471,o),
(306,471,cs),
(232,471,o),
(143,418,o),
(114,348,c),
(121,334,l),
(170,680,l),
(503,680,l),
(503,710,l),
(142,710,l),
(88,327,l),
(127,327,l),
(162,396,o),
(235,439,o),
(306,439,cs),
(415,439,o),
(499,352,o),
(499,228,cs),
(499,104,o),
(419,16,o),
(316,16,cs),
(210,16,o),
(127,78,o),
(112,176,c),
(80,173,l),
(92,62,o),
(191,-16,o),
(309,-16,cs)
);
}
);
width = 600;
},
{
layerId = "574EE4B9-5C1A-4E7E-9985-C08FACB65BD8";
shapes = (
{
closed = 1;
nodes = (
(445,-16,o),
(546,85,o),
(546,228,cs),
(546,370,o),
(449,471,o),
(321,471,cs),
(258,471,o),
(183,441,o),
(158,385,c),
(165,363,l),
(201,626,l),
(508,626,l),
(508,710,l),
(128,710,l),
(73,311,l),
(166,311,l),
(185,357,o),
(244,388,o),
(299,388,cs),
(390,388,o),
(456,325,o),
(456,228,cs),
(456,134,o),
(396,68,o),
(312,68,cs),
(225,68,o),
(163,114,o),
(151,189,c),
(61,183,l),
(71,72,o),
(177,-16,o),
(302,-16,cs)
);
}
);
width = 600;
},
{
layerId = "58B1DC7A-69F8-4375-AD2E-AC5103CCF536";
shapes = (
{
closed = 1;
nodes = (
(458,-16,o),
(567,85,o),
(567,232,cs),
(567,376,o),
(465,480,o),
(327,480,cs),
(264,480,o),
(209,453,o),
(187,404,c),
(211,400,l),
(235,579,l),
(529,579,l),
(529,710,l),
(106,710,l),
(48,289,l),
(197,289,l),
(212,323,o),
(249,352,o),
(299,352,cs),
(364,352,o),
(413,299,o),
(413,232,cs),
(413,163,o),
(367,115,o),
(305,115,cs),
(243,115,o),
(197,152,o),
(193,203,c),
(39,197,l),
(50,73,o),
(160,-16,o),
(302,-16,cs)
);
}
);
width = 600;
}
);
unicode = 53;
}
{
color = 5;
glyphname = six;
kernLeft = "0";
kernRight = "0";
layers = (
{
background = {
shapes = (
{
closed = 1;
nodes = (
(442,-16,o),
(537,88,o),
(537,236,cs),
(537,376,o),
(442,474,o),
(316,474,cs),
(223,474,o),
(132,410,o),
(100,309,c),
(109,292,l),
(113,562,o),
(201,694,o),
(342,694,cs),
(406,694,o),
(465,642,o),
(494,559,c),
(527,563,l),
(495,663,o),
(421,726,o),
(336,726,cs),
(151,726,o),
(79,512,o),
(79,313,cs),
(79,194,o),
(99,119,o),
(144,65,cs),
(188,13,o),
(254,-16,o),
(316,-16,cs)
);
},
{
closed = 1;
nodes = (
(204,16,o),
(113,113,o),
(115,236,cs),
(117,357,o),
(203,442,o),
(316,442,cs),
(422,442,o),
(503,357,o),
(503,236,cs),
(503,107,o),
(422,16,o),
(316,16,cs)
);
}
);
};
layerId = "EE2FFE84-06F1-4AFB-BBEC-60D09A436D14";
shapes = (
{
closed = 1;
nodes = (
(443,-16,o),
(530,84,o),
(530,234,cs),
(530,376,o),
(447,472,o),
(307,472,cs),
(201,472,o),
(114,404,o),
(90,302,c),
(100,298,l),
(106,568,o),
(199,694,o),
(321,694,cs),
(412,694,o),
(465,633,o),
(485,559,c),
(518,563,l),
(488,659,o),
(425,726,o),
(321,726,cs),
(148,726,o),
(70,533,o),
(70,298,cs),
(70,78,o),
(172,-16,o),
(307,-16,cs)
);
},
{
closed = 1;
nodes = (
(187,16,o),
(108,113,o),
(108,242,cs),
(108,362,o),
(200,441,o),
(307,441,cs),
(427,441,o),
(496,357,o),
(496,234,cs),
(496,96,o),
(423,16,o),
(307,16,cs)
);
}
);
width = 600;
},
{
background = {
shapes = (
{
closed = 1;
nodes = (
(452,-16,o),
(555,81,o),
(555,236,cs),
(555,382,o),
(460,484,o),
(320,484,cs),
(229,484,o),
(156,433,o),
(122,344,c),
(139,340,l),
(144,534,o),
(211,642,o),
(326,642,cs),
(392,642,o),
(441,609,o),
(462,551,c),
(552,558,l),
(520,667,o),
(433,726,o),
(325,726,cs),
(121,726,o),
(53,526,o),
(53,313,cs),
(53,202,o),
(78,112,o),
(129,59,cs),
(180,6,o),
(243,-16,o),
(305,-16,cs)
);
},
{
closed = 1;
nodes = (
(212,68,o),
(145,138,o),
(147,236,cs),
(148,332,o),
(218,399,o),
(314,399,cs),
(403,399,o),
(465,332,o),
(465,236,cs),
(465,138,o),
(400,68,o),
(307,68,cs)
);
}
);
};
layerId = "574EE4B9-5C1A-4E7E-9985-C08FACB65BD8";
shapes = (
{
closed = 1;
nodes = (
(449,-16,o),
(550,80,o),
(550,236,cs),
(550,382,o),
(458,478,o),
(318,478,cs),
(216,478,o),
(142,416,o),
(120,344,c),
(138,340,l),
(142,542,o),
(212,642,o),
(330,642,cs),
(408,642,o),
(444,606,o),
(460,550,c),
(550,558,l),
(522,658,o),
(456,726,o),
(330,726,cs),
(120,726,o),
(50,534,o),
(50,300,cs),
(50,97,o),
(142,-16,o),
(302,-16,cs)
);
},
{
closed = 1;
nodes = (
(206,68,o),
(144,138,o),
(144,236,cs),
(144,334,o),
(216,396,o),
(312,396,cs),
(401,396,o),
(460,334,o),
(460,236,cs),
(460,130,o),
(397,68,o),
(304,68,cs)
);
}
);
width = 600;
},
{
background = {
shapes = (
{
closed = 1;
nodes = (
(461,-16,o),
(570,86,o),
(570,236,cs),
(570,382,o),
(469,484,o),
(324,484,cs),
(239,484,o),
(162,429,o),
(130,345,c),
(185,341,l),
(189,508,o),
(237,595,o),
(325,595,cs),
(371,595,o),
(408,569,o),
(420,530,c),
(567,537,l),
(539,651,o),
(441,726,o),
(325,726,cs),
(111,726,o),
(38,535,o),
(38,313,cs),
(38,220,o),
(59,143,o),
(98,89,cs),
(146,20,o),
(218,-16,o),
(305,-16,cs)
);
},
{
closed = 1;
nodes = (
(241,115,o),
(196,165,o),
(198,236,cs),
(199,305,o),
(246,353,o),
(312,353,cs),
(373,353,o),
(416,305,o),
(416,236,cs),
(416,165,o),
(370,115,o),
(306,115,cs)
);
}
);
};
layerId = "58B1DC7A-69F8-4375-AD2E-AC5103CCF536";
shapes = (
{
closed = 1;
nodes = (
(461,-16,o),
(570,75,o),
(570,234,cs),
(570,375,o),
(477,482,o),
(333,482,cs),
(232,482,o),
(169,414,o),
(148,354,c),
(180,350,l),
(180,518,o),
(244,596,o),
(328,596,cs),
(374,596,o),
(403,572,o),
(419,530,c),
(565,542,l),
(539,648,o),
(464,726,o),
(328,726,cs),
(121,726,o),
(30,548,o),
(30,311,cs),
(30,104,o),
(121,-16,o),
(302,-16,cs)
);
},
{
closed = 1;
nodes = (
(229,114,o),
(185,166,o),
(185,234,cs),
(185,312,o),
(231,358,o),
(306,358,cs),
(380,358,o),
(416,311,o),
(416,233,cs),
(416,153,o),
(372,114,o),
(300,114,cs)
);
}
);
width = 600;
}
);
unicode = 54;
}
{
glyphname = seven;
kernLeft = "0";
kernRight = "0";
layers = (
{
background = {
shapes = (
{
closed = 1;
nodes = (
(-18,628,l),
(437,628,l),
(413,656,l),
(257,468,o),
(154,244,o),
(154,0,c),
(244,0,l),
(244,232,o),
(345,445,o),
(487,628,c),
(487,710,l),
(-18,710,l)
);
}
);
};
layerId = "EE2FFE84-06F1-4AFB-BBEC-60D09A436D14";
shapes = (
{
closed = 1;
nodes = (
(77,680,l),
(514,680,l),
(359,505,o),
(261,243,o),
(261,0,c),
(295,0,l),
(295,240,o),
(392,500,o),
(546,672,c),
(546,710,l),
(77,710,l)
);
}
);
width = 600;
},
{
layerId = "574EE4B9-5C1A-4E7E-9985-C08FACB65BD8";
shapes = (
{
closed = 1;
nodes = (
(61,626,l),
(470,626,l),
(326,444,o),
(231,232,o),
(231,0,c),
(321,0,l),
(321,232,o),
(422,447,o),
(564,629,c),
(564,710,l),
(61,710,l)
);
}
);
width = 600;
},
{
layerId = "58B1DC7A-69F8-4375-AD2E-AC5103CCF536";
shapes = (
{
closed = 1;
nodes = (
(52,579,l),
(414,579,l),
(292,432,o),
(208,220,o),
(203,0,c),
(360,0,l),
(360,248,o),
(439,452,o),
(568,580,c),
(568,710,l),
(52,710,l)
);
}
);
width = 600;
}
);
unicode = 55;
}
{
glyphname = eight;
kernLeft = "0";
kernRight = "0";
layers = (
{
background = {
shapes = (
{
closed = 1;
nodes = (
(403,-16,o),
(512,65,o),
(512,195,cs),
(512,293,o),
(448,366,o),
(344,396,c),
(345,373,l),
(427,399,o),
(478,448,o),
(478,531,cs),
(478,643,o),
(383,726,o),
(250,726,cs),
(118,726,o),
(22,643,o),
(22,531,cs),
(22,448,o),
(72,399,o),
(157,373,c),
(157,396,l),
(52,367,o),
(-12,294,o),
(-12,195,cs),
(-12,65,o),
(97,-16,o),
(250,-16,cs)
);
},
{
closed = 1;
nodes = (
(167,66,o),
(78,107,o),
(78,202,cs),
(78,297,o),
(167,338,o),
(250,338,cs),
(333,338,o),
(422,297,o),
(422,202,cs),
(422,107,o),
(333,66,o),
(250,66,cs)
);
},
{
closed = 1;
nodes = (
(183,418,o),
(110,449,o),
(110,531,cs),
(110,614,o),
(182,644,o),
(250,644,cs),
(318,644,o),
(390,614,o),
(390,531,cs),
(390,449,o),
(317,418,o),
(250,418,cs)
);
}
);
};
layerId = "EE2FFE84-06F1-4AFB-BBEC-60D09A436D14";
shapes = (
{
closed = 1;
nodes = (
(437,-16,o),
(540,71,o),
(540,195,cs),
(540,283,o),
(480,355,o),
(384,387,c),
(459,415,o),
(506,472,o),
(506,535,cs),
(506,647,o),
(417,726,o),
(300,726,cs),
(183,726,o),
(94,647,o),
(94,535,cs),
(94,473,o),
(141,416,o),
(217,387,c),
(120,356,o),
(60,284,o),
(60,195,cs),
(60,71,o),
(163,-16,o),
(300,-16,cs)
);
},
{
closed = 1;
nodes = (
(94,297,o),
(183,368,o),
(300,368,cs),
(417,368,o),
(506,297,o),
(506,200,cs),
(506,86,o),
(423,16,o),
(300,16,cs),
(177,16,o),
(94,86,o),
(94,200,cs)
);
},
{
closed = 1;
nodes = (
(128,630,o),
(203,694,o),
(300,694,cs),
(397,694,o),
(472,630,o),
(472,537,cs),
(472,458,o),
(397,403,o),
(300,403,cs),
(203,403,o),
(128,458,o),
(128,537,cs)
);
}
);
width = 600;
},
{
layerId = "574EE4B9-5C1A-4E7E-9985-C08FACB65BD8";
shapes = (
{
closed = 1;
nodes = (
(443,-16,o),
(552,65,o),
(552,195,cs),
(552,282,o),
(500,350,o),
(415,385,c),
(479,413,o),
(518,459,o),
(518,531,cs),
(518,643,o),
(423,726,o),
(300,726,cs),
(178,726,o),
(82,643,o),
(82,531,cs),
(82,459,o),
(120,413,o),
(185,385,c),
(100,351,o),
(48,283,o),
(48,195,cs),
(48,65,o),
(157,-16,o),
(300,-16,cs)
);
},
{
closed = 1;
nodes = (
(138,281,o),
(205,335,o),
(300,335,cs),
(395,335,o),
(462,281,o),
(462,202,cs),
(462,123,o),
(395,68,o),
(300,68,cs),
(205,68,o),
(138,123,o),
(138,202,cs)
);
},
{
closed = 1;
nodes = (
(172,596,o),
(225,642,o),
(300,642,cs),
(375,642,o),
(428,596,o),
(428,531,cs),
(428,467,o),
(375,421,o),
(300,421,cs),
(225,421,o),
(172,467,o),
(172,531,cs)
);
}
);
width = 600;
},
{
layerId = "58B1DC7A-69F8-4375-AD2E-AC5103CCF536";
shapes = (
{
closed = 1;
nodes = (
(464,-16,o),
(573,65,o),
(573,195,cs),
(573,288,o),
(517,359,o),
(427,385,c),
(500,407,o),
(544,460,o),
(544,531,cs),
(544,649,o),
(447,726,o),
(300,726,cs),
(153,726,o),
(56,649,o),
(56,531,cs),
(56,460,o),
(100,407,o),
(173,385,c),
(83,360,o),
(27,289,o),
(27,195,cs),
(27,65,o),
(136,-16,o),
(300,-16,cs)
);
},
{
closed = 1;
nodes = (
(181,274,o),
(230,316,o),
(300,316,cs),
(369,316,o),
(418,274,o),
(418,214,cs),
(418,156,o),
(369,115,o),
(300,115,cs),
(230,115,o),
(181,156,o),
(181,214,cs)
);
},
{
closed = 1;
nodes = (
(210,564,o),
(246,595,o),
(300,595,cs),
(354,595,o),
(390,564,o),
(390,517,cs),
(390,471,o),
(354,440,o),
(300,440,cs),
(246,440,o),
(210,471,o),
(210,517,cs)
);
}
);
width = 600;
}
);
unicode = 56;
}
{
glyphname = nine;
kernLeft = "0";
kernRight = "0";
layers = (
{
background = {
shapes = (
{
closed = 1;
nodes = (
(312,214,o),
(373,257,o),
(408,328,c),
(401,169,o),
(351,66,o),
(238,66,cs),
(162,66,o),
(112,93,o),
(89,140,c),
(1,133,l),
(33,36,o),
(119,-16,o),
(238,-16,cs),
(300,-16,o),
(377,13,o),
(423,81,cs),
(479,163,o),
(495,272,o),
(495,379,cs),
(495,503,o),
(464,599,o),
(413,653,cs),
(361,707,o),
(300,726,o),
(238,726,cs),
(97,726,o),
(-13,613,o),
(-13,458,cs),
(-13,314,o),
(84,214,o),
(238,214,cs)
);
},
{
closed = 1;
nodes = (
(77,571,o),
(144,642,o),
(238,642,cs),
(334,642,o),
(401,570,o),
(399,468,cs),
(398,369,o),
(331,298,o),
(238,298,cs),
(144,298,o),
(77,369,o),
(77,468,cs)
);
}
);
};
layerId = "EE2FFE84-06F1-4AFB-BBEC-60D09A436D14";
shapes = (
{
angle = 180;
pos = (600,710);
ref = six;
}
);
width = 600;
},
{
layerId = "574EE4B9-5C1A-4E7E-9985-C08FACB65BD8";
shapes = (
{
alignment = -1;
angle = 180;
pos = (600,710);
ref = six;
}
);
width = 600;
},
{
layerId = "58B1DC7A-69F8-4375-AD2E-AC5103CCF536";
shapes = (
{
alignment = -1;
angle = 180;
pos = (600,710);
ref = six;
}
);
width = 600;
}
);
unicode = 57;
}
{
glyphname = equal;
kernLeft = "0";
kernRight = "0";
layers = (
{
background = {
shapes = (
{
closed = 1;
nodes = (
(62,368,l),
(538,368,l),
(538,448,l),
(62,448,l)
);
},
{
closed = 1;
nodes = (
(62,162,l),
(538,162,l),
(538,242,l),
(62,242,l)
);
}
);
};
guides = (
{
pos = (283,422);
},
{
pos = (270,136);
}
);
layerId = "EE2FFE84-06F1-4AFB-BBEC-60D09A436D14";
shapes = (
{
closed = 1;
nodes = (
(90,397,l),
(510,397,l),
(510,427,l),
(90,427,l)
);
},
{
closed = 1;
nodes = (
(90,181,l),
(510,181,l),
(510,211,l),
(90,211,l)
);
}
);
width = 600;
},
{
layerId = "574EE4B9-5C1A-4E7E-9985-C08FACB65BD8";
shapes = (
{
closed = 1;
nodes = (
(80,374,l),
(520,374,l),
(520,452,l),
(80,452,l)
);
},
{
closed = 1;
nodes = (
(80,153,l),
(520,153,l),
(520,231,l),
(80,231,l)
);
}
);
width = 600;
},
{
layerId = "58B1DC7A-69F8-4375-AD2E-AC5103CCF536";
shapes = (
{
closed = 1;
nodes = (
(73,358,l),
(527,358,l),
(527,487,l),
(73,487,l)
);
},
{
closed = 1;
nodes = (
(73,117,l),
(527,117,l),
(527,246,l),
(73,246,l)
);
}
);
width = 600;
}
);
unicode = 61;
}
{
glyphname = greater;
kernLeft = "0";
kernRight = "0";
layers = (
{
guides = (
{
angle = 270;
pos = (10,460);
},
{
pos = (63,549);
}
);
layerId = "EE2FFE84-06F1-4AFB-BBEC-60D09A436D14";
shapes = (
{
closed = 1;
nodes = (
(523,293,l),
(523,331,l),
(78,549,l),
(78,515,l),
(502,307,l),
(502,317,l),
(78,109,l),
(78,75,l)
);
}
);
width = 600;
},
{
layerId = "574EE4B9-5C1A-4E7E-9985-C08FACB65BD8";
shapes = (
{
closed = 1;
nodes = (
(528,256,l),
(528,362,l),
(73,565,l),
(73,479,l),
(466,303,l),
(466,315,l),
(73,139,l),
(73,53,l)
);
}
);
width = 600;
},
{
layerId = "58B1DC7A-69F8-4375-AD2E-AC5103CCF536";
shapes = (
{
closed = 1;
nodes = (
(532,218,l),
(532,397,l),
(69,586,l),
(69,446,l),
(469,284,l),
(469,331,l),
(69,169,l),
(69,29,l)
);
}
);
width = 600;
}
);
unicode = 62;
}
{
glyphname = at;
kernLeft = "0";
kernRight = "0";
layers = (
{
background = {
shapes = (
{
closed = 1;
nodes = (
(417,-2,l),
(364,-28,o),
(314,-41,o),
(270,-41,cs),
(139,-41,o),
(56,75,o),
(64,300,cs),
(64,459,o),
(150,680,o),
(334,680,cs),
(460,680,o),
(536,554,o),
(536,352,cs),
(536,293,o),
(526,111,o),
(461,111,cs),
(425,111,o),
(406,168,o),
(413,260,cs),
(431,490,l),
(401,490,l),
(394,378,l),
(404,378,l),
(407,440,o),
(360,499,o),
(298,499,cs),
(229,499,o),
(164,407,o),
(152,290,cs),
(138,173,o),
(187,81,o),
(264,81,cs),
(320,81,o),
(375,127,o),
(390,200,c),
(383,197,l),
(391,122,o),
(424,81,o),
(460,81,cs),
(546,81,o),
(568,269,o),
(568,355,cs),
(568,574,o),
(480,710,o),
(336,710,cs),
(165,710,o),
(40,541,o),
(32,300,cs),
(22,47,o),
(132,-73,o),
(274,-73,cs),
(324,-73,o),
(377,-58,o),
(431,-29,c)
);
},
{
closed = 1;
nodes = (
(208,109,o),
(174,180,o),
(184,294,cs),
(195,402,o),
(241,470,o),
(302,470,cs),
(364,470,o),
(395,402,o),
(384,294,cs),
(374,180,o),
(331,109,o),
(274,109,cs)
);
}
);
};
layerId = "EE2FFE84-06F1-4AFB-BBEC-60D09A436D14";
shapes = (
{
closed = 1;
nodes = (
(417,-2,l),
(366,-28,o),
(318,-41,o),
(276,-41,cs),
(141,-41,o),
(63,75,o),
(63,276,cs),
(63,459,o),
(149,680,o),
(334,680,cs),
(460,680,o),
(536,550,o),
(536,342,cs),
(536,199,o),
(507,111,o),
(462,111,cs),
(425,111,o),
(406,168,o),
(413,260,cs),
(431,490,l),
(401,490,l),
(394,378,l),
(404,378,l),
(407,440,o),
(364,499,o),
(299,499,cs),
(194,499,o),
(150,361,o),
(150,263,cs),
(150,162,o),
(196,81,o),
(267,81,cs),
(320,81,o),
(375,127,o),
(390,200,c),
(383,197,l),
(388,122,o),
(418,81,o),
(460,81,cs),
(546,81,o),
(568,249,o),
(568,345,cs),
(568,570,o),
(480,710,o),
(336,710,cs),
(141,710,o),
(31,500,o),
(31,275,cs),
(31,37,o),
(130,-73,o),
(276,-73,cs),
(328,-73,o),
(379,-58,o),
(431,-29,c)
);
},
{
closed = 1;
nodes = (
(208,109,o),
(182,188,o),
(182,269,cs),
(182,349,o),
(216,470,o),
(301,470,cs),
(356,470,o),
(386,419,o),
(386,335,cs),
(386,257,o),
(360,109,o),
(272,109,cs)
);
}
);
width = 600;
},
{
background = {
shapes = (
{
closed = 1;
nodes = (
(401,36,l),
(358,12,o),
(316,-1,o),
(277,-1,cs),
(167,-1,o),
(88,101,o),
(95,300,cs),
(102,498,o),
(201,637,o),
(334,637,cs),
(437,637,o),
(505,519,o),
(505,347,cs),
(505,302,o),
(503,146,o),
(447,146,cs),
(425,146,o),
(417,183,o),
(423,260,cs),
(441,490,l),
(368,490,l),
(361,407,l),
(371,418,l),
(373,465,o),
(341,499,o),
(293,499,cs),
(218,499,o),
(155,413,o),
(142,290,cs),
(127,167,o),
(174,81,o),
(254,81,cs),
(298,81,o),
(342,122,o),
(360,182,c),
(355,172,l),
(360,116,o),
(396,82,o),
(439,82,cs),
(499,82,o),
(572,153,o),
(578,330,cs),
(585,553,o),
(485,710,o),
(336,710,cs),
(124,710,o),
(22,485,o),
(22,275,cs),
(22,51,o),
(136,-75,o),
(279,-75,cs),
(328,-75,o),
(379,-60,o),
(431,-29,c)
);
},
{
closed = 1;
nodes = (
(234,144,o),
(212,205,o),
(220,293,cs),
(229,382,o),
(262,444,o),
(302,444,cs),
(343,444,o),
(362,382,o),
(353,293,cs),
(345,205,o),
(314,144,o),
(274,144,cs)
);
}
);
};
layerId = "574EE4B9-5C1A-4E7E-9985-C08FACB65BD8";
shapes = (
{
closed = 1;
nodes = (
(401,36,l),
(358,12,o),
(316,-1,o),
(277,-1,cs),
(172,-1,o),
(95,93,o),
(95,276,cs),
(95,447,o),
(170,637,o),
(334,637,cs),
(437,637,o),
(505,519,o),
(505,347,cs),
(505,217,o),
(482,146,o),
(449,146,cs),
(425,146,o),
(417,183,o),
(423,260,cs),
(441,490,l),
(368,490,l),
(361,407,l),
(371,418,l),
(373,465,o),
(341,499,o),
(293,499,cs),
(188,499,o),
(139,347,o),
(139,246,cs),
(139,147,o),
(184,81,o),
(251,81,cs),
(304,81,o),
(342,122,o),
(360,182,c),
(350,182,l),
(360,116,o),
(396,82,o),
(439,82,cs),
(518,82,o),
(578,199,o),
(578,352,cs),
(578,563,o),
(480,710,o),
(336,710,cs),
(124,710,o),
(22,485,o),
(22,275,cs),
(22,54,o),
(134,-70,o),
(274,-70,cs),
(325,-70,o),
(377,-57,o),
(431,-29,c)
);
},
{
closed = 1;
nodes = (
(239,144,o),
(218,189,o),
(218,258,cs),
(218,315,o),
(241,444,o),
(302,444,cs),
(336,444,o),
(355,401,o),
(355,334,cs),
(355,286,o),
(340,144,o),
(274,144,cs)
);
}
);
width = 600;
},
{
background = {
shapes = (
{
closed = 1;
nodes = (
(392,59,l),
(348,34,o),
(307,22,o),
(271,22,cs),
(168,22,o),
(103,120,o),
(110,300,cs),
(116,481,o),
(213,618,o),
(336,618,cs),
(435,618,o),
(493,525,o),
(493,355,cs),
(493,321,o),
(494,161,o),
(447,161,cs),
(425,161,o),
(426,201,o),
(430,260,cs),
(448,497,l),
(356,497,l),
(349,408,l),
(365,419,l),
(367,466,o),
(340,506,o),
(293,506,cs),
(218,506,o),
(155,413,o),
(142,290,cs),
(128,171,o),
(179,81,o),
(261,81,cs),
(315,81,o),
(361,122,o),
(366,181,c),
(344,171,l),
(349,115,o),
(389,81,o),
(436,81,cs),
(554,81,o),
(591,247,o),
(591,357,cs),
(591,579,o),
(497,710,o),
(338,710,cs),
(154,710,o),
(9,530,o),
(9,276,cs),
(9,54,o),
(128,-74,o),
(270,-74,cs),
(322,-74,o),
(377,-61,o),
(431,-32,c)
);
},
{
closed = 1;
nodes = (
(248,165,o),
(236,214,o),
(244,293,cs),
(253,374,o),
(273,423,o),
(298,423,cs),
(327,423,o),
(338,374,o),
(329,293,cs),
(321,214,o),
(302,165,o),
(277,165,cs)
);
}
);
};
layerId = "58B1DC7A-69F8-4375-AD2E-AC5103CCF536";
shapes = (
{
closed = 1;
nodes = (
(392,59,l),
(350,34,o),
(311,22,o),
(276,22,cs),
(175,22,o),
(109,111,o),
(109,274,cs),
(109,450,o),
(196,618,o),
(336,618,cs),
(435,618,o),
(493,525,o),
(493,355,cs),
(493,226,o),
(475,161,o),
(448,161,cs),
(425,161,o),
(426,201,o),
(430,260,cs),
(448,497,l),
(356,497,l),
(349,408,l),
(365,419,l),
(367,466,o),
(340,506,o),
(293,506,cs),
(190,506,o),
(140,369,o),
(140,269,cs),
(140,152,o),
(188,81,o),
(261,81,cs),
(315,81,o),
(361,122,o),
(366,181,c),
(344,171,l),
(349,115,o),
(389,81,o),
(440,81,cs),
(554,81,o),
(591,247,o),
(591,357,cs),
(591,579,o),
(497,710,o),
(338,710,cs),
(154,710,o),
(9,530,o),
(9,276,cs),
(9,55,o),
(126,-72,o),
(271,-72,cs),
(315,-72,o),
(375,-60,o),
(431,-32,c)
);
},
{
closed = 1;
nodes = (
(254,165,o),
(242,196,o),
(242,249,cs),
(242,337,o),
(270,423,o),
(298,423,cs),
(320,423,o),
(332,394,o),
(332,343,cs),
(332,235,o),
(307,165,o),
(277,165,cs)
);
}
);
width = 600;
}
);
unicode = 64;
}
{
glyphname = B;
kernLeft = "0";
kernRight = "0";
layers = (
{
background = {
shapes = (
{
closed = 1;
nodes = (
(202,0,ls),
(344,0,o),
(444,83,o),
(444,201,cs),
(444,300,o),
(363,370,o),
(249,370,c),
(250,364,l),
(342,364,o),
(414,430,o),
(414,513,cs),
(414,634,o),
(317,710,o),
(162,710,cs),
(-33,710,l),
(-33,0,l)
);
},
{
closed = 1;
nodes = (
(55,318,l),
(202,318,ls),
(290,318,o),
(352,273,o),
(352,201,cs),
(352,130,o),
(290,86,o),
(202,86,cs),
(55,86,l)
);
},
{
closed = 1;
nodes = (
(55,624,l),
(162,624,ls),
(260,624,o),
(322,581,o),
(322,513,cs),
(322,446,o),
(260,404,o),
(162,404,cs),
(55,404,l)
);
}
);
};
layerId = "EE2FFE84-06F1-4AFB-BBEC-60D09A436D14";
shapes = (
{
closed = 1;
nodes = (
(307,0,ls),
(455,0,o),
(537,68,o),
(537,189,cs),
(537,294,o),
(458,360,o),
(332,360,c),
(332,354,l),
(435,354,o),
(507,423,o),
(507,520,cs),
(507,642,o),
(421,710,o),
(267,710,cs),
(90,710,l),
(90,0,l)
);
},
{
closed = 1;
nodes = (
(122,339,l),
(307,339,ls),
(427,339,o),
(503,281,o),
(503,189,cs),
(503,83,o),
(438,30,o),
(307,30,cs),
(122,30,l)
);
},
{
closed = 1;
nodes = (
(122,680,l),
(267,680,ls),
(399,680,o),
(473,623,o),
(473,520,cs),
(473,423,o),
(399,369,o),
(267,369,cs),
(122,369,l)
);
}
);
width = 600;
},
{
layerId = "574EE4B9-5C1A-4E7E-9985-C08FACB65BD8";
shapes = (
{
closed = 1;
nodes = (
(315,0,ls),
(464,0,o),
(556,78,o),
(556,201,cs),
(556,305,o),
(481,370,o),
(361,370,c),
(362,364,l),
(458,364,o),
(526,426,o),
(526,513,cs),
(526,639,o),
(436,710,o),
(275,710,cs),
(78,710,l),
(78,0,l)
);
},
{
closed = 1;
nodes = (
(165,319,l),
(315,319,ls),
(412,319,o),
(466,276,o),
(466,201,cs),
(466,128,o),
(408,84,o),
(315,84,cs),
(165,84,l)
);
},
{
closed = 1;
nodes = (
(165,626,l),
(275,626,ls),
(379,626,o),
(436,585,o),
(436,513,cs),
(436,442,o),
(379,403,o),
(275,403,cs),
(165,403,l)
);
}
);
width = 600;
},
{
layerId = "58B1DC7A-69F8-4375-AD2E-AC5103CCF536";
shapes = (
{
closed = 1;
nodes = (
(304,0,ls),
(476,0,o),
(566,70,o),
(566,201,cs),
(566,295,o),
(501,356,o),
(389,366,c),
(389,368,l),
(481,379,o),
(536,434,o),
(536,513,cs),
(536,643,o),
(444,710,o),
(264,710,cs),
(59,710,l),
(59,0,l)
);
},
{
closed = 1;
nodes = (
(206,297,l),
(297,297,ls),
(373,297,o),
(413,268,o),
(413,214,cs),
(413,160,o),
(372,131,o),
(297,131,cs),
(206,131,l)
);
},
{
closed = 1;
nodes = (
(206,579,l),
(271,579,ls),
(345,579,o),
(383,552,o),
(383,502,cs),
(383,451,o),
(345,425,o),
(271,425,cs),
(206,425,l)
);
}
);
width = 600;
}
);
unicode = 66;
}
{
color = 5;
glyphname = C;
kernLeft = "0";
kernRight = "0";
layers = (
{
anchors = (
{
name = bottom;
pos = (304,0);
},
{
name = top;
pos = (304,710);
}
);
background = {
anchors = (
{
name = bottom;
pos = (315,0);
},
{
name = top;
pos = (315,710);
}
);
shapes = (
{
closed = 1;
nodes = (
(443,-16,o),
(529,71,o),
(556,226,c),
(522,230,l),
(494,93,o),
(423,16,o),
(315,16,cs),
(175,16,o),
(86,146,o),
(86,354,cs),
(86,563,o),
(175,694,o),
(315,694,cs),
(420,694,o),
(489,622,o),
(516,494,c),
(550,498,l),
(518,644,o),
(434,726,o),
(315,726,cs),
(154,726,o),
(52,583,o),
(52,354,cs),
(52,127,o),
(154,-16,o),
(315,-16,cs)
);
}
);
};
layerId = "EE2FFE84-06F1-4AFB-BBEC-60D09A436D14";
shapes = (
{
closed = 1;
nodes = (
(430,-16,o),
(514,78,o),
(542,226,c),
(508,230,l),
(484,90,o),
(408,16,o),
(304,16,cs),
(178,16,o),
(82,146,o),
(82,354,cs),
(82,563,o),
(178,694,o),
(304,694,cs),
(408,694,o),
(478,622,o),
(502,494,c),
(536,498,l),
(506,642,o),
(430,726,o),
(304,726,cs),
(154,726,o),
(48,583,o),
(48,354,cs),
(48,127,o),
(153,-16,o),
(304,-16,cs)
);
}
);
width = 600;
},
{
anchors = (
{
name = bottom;
pos = (315,0);
},
{
name = top;
pos = (302,710);
}
);
background = {
anchors = (
{
name = bottom;
pos = (315,0);
},
{
name = top;
pos = (315,710);
}
);
shapes = (
{
closed = 1;
nodes = (
(448,-16,o),
(541,78,o),
(567,234,c),
(476,239,l),
(456,126,o),
(396,68,o),
(314,68,cs),
(195,68,o),
(129,171,o),
(129,354,cs),
(129,538,o),
(195,642,o),
(314,642,cs),
(388,642,o),
(446,589,o),
(469,487,c),
(561,493,l),
(531,640,o),
(439,726,o),
(314,726,cs),
(138,726,o),
(38,583,o),
(38,354,cs),
(38,127,o),
(138,-16,o),
(314,-16,cs)
);
}
);
};
layerId = "574EE4B9-5C1A-4E7E-9985-C08FACB65BD8";
shapes = (
{
closed = 1;
nodes = (
(436,-16,o),
(530,78,o),
(556,234,c),
(465,239,l),
(445,126,o),
(384,68,o),
(302,68,cs),
(189,68,o),
(128,171,o),
(128,354,cs),
(128,538,o),
(189,642,o),
(302,642,cs),
(376,642,o),
(435,589,o),
(458,487,c),
(550,493,l),
(520,640,o),
(427,726,o),
(302,726,cs),
(132,726,o),
(38,583,o),
(38,354,cs),
(38,127,o),
(132,-16,o),
(302,-16,cs)
);
}
);
width = 600;
},
{
anchors = (
{
name = bottom;
pos = (311,0);
},
{
name = top;
pos = (306,710);
}
);
background = {
anchors = (
{
name = bottom;
pos = (311,0);
},
{
name = top;
pos = (311,710);
}
);
shapes = (
{
closed = 1;
nodes = (
(453,-16,o),
(555,92,o),
(578,263,c),
(424,271,l),
(408,162,o),
(370,115,o),
(309,115,cs),
(224,115,o),
(180,197,o),
(180,354,cs),
(180,512,o),
(224,595,o),
(309,595,cs),
(367,595,o),
(405,550,o),
(423,446,c),
(577,455,l),
(550,621,o),
(449,726,o),
(314,726,cs),
(135,726,o),
(26,583,o),
(26,354,cs),
(26,127,o),
(135,-16,o),
(314,-16,cs)
);
}
);
};
layerId = "58B1DC7A-69F8-4375-AD2E-AC5103CCF536";
shapes = (
{
closed = 1;
nodes = (
(458,-16,o),
(546,88,o),
(568,262,c),
(418,270,l),
(404,160,o),
(370,114,o),
(306,114,cs),
(232,114,o),
(182,194,o),
(182,354,cs),
(182,514,o),
(232,596,o),
(306,596,cs),
(370,596,o),
(406,548,o),
(418,446,c),
(568,454,l),
(546,622,o),
(458,726,o),
(306,726,cs),
(130,726,o),
(28,584,o),
(28,354,cs),
(28,124,o),
(130,-16,o),
(306,-16,cs)
);
}
);
width = 600;
}
);
unicode = 67;
}
{
glyphname = D;
kernLeft = "0";
kernRight = "0";
layers = (
{
anchors = (
{
name = bottom;
pos = (308,0);
},
{
name = top;
pos = (308,710);
}
);
background = {
shapes = (
{
closed = 1;
nodes = (
(-48,0,l),
(178,0,ls),
(379,0,o),
(514,151,o),
(514,354,cs),
(514,560,o),
(378,710,o),
(172,710,cs),
(-48,710,l)
);
},
{
closed = 1;
nodes = (
(40,624,l),
(172,624,ls),
(354,624,o),
(422,506,o),
(422,354,cs),
(422,203,o),
(353,86,o),
(172,86,cs),
(40,86,l)
);
}
);
};
layerId = "EE2FFE84-06F1-4AFB-BBEC-60D09A436D14";
shapes = (
{
closed = 1;
nodes = (
(95,0,l),
(243,0,ls),
(440,0,o),
(555,127,o),
(555,354,cs),
(555,582,o),
(437,710,o),
(237,710,cs),
(95,710,l)
);
},
{
closed = 1;
nodes = (
(127,680,l),
(237,680,ls),
(416,680,o),
(521,563,o),
(521,354,cs),
(521,146,o),
(416,30,o),
(237,30,cs),
(127,30,l)
);
}
);
width = 600;
},
{
anchors = (
{
name = bottom;
pos = (307,0);
},
{
name = top;
pos = (301,710);
}
);
layerId = "574EE4B9-5C1A-4E7E-9985-C08FACB65BD8";
shapes = (
{
closed = 1;
nodes = (
(76,0,l),
(255,0,ls),
(451,0,o),
(570,127,o),
(570,354,cs),
(570,582,o),
(448,710,o),
(249,710,cs),
(76,710,l)
);
},
{
closed = 1;
nodes = (
(162,626,l),
(249,626,ls),
(397,626,o),
(480,536,o),
(480,354,cs),
(480,174,o),
(397,84,o),
(249,84,cs),
(162,84,l)
);
}
);
width = 600;
},
{
anchors = (
{
name = bottom;
pos = (316,0);
},
{
name = top;
pos = (310,710);
}
);
layerId = "58B1DC7A-69F8-4375-AD2E-AC5103CCF536";
shapes = (
{
closed = 1;
nodes = (
(54,0,l),
(265,0,ls),
(460,0,o),
(581,134,o),
(581,354,cs),
(581,576,o),
(457,710,o),
(259,710,cs),
(54,710,l)
);
},
{
closed = 1;
nodes = (
(200,579,l),
(259,579,ls),
(366,579,o),
(426,505,o),
(426,355,cs),
(426,205,o),
(366,131,o),
(259,131,cs),
(200,131,l)
);
}
);
width = 600;
}
);
unicode = 68;
}
{
glyphname = E;
kernLeft = "0";
kernRight = "0";
layers = (
{
anchors = (
{
name = bottom;
pos = (306,0);
},
{
name = ogonek;
pos = (517,0);
},
{
name = top;
pos = (306,710);
}
);
background = {
shapes = (
{
closed = 1;
nodes = (
(-35,0,l),
(420,0,l),
(420,86,l),
(53,86,l),
(53,314,l),
(400,314,l),
(400,398,l),
(53,398,l),
(53,624,l),
(412,624,l),
(412,710,l),
(-35,710,l)
);
}
);
};
layerId = "EE2FFE84-06F1-4AFB-BBEC-60D09A436D14";
shapes = (
{
closed = 1;
nodes = (
(100,0,l),
(527,0,l),
(527,30,l),
(132,30,l),
(132,339,l),
(507,339,l),
(507,369,l),
(132,369,l),
(132,680,l),
(519,680,l),
(519,710,l),
(100,710,l)
);
}
);
width = 600;
},
{
anchors = (
{
name = bottom;
pos = (318,0);
},
{
name = ogonek;
pos = (534,0);
},
{
name = top;
pos = (318,711);
}
);
layerId = "574EE4B9-5C1A-4E7E-9985-C08FACB65BD8";
shapes = (
{
closed = 1;
nodes = (
(90,0,l),
(544,0,l),
(544,84,l),
(176,84,l),
(176,315,l),
(524,315,l),
(524,397,l),
(176,397,l),
(176,626,l),
(536,626,l),
(536,710,l),
(90,710,l)
);
}
);
width = 600;
},
{
anchors = (
{
name = bottom;
pos = (308,0);
},
{
name = ogonek;
pos = (540,0);
},
{
name = top;
pos = (309,711);
}
);
layerId = "58B1DC7A-69F8-4375-AD2E-AC5103CCF536";
shapes = (
{
closed = 1;
nodes = (
(66,0,l),
(550,0,l),
(550,131,l),
(212,131,l),
(212,291,l),
(530,291,l),
(530,421,l),
(212,421,l),
(212,579,l),
(542,579,l),
(542,710,l),
(66,710,l)
);
}
);
width = 600;
}
);
unicode = 69;
}
{
color = 5;
glyphname = F;
kernLeft = "0";
kernRight = "0";
layers = (
{
background = {
shapes = (
{
closed = 1;
nodes = (
(142,0,l),
(142,350,l),
(135,339,l),
(501,339,l),
(501,369,l),
(135,369,l),
(142,344,l),
(142,689,l),
(135,680,l),
(519,680,l),
(519,710,l),
(110,710,l),
(110,0,l)
);
}
);
};
layerId = "EE2FFE84-06F1-4AFB-BBEC-60D09A436D14";
shapes = (
{
closed = 1;
nodes = (
(142,0,l),
(142,350,l),
(135,340,l),
(512,340,l),
(512,368,l),
(135,368,l),
(142,344,l),
(142,689,l),
(135,682,l),
(530,682,l),
(530,710,l),
(110,710,l),
(110,0,l)
);
}
);
width = 600;
},
{
background = {
shapes = (
{
closed = 1;
nodes = (
(180,0,l),
(180,350,l),
(136,306,l),
(512,306,l),
(512,388,l),
(136,388,l),
(180,344,l),
(180,670,l),
(136,626,l),
(530,626,l),
(530,710,l),
(94,710,l),
(94,0,l)
);
}
);
};
layerId = "574EE4B9-5C1A-4E7E-9985-C08FACB65BD8";
shapes = (
{
closed = 1;
nodes = (
(186,0,l),
(186,350,l),
(142,306,l),
(522,306,l),
(522,388,l),
(142,388,l),
(186,344,l),
(186,670,l),
(142,628,l),
(540,628,l),
(540,710,l),
(100,710,l),
(100,0,l)
);
}
);
width = 600;
},
{
background = {
shapes = (
{
closed = 1;
nodes = (
(237,0,l),
(237,350,l),
(147,284,l),
(532,284,l),
(532,414,l),
(147,414,l),
(237,344,l),
(237,669,l),
(147,579,l),
(550,579,l),
(550,710,l),
(84,710,l),
(84,0,l)
);
}
);
};
layerId = "58B1DC7A-69F8-4375-AD2E-AC5103CCF536";
shapes = (
{
closed = 1;
nodes = (
(236,0,l),
(236,350,l),
(148,284,l),
(532,284,l),
(532,414,l),
(148,414,l),
(236,344,l),
(236,669,l),
(148,580,l),
(550,580,l),
(550,710,l),
(90,710,l),
(90,0,l)
);
}
);
width = 600;
}
);
unicode = 70;
}
{
color = 5;
glyphname = G;
kernLeft = "0";
kernRight = "0";
layers = (
{
anchors = (
{
name = bottom;
pos = (306,0);
},
{
name = top;
pos = (294,710);
}
);
background = {
anchors = (
{
name = bottom;
pos = (294,0);
},
{
name = top;
pos = (294,710);
}
);
shapes = (
{
closed = 1;
nodes = (
(404,-16,o),
(484,58,o),
(512,177,c),
(501,195,l),
(508,0,l),
(540,0,l),
(540,330,l),
(304,330,l),
(304,300,l),
(504,300,l),
(496,126,o),
(418,16,o),
(304,16,cs),
(163,16,o),
(80,146,o),
(80,354,cs),
(80,563,o),
(163,694,o),
(304,694,cs),
(393,694,o),
(468,618,o),
(501,497,c),
(534,501,l),
(500,639,o),
(412,726,o),
(304,726,cs),
(142,726,o),
(46,583,o),
(46,354,cs),
(46,127,o),
(142,-16,o),
(304,-16,cs)
);
}
);
};
layerId = "EE2FFE84-06F1-4AFB-BBEC-60D09A436D14";
shapes = (
{
closed = 1;
nodes = (
(410,-16,o),
(490,68,o),
(520,196,c),
(508,202,l),
(510,0,l),
(540,0,l),
(540,330,l),
(304,330,l),
(304,302,l),
(508,302,l),
(504,128,o),
(416,16,o),
(304,16,cs),
(163,16,o),
(82,154,o),
(82,354,cs),
(82,554,o),
(172,694,o),
(300,694,cs),
(410,694,o),
(474,626,o),
(502,496,c),
(536,500,l),
(504,648,o),
(426,726,o),
(300,726,cs),
(150,726,o),
(48,574,o),
(48,354,cs),
(48,127,o),
(142,-16,o),
(300,-16,cs)
);
}
);
width = 600;
},
{
anchors = (
{
name = bottom;
pos = (299,0);
},
{
name = top;
pos = (299,710);
}
);
background = {
anchors = (
{
name = bottom;
pos = (299,0);
},
{
name = top;
pos = (299,710);
}
);
shapes = (
{
closed = 1;
nodes = (
(399,-16,o),
(478,49,o),
(498,143,c),
(477,161,l),
(497,0,l),
(556,0,l),
(556,359,l),
(307,359,l),
(307,275,l),
(475,275,l),
(468,158,o),
(401,68,o),
(307,68,cs),
(191,68,o),
(126,171,o),
(126,354,cs),
(126,538,o),
(191,642,o),
(307,642,cs),
(382,642,o),
(444,582,o),
(467,496,c),
(557,502,l),
(526,634,o),
(427,726,o),
(307,726,cs),
(141,726,o),
(36,583,o),
(36,354,cs),
(36,127,o),
(141,-16,o),
(307,-16,cs)
);
}
);
};
layerId = "574EE4B9-5C1A-4E7E-9985-C08FACB65BD8";
shapes = (
{
closed = 1;
nodes = (
(410,-16,o),
(468,55,o),
(498,158,c),
(470,168,l),
(474,0,l),
(554,0,l),
(554,358,l),
(304,358,l),
(304,276,l),
(474,276,l),
(470,158,o),
(404,68,o),
(306,68,cs),
(193,68,o),
(128,171,o),
(128,354,cs),
(128,538,o),
(191,642,o),
(302,642,cs),
(386,642,o),
(438,580,o),
(461,492,c),
(551,498,l),
(520,632,o),
(432,726,o),
(302,726,cs),
(136,726,o),
(38,583,o),
(38,354,cs),
(38,110,o),
(148,-16,o),
(298,-16,cs)
);
}
);
width = 600;
},
{
anchors = (
{
name = bottom;
pos = (305,0);
},
{
name = top;
pos = (306,710);
}
);
background = {
anchors = (
{
name = bottom;
pos = (305,0);
},
{
name = top;
pos = (306,710);
}
);
shapes = (
{
closed = 1;
nodes = (
(390,-16,o),
(463,41,o),
(488,130,c),
(461,135,l),
(475,0,l),
(563,0,l),
(563,370,l),
(296,370,l),
(296,253,l),
(414,253,l),
(408,172,o),
(373,115,o),
(305,115,cs),
(224,115,o),
(180,205,o),
(180,354,cs),
(180,504,o),
(224,595,o),
(305,595,cs),
(357,595,o),
(398,549,o),
(414,467,c),
(569,477,l),
(532,638,o),
(442,726,o),
(303,726,cs),
(135,726,o),
(25,575,o),
(25,354,cs),
(25,134,o),
(135,-16,o),
(303,-16,cs)
);
}
);
};
layerId = "58B1DC7A-69F8-4375-AD2E-AC5103CCF536";
shapes = (
{
closed = 1;
nodes = (
(392,-16,o),
(465,41,o),
(490,140,c),
(454,144,l),
(462,0,l),
(564,0,l),
(564,370,l),
(300,370,l),
(300,250,l),
(424,250,l),
(420,150,o),
(371,114,o),
(318,114,cs),
(226,114,o),
(182,202,o),
(182,354,cs),
(182,506,o),
(226,596,o),
(304,596,cs),
(366,596,o),
(404,546,o),
(416,462,c),
(570,472,l),
(540,632,o),
(454,726,o),
(304,726,cs),
(132,726,o),
(28,584,o),
(28,354,cs),
(28,124,o),
(136,-16,o),
(304,-16,cs)
);
}
);
width = 600;
}
);
unicode = 71;
}
{
glyphname = H;
kernLeft = "0";
kernRight = "0";
layers = (
{
anchors = (
{
name = top;
pos = (300,710);
}
);
background = {
shapes = (
{
pos = (-128,0);
ref = N;
}
);
};
layerId = "EE2FFE84-06F1-4AFB-BBEC-60D09A436D14";
shapes = (
{
closed = 1;
nodes = (
(120,0,l),
(120,359,l),
(111,349,l),
(488,349,l),
(480,359,l),
(480,0,l),
(512,0,l),
(512,710,l),
(480,710,l),
(480,370,l),
(488,379,l),
(111,379,l),
(120,370,l),
(120,710,l),
(88,710,l),
(88,0,l)
);
}
);
width = 600;
},
{
anchors = (
{
name = top;
pos = (300,710);
}
);
layerId = "574EE4B9-5C1A-4E7E-9985-C08FACB65BD8";
shapes = (
{
closed = 1;
nodes = (
(157,0,l),
(157,349,l),
(113,315,l),
(487,315,l),
(443,349,l),
(443,0,l),
(529,0,l),
(529,710,l),
(443,710,l),
(443,365,l),
(487,399,l),
(113,399,l),
(157,365,l),
(157,710,l),
(71,710,l),
(71,0,l)
);
}
);
width = 600;
},
{
anchors = (
{
name = top;
pos = (300,710);
}
);
background = {
shapes = (
{
closed = 1;
nodes = (
(157,0,l),
(157,349,l),
(113,315,l),
(487,315,l),
(443,349,l),
(443,0,l),
(529,0,l),
(529,710,l),
(443,710,l),
(443,365,l),
(487,399,l),
(113,399,l),
(157,365,l),
(157,710,l),
(71,710,l),
(71,0,l)
);
}
);
};
layerId = "58B1DC7A-69F8-4375-AD2E-AC5103CCF536";
shapes = (
{
closed = 1;
nodes = (
(189,0,l),
(189,335,l),
(156,288,l),
(444,288,l),
(411,335,l),
(411,0,l),
(557,0,l),
(557,710,l),
(411,710,l),
(411,379,l),
(444,419,l),
(156,419,l),
(189,379,l),
(189,710,l),
(43,710,l),
(43,0,l)
);
}
);
width = 600;
}
);
unicode = 72;
}
{
color = 5;
glyphname = I;
kernLeft = "0";
kernRight = "0";
layers = (
{
anchors = (
{
name = bottom;
pos = (300,0);
},
{
name = ogonek;
pos = (510,0);
},
{
name = top;
pos = (300,710);
}
);
background = {
anchors = (
{
name = bottom;
pos = (300,0);
},
{
name = ogonek;
pos = (510,0);
},
{
name = top;
pos = (300,710);
}
);
shapes = (
{
closed = 1;
nodes = (
(510,0,l),
(510,30,l),
(316,30,l),
(316,680,l),
(504,680,l),
(504,710,l),
(96,710,l),
(96,680,l),
(284,680,l),
(284,30,l),
(90,30,l),
(90,0,l)
);
}
);
};
layerId = "EE2FFE84-06F1-4AFB-BBEC-60D09A436D14";
shapes = (
{
closed = 1;
nodes = (
(510,0,l),
(510,28,l),
(316,28,l),
(316,682,l),
(510,682,l),
(510,710,l),
(90,710,l),
(90,682,l),
(284,682,l),
(284,28,l),
(90,28,l),
(90,0,l)
);
}
);
width = 600;
},
{
anchors = (
{
name = bottom;
pos = (300,0);
},
{
name = ogonek;
pos = (520,0);
},
{
name = top;
pos = (300,710);
}
);
background = {
anchors = (
{
name = bottom;
pos = (300,0);
},
{
name = ogonek;
pos = (510,0);
},
{
name = top;
pos = (300,710);
}
);
shapes = (
{
closed = 1;
nodes = (
(510,0,l),
(510,84,l),
(343,84,l),
(343,626,l),
(504,626,l),
(504,710,l),
(96,710,l),
(96,626,l),
(257,626,l),
(257,84,l),
(90,84,l),
(90,0,l)
);
}
);
};
layerId = "574EE4B9-5C1A-4E7E-9985-C08FACB65BD8";
shapes = (
{
closed = 1;
nodes = (
(520,0,l),
(520,82,l),
(343,82,l),
(343,628,l),
(520,628,l),
(520,710,l),
(80,710,l),
(80,628,l),
(257,628,l),
(257,82,l),
(80,82,l),
(80,0,l)
);
}
);
width = 600;
},
{
anchors = (
{
name = bottom;
pos = (300,0);
},
{
name = ogonek;
pos = (530,0);
},
{
name = top;
pos = (300,710);
}
);
background = {
anchors = (
{
name = bottom;
pos = (300,0);
},
{
name = ogonek;
pos = (537,0);
},
{
name = top;
pos = (300,710);
}
);
shapes = (
{
closed = 1;
nodes = (
(537,0,l),
(537,131,l),
(373,131,l),
(373,579,l),
(535,579,l),
(535,710,l),
(65,710,l),
(65,579,l),
(227,579,l),
(227,131,l),
(63,131,l),
(63,0,l)
);
}
);
};
layerId = "58B1DC7A-69F8-4375-AD2E-AC5103CCF536";
shapes = (
{
closed = 1;
nodes = (
(530,0,l),
(530,130,l),
(373,130,l),
(373,580,l),
(530,580,l),
(530,710,l),
(70,710,l),
(70,580,l),
(227,580,l),
(227,130,l),
(70,130,l),
(70,0,l)
);
}
);
width = 600;
}
);
unicode = 73;
}
{
color = 5;
glyphname = J;
kernLeft = "0";
kernRight = "0";
layers = (
{
anchors = (
{
name = top;
pos = (484,710);
}
);
background = {
anchors = (
{
name = top;
pos = (477,710);
}
);
shapes = (
{
closed = 1;
nodes = (
(412,-16,o),
(493,86,o),
(493,248,cs),
(493,710,l),
(461,710,l),
(461,248,ls),
(461,101,o),
(392,16,o),
(273,16,cs),
(159,16,o),
(90,101,o),
(89,236,c),
(55,232,l),
(56,86,o),
(142,-16,o),
(273,-16,cs)
);
}
);
};
layerId = "EE2FFE84-06F1-4AFB-BBEC-60D09A436D14";
shapes = (
{
closed = 1;
nodes = (
(416,-16,o),
(500,82,o),
(500,254,cs),
(500,710,l),
(468,710,l),
(468,254,ls),
(468,94,o),
(396,16,o),
(272,16,cs),
(158,16,o),
(88,94,o),
(84,236,c),
(50,232,l),
(54,82,o),
(142,-16,o),
(272,-16,cs)
);
}
);
width = 600;
},
{
anchors = (
{
name = top;
pos = (465,710);
}
);
background = {
anchors = (
{
name = top;
pos = (465,710);
}
);
shapes = (
{
closed = 1;
nodes = (
(421,-16,o),
(508,86,o),
(508,248,cs),
(508,710,l),
(422,710,l),
(422,248,ls),
(422,133,o),
(372,68,o),
(271,68,cs),
(174,68,o),
(125,129,o),
(124,238,c),
(36,230,l),
(37,86,o),
(129,-16,o),
(271,-16,cs)
);
}
);
};
layerId = "574EE4B9-5C1A-4E7E-9985-C08FACB65BD8";
shapes = (
{
closed = 1;
nodes = (
(419,-16,o),
(510,80,o),
(510,238,cs),
(510,710,l),
(424,710,l),
(424,238,ls),
(424,126,o),
(375,68,o),
(275,68,cs),
(177,68,o),
(128,122,o),
(124,238,c),
(40,230,l),
(44,82,o),
(133,-16,o),
(275,-16,cs)
);
}
);
width = 600;
},
{
anchors = (
{
name = top;
pos = (445,710);
}
);
background = {
anchors = (
{
name = top;
pos = (445,710);
}
);
shapes = (
{
closed = 1;
nodes = (
(431,-16,o),
(518,82,o),
(518,253,cs),
(518,710,l),
(372,710,l),
(372,253,ls),
(372,160,o),
(344,115,o),
(277,115,cs),
(218,115,o),
(182,169,o),
(182,274,c),
(28,266,l),
(29,89,o),
(123,-16,o),
(277,-16,cs)
);
}
);
};
layerId = "58B1DC7A-69F8-4375-AD2E-AC5103CCF536";
shapes = (
{
closed = 1;
nodes = (
(431,-16,o),
(520,78,o),
(520,252,cs),
(520,710,l),
(374,710,l),
(374,252,ls),
(374,156,o),
(342,114,o),
(278,114,cs),
(214,114,o),
(182,166,o),
(180,274,c),
(30,266,l),
(32,90,o),
(123,-16,o),
(277,-16,cs)
);
}
);
width = 600;
}
);
unicode = 74;
}
{
color = 5;
glyphname = K;
kernLeft = "0";
kernRight = "0";
layers = (
{
anchors = (
{
name = bottom;
pos = (293,0);
},
{
name = top;
pos = (293,710);
}
);
background = {
anchors = (
{
name = bottom;
pos = (293,0);
},
{
name = top;
pos = (293,710);
}
);
shapes = (
{
closed = 1;
nodes = (
(112,0,l),
(112,288,l),
(207,383,l),
(510,0,l),
(549,0,l),
(227,402,l),
(527,710,l),
(487,710,l),
(112,326,l),
(112,710,l),
(80,710,l),
(80,0,l)
);
}
);
};
layerId = "EE2FFE84-06F1-4AFB-BBEC-60D09A436D14";
shapes = (
{
closed = 1;
nodes = (
(112,0,l),
(112,288,l),
(208,384,l),
(512,0,l),
(550,0,l),
(228,404,l),
(529,710,l),
(491,710,l),
(112,324,l),
(112,710,l),
(80,710,l),
(80,0,l)
);
}
);
width = 600;
},
{
anchors = (
{
name = bottom;
pos = (329,0);
},
{
name = top;
pos = (329,710);
}
);
associatedMasterId = "EE2FFE84-06F1-4AFB-BBEC-60D09A436D14";
background = {
shapes = (
{
closed = 1;
nodes = (
(70,0,l),
(158,0,l),
(158,710,l),
(70,710,l)
);
},
{
closed = 1;
nodes = (
(72,262,l),
(157,236,l),
(585,710,l),
(477,710,l)
);
},
{
closed = 1;
nodes = (
(206,399,l),
(500,0,l),
(602,0,l),
(303,405,l)
);
}
);
};
layerId = "3A429947-F838-409F-94EB-A9A7478FB0A7";
name = "24 de feb. de 23 09:14";
shapes = (
{
closed = 1;
nodes = (
(98,0,l),
(130,0,l),
(130,710,l),
(98,710,l)
);
},
{
closed = 1;
nodes = (
(100,243,l),
(126,229,l),
(575,710,l),
(536,710,l)
);
},
{
closed = 1;
nodes = (
(258,392,l),
(560,0,l),
(597,0,l),
(283,405,l)
);
}
);
width = 600;
},
{
anchors = (
{
name = bottom;
pos = (284,0);
},
{
name = top;
pos = (277,710);
}
);
background = {
anchors = (
{
name = bottom;
pos = (284,0);
},
{
name = top;
pos = (284,710);
}
);
shapes = (
{
closed = 1;
nodes = (
(143,0,l),
(143,281,l),
(207,346,l),
(465,0,l),
(569,0,l),
(267,408,l),
(550,710,l),
(442,710,l),
(143,401,l),
(143,710,l),
(57,710,l),
(57,0,l)
);
}
);
};
layerId = "574EE4B9-5C1A-4E7E-9985-C08FACB65BD8";
shapes = (
{
closed = 1;
nodes = (
(146,0,l),
(146,284,l),
(210,352,l),
(454,0,l),
(560,0,l),
(270,412,l),
(540,710,l),
(434,710,l),
(146,396,l),
(146,710,l),
(60,710,l),
(60,0,l)
);
}
);
width = 600;
},
{
anchors = (
{
name = bottom;
pos = (280,0);
},
{
name = top;
pos = (274,710);
}
);
background = {
anchors = (
{
name = bottom;
pos = (299,0);
},
{
name = top;
pos = (299,710);
}
);
shapes = (
{
closed = 1;
nodes = (
(177,0,l),
(177,240,l),
(220,288,l),
(409,0,l),
(585,0,l),
(321,396,l),
(569,710,l),
(388,710,l),
(177,450,l),
(177,710,l),
(31,710,l),
(31,0,l)
);
}
);
};
layerId = "58B1DC7A-69F8-4375-AD2E-AC5103CCF536";
shapes = (
{
closed = 1;
nodes = (
(186,0,l),
(186,234,l),
(230,294,l),
(390,0,l),
(570,0,l),
(336,398,l),
(564,710,l),
(384,710,l),
(186,428,l),
(186,710,l),
(40,710,l),
(40,0,l)
);
}
);
width = 600;
}
);
unicode = 75;
}
{
color = 5;
glyphname = L;
kernLeft = "0";
kernRight = "0";
layers = (
{
anchors = (
{
name = bottom;
pos = (317,0);
},
{
name = center;
pos = (300,355);
},
{
name = top;
pos = (126,710);
},
{
name = topright;
pos = (280,530);
}
);
background = {
anchors = (
{
name = bottom;
pos = (317,0);
},
{
name = top;
pos = (116,710);
}
);
shapes = (
{
closed = 1;
nodes = (
(534,0,l),
(534,30,l),
(125,30,l),
(132,21,l),
(132,710,l),
(100,710,l),
(100,0,l)
);
}
);
};
layerId = "EE2FFE84-06F1-4AFB-BBEC-60D09A436D14";
shapes = (
{
closed = 1;
nodes = (
(530,0,l),
(530,28,l),
(134,28,l),
(142,20,l),
(142,710,l),
(110,710,l),
(110,0,l)
);
}
);
width = 600;
},
{
anchors = (
{
name = bottom;
pos = (321,0);
},
{
name = center;
pos = (300,355);
},
{
name = top;
pos = (143,710);
},
{
name = topright;
pos = (280,530);
}
);
background = {
anchors = (
{
name = bottom;
pos = (321,0);
},
{
name = top;
pos = (133,710);
}
);
shapes = (
{
closed = 1;
nodes = (
(551,0,l),
(551,84,l),
(133,84,l),
(176,40,l),
(176,710,l),
(90,710,l),
(90,0,l)
);
}
);
};
layerId = "574EE4B9-5C1A-4E7E-9985-C08FACB65BD8";
shapes = (
{
closed = 1;
nodes = (
(540,0,l),
(540,82,l),
(143,82,l),
(186,40,l),
(186,710,l),
(100,710,l),
(100,0,l)
);
}
);
width = 600;
},
{
anchors = (
{
name = bottom;
pos = (320,0);
},
{
name = center;
pos = (300,355);
},
{
name = top;
pos = (162,710);
},
{
name = topright;
pos = (300,540);
}
);
background = {
anchors = (
{
name = bottom;
pos = (320,0);
},
{
name = top;
pos = (155,710);
}
);
shapes = (
{
closed = 1;
nodes = (
(557,0,l),
(557,131,l),
(117,131,l),
(229,41,l),
(229,710,l),
(83,710,l),
(83,0,l)
);
}
);
};
layerId = "58B1DC7A-69F8-4375-AD2E-AC5103CCF536";
shapes = (
{
closed = 1;
nodes = (
(550,0,l),
(550,130,l),
(124,130,l),
(236,41,l),
(236,710,l),
(90,710,l),
(90,0,l)
);
}
);
width = 600;
}
);
unicode = 76;
}
{
glyphname = M;
kernLeft = "0";
kernRight = "0";
layers = (
{
background = {
shapes = (
{
closed = 1;
nodes = (
(63,0,l),
(151,0,l),
(151,640,l),
(149,640,l),
(274,16,l),
(194,70,l),
(406,70,l),
(326,16,l),
(451,640,l),
(449,640,l),
(449,0,l),
(537,0,l),
(537,710,l),
(395,710,l),
(280,117,l),
(320,117,l),
(205,710,l),
(63,710,l)
);
}
);
};
layerId = "EE2FFE84-06F1-4AFB-BBEC-60D09A436D14";
shapes = (
{
closed = 1;
nodes = (
(240,50,l),
(360,50,l),
(300,-3,l),
(505,701,l),
(497,701,l),
(497,0,l),
(529,0,l),
(529,710,l),
(476,710,l),
(292,64,l),
(308,64,l),
(124,710,l),
(71,710,l),
(71,0,l),
(103,0,l),
(103,703,l),
(94,703,l),
(300,-4,l)
);
}
);
width = 600;
},
{
associatedMasterId = "EE2FFE84-06F1-4AFB-BBEC-60D09A436D14";
background = {
shapes = (
{
closed = 1;
nodes = (
(70,0,l),
(158,0,l),
(158,710,l),
(70,710,l)
);
},
{
closed = 1;
nodes = (
(363,0,l),
(471,0,l),
(737,710,l),
(642,710,l),
(404,62,l),
(429,62,l),
(192,710,l),
(97,710,l)
);
},
{
closed = 1;
nodes = (
(676,0,l),
(764,0,l),
(764,710,l),
(676,710,l)
);
}
);
};
layerId = "1FB2E68D-DD9B-4BCB-982F-D48DBDE51AF6";
name = "5 de feb. de 23 02:23";
shapes = (
{
closed = 1;
nodes = (
(88,0,l),
(120,0,l),
(120,656,l),
(401,0,l),
(435,0,l),
(714,678,l),
(714,0,l),
(746,0,l),
(746,710,l),
(692,710,l),
(417,34,l),
(192,710,l),
(88,710,l)
);
}
);
width = 600;
},
{
layerId = "574EE4B9-5C1A-4E7E-9985-C08FACB65BD8";
shapes = (
{
closed = 1;
nodes = (
(196,50,l),
(404,50,l),
(327,-4,l),
(455,642,l),
(451,642,l),
(451,0,l),
(537,0,l),
(537,710,l),
(398,710,l),
(280,96,l),
(320,96,l),
(202,710,l),
(63,710,l),
(63,0,l),
(149,0,l),
(149,642,l),
(145,642,l),
(273,-4,l)
);
}
);
width = 600;
},
{
layerId = "58B1DC7A-69F8-4375-AD2E-AC5103CCF536";
shapes = (
{
closed = 1;
nodes = (
(199,50,l),
(400,50,l),
(334,-4,l),
(419,455,l),
(416,456,l),
(416,0,l),
(562,0,l),
(562,710,l),
(376,710,l),
(287,230,l),
(313,230,l),
(223,710,l),
(38,710,l),
(38,0,l),
(184,0,l),
(184,454,l),
(181,453,l),
(265,-4,l)
);
}
);
width = 600;
}
);
unicode = 77;
}
{
color = 5;
glyphname = N;
kernLeft = "0";
kernRight = "0";
layers = (
{
anchors = (
{
name = bottom;
pos = (310,0);
},
{
name = top;
pos = (308,710);
}
);
background = {
anchors = (
{
name = bottom;
pos = (310,0);
},
{
name = top;
pos = (308,710);
}
);
shapes = (
{
closed = 1;
nodes = (
(122,0,l),
(122,674,l),
(461,0,l),
(510,0,l),
(510,710,l),
(478,710,l),
(478,34,l),
(138,710,l),
(90,710,l),
(90,0,l)
);
}
);
};
layerId = "EE2FFE84-06F1-4AFB-BBEC-60D09A436D14";
shapes = (
{
closed = 1;
nodes = (
(112,0,l),
(112,676,l),
(474,0,l),
(520,0,l),
(520,710,l),
(488,710,l),
(488,34,l),
(126,710,l),
(80,710,l),
(80,0,l)
);
}
);
width = 600;
},
{
anchors = (
{
name = bottom;
pos = (300,0);
},
{
name = top;
pos = (300,710);
}
);
background = {
anchors = (
{
name = bottom;
pos = (322,0);
},
{
name = top;
pos = (311,710);
}
);
shapes = (
{
closed = 1;
nodes = (
(165,0,l),
(165,580,l),
(389,0,l),
(522,0,l),
(522,710,l),
(435,710,l),
(435,108,l),
(201,710,l),
(78,710,l),
(78,0,l)
);
}
);
};
layerId = "574EE4B9-5C1A-4E7E-9985-C08FACB65BD8";
shapes = (
{
closed = 1;
nodes = (
(156,0,l),
(156,596,l),
(410,0,l),
(530,0,l),
(530,710,l),
(444,710,l),
(444,114,l),
(190,710,l),
(70,710,l),
(70,0,l)
);
}
);
width = 600;
},
{
anchors = (
{
name = bottom;
pos = (300,0);
},
{
name = top;
pos = (300,710);
}
);
background = {
anchors = (
{
name = bottom;
pos = (312,0);
},
{
name = top;
pos = (309,710);
}
);
shapes = (
{
closed = 1;
nodes = (
(200,0,l),
(200,411,l),
(385,0,l),
(546,0,l),
(546,710,l),
(400,710,l),
(400,278,l),
(210,710,l),
(54,710,l),
(54,0,l)
);
}
);
};
layerId = "58B1DC7A-69F8-4375-AD2E-AC5103CCF536";
shapes = (
{
closed = 1;
nodes = (
(206,0,l),
(206,410,l),
(390,0,l),
(540,0,l),
(540,710,l),
(394,710,l),
(394,300,l),
(210,710,l),
(60,710,l),
(60,0,l)
);
}
);
width = 600;
}
);
unicode = 78;
}
{
glyphname = O;
kernLeft = "0";
kernRight = "0";
layers = (
{
anchors = (
{
name = bottom;
pos = (300,0);
},
{
name = top;
pos = (300,710);
}
);
background = {
shapes = (
{
closed = 1;
nodes = (
(513,-16,o),
(630,149,o),
(630,354,cs),
(630,560,o),
(514,726,o),
(308,726,cs),
(102,726,o),
(-14,560,o),
(-14,354,cs),
(-14,149,o),
(103,-16,o),
(308,-16,cs)
);
},
{
closed = 1;
nodes = (
(154,70,o),
(78,200,o),
(78,354,cs),
(78,509,o),
(153,640,o),
(308,640,cs),
(463,640,o),
(538,509,o),
(538,354,cs),
(538,200,o),
(462,70,o),
(308,70,cs)
);
}
);
};
layerId = "EE2FFE84-06F1-4AFB-BBEC-60D09A436D14";
shapes = (
{
closed = 1;
nodes = (
(456,-16,o),
(554,127,o),
(554,354,cs),
(554,583,o),
(456,726,o),
(300,726,cs),
(144,726,o),
(46,583,o),
(46,354,cs),
(46,127,o),
(144,-16,o),
(300,-16,cs)
);
},
{
closed = 1;
nodes = (
(165,16,o),
(80,146,o),
(80,354,cs),
(80,563,o),
(165,694,o),
(300,694,cs),
(435,694,o),
(520,563,o),
(520,354,cs),
(520,146,o),
(435,16,o),
(300,16,cs)
);
}
);
width = 600;
},
{
anchors = (
{
name = bottom;
pos = (300,0);
},
{
name = top;
pos = (300,710);
}
);
layerId = "574EE4B9-5C1A-4E7E-9985-C08FACB65BD8";
shapes = (
{
closed = 1;
nodes = (
(468,-16,o),
(562,117,o),
(562,354,cs),
(562,593,o),
(468,726,o),
(300,726,cs),
(132,726,o),
(38,593,o),
(38,354,cs),
(38,117,o),
(132,-16,o),
(300,-16,cs)
);
},
{
closed = 1;
nodes = (
(190,68,o),
(128,171,o),
(128,354,cs),
(128,538,o),
(190,642,o),
(300,642,cs),
(410,642,o),
(472,538,o),
(472,354,cs),
(472,171,o),
(410,68,o),
(300,68,cs)
);
}
);
width = 600;
},
{
anchors = (
{
name = bottom;
pos = (300,0);
},
{
name = top;
pos = (300,710);
}
);
layerId = "58B1DC7A-69F8-4375-AD2E-AC5103CCF536";
shapes = (
{
closed = 1;
nodes = (
(474,-16,o),
(572,131,o),
(572,354,cs),
(572,577,o),
(474,726,o),
(300,726,cs),
(126,726,o),
(28,577,o),
(28,354,cs),
(28,131,o),
(126,-16,o),
(300,-16,cs)
);
},
{
closed = 1;
nodes = (
(221,115,o),
(182,197,o),
(182,354,cs),
(182,512,o),
(221,595,o),
(300,595,cs),
(379,595,o),
(418,512,o),
(418,354,cs),
(418,197,o),
(379,115,o),
(300,115,cs)
);
}
);
width = 600;
}
);
unicode = 79;
}
{
color = 5;
glyphname = P;
kernLeft = "0";
kernRight = "0";
layers = (
{
background = {
shapes = (
{
closed = 1;
nodes = (
(135,0,l),
(135,305,l),
(300,305,l),
(447,305,o),
(540,382,o),
(540,505,cs),
(540,631,o),
(447,710,o),
(300,710,c),
(103,710,l),
(103,0,l)
);
},
{
closed = 1;
nodes = (
(135,680,l),
(300,680,l),
(432,680,o),
(506,617,o),
(506,505,cs),
(506,396,o),
(432,335,o),
(300,335,cs),
(135,335,l)
);
}
);
};
layerId = "EE2FFE84-06F1-4AFB-BBEC-60D09A436D14";
shapes = (
{
closed = 1;
nodes = (
(142,0,l),
(142,305,l),
(304,305,ls),
(448,305,o),
(540,377,o),
(540,505,cs),
(540,633,o),
(448,710,o),
(304,710,cs),
(110,710,l),
(110,0,l)
);
},
{
closed = 1;
nodes = (
(142,680,l),
(300,680,ls),
(430,680,o),
(506,619,o),
(506,505,cs),
(506,391,o),
(430,335,o),
(300,335,cs),
(142,335,l)
);
}
);
width = 600;
},
{
background = {
shapes = (
{
closed = 1;
nodes = (
(177,0,l),
(177,276,l),
(305,276,l),
(463,276,o),
(556,358,o),
(556,495,cs),
(556,630,o),
(463,710,o),
(305,710,c),
(90,710,l),
(90,0,l)
);
},
{
closed = 1;
nodes = (
(177,626,l),
(305,626,l),
(413,626,o),
(466,582,o),
(466,495,cs),
(466,406,o),
(413,360,o),
(305,360,cs),
(177,360,l)
);
}
);
};
layerId = "574EE4B9-5C1A-4E7E-9985-C08FACB65BD8";
shapes = (
{
closed = 1;
nodes = (
(176,0,l),
(176,280,l),
(306,280,ls),
(454,280,o),
(550,359,o),
(550,495,cs),
(550,631,o),
(454,710,o),
(306,710,cs),
(90,710,l),
(90,0,l)
);
},
{
closed = 1;
nodes = (
(176,628,l),
(296,628,ls),
(408,628,o),
(460,581,o),
(460,495,cs),
(460,409,o),
(408,362,o),
(296,362,cs),
(176,362,l)
);
}
);
width = 600;
},
{
background = {
shapes = (
{
closed = 1;
nodes = (
(215,0,l),
(215,240,l),
(318,240,l),
(462,240,o),
(567,339,o),
(567,474,cs),
(567,611,o),
(462,710,o),
(318,710,c),
(69,710,l),
(69,0,l)
);
},
{
closed = 1;
nodes = (
(215,579,l),
(296,579,l),
(369,579,o),
(412,538,o),
(412,474,cs),
(412,411,o),
(369,371,o),
(296,371,cs),
(215,371,l)
);
}
);
};
layerId = "58B1DC7A-69F8-4375-AD2E-AC5103CCF536";
shapes = (
{
closed = 1;
nodes = (
(216,0,l),
(216,240,l),
(308,240,ls),
(454,240,o),
(560,336,o),
(560,474,cs),
(560,612,o),
(454,710,o),
(308,710,cs),
(70,710,l),
(70,0,l)
);
},
{
closed = 1;
nodes = (
(216,580,l),
(290,580,ls),
(362,580,o),
(406,542,o),
(406,476,cs),
(406,410,o),
(362,372,o),
(290,372,cs),
(216,372,l)
);
}
);
width = 600;
}
);
unicode = 80;
}
{
glyphname = Q;
kernLeft = "0";
kernRight = "0";
layers = (
{
anchors = (
{
name = bottom;
pos = (364,0);
},
{
name = top;
pos = (364,710);
}
);
background = {
shapes = (
{
closed = 1;
nodes = (
(567,-16,o),
(684,149,o),
(684,354,cs),
(684,560,o),
(568,726,o),
(362,726,cs),
(156,726,o),
(40,560,o),
(40,354,cs),
(40,149,o),
(157,-16,o),
(362,-16,cs)
);
},
{
closed = 1;
nodes = (
(208,70,o),
(132,200,o),
(132,354,cs),
(132,509,o),
(207,640,o),
(362,640,cs),
(517,640,o),
(592,509,o),
(592,354,cs),
(592,200,o),
(516,70,o),
(362,70,cs)
);
},
{
closed = 1;
nodes = (
(420,208,l),
(328,208,l),
(542,-69,l),
(634,-69,l)
);
}
);
};
layerId = "EE2FFE84-06F1-4AFB-BBEC-60D09A436D14";
shapes = (
{
closed = 1;
nodes = (
(526,-69,l),
(320,208,l),
(282,208,l),
(488,-69,l)
);
},
{
ref = O;
}
);
width = 600;
},
{
associatedMasterId = "EE2FFE84-06F1-4AFB-BBEC-60D09A436D14";
background = {
shapes = (
{
closed = 1;
nodes = (
(567,-16,o),
(684,149,o),
(684,354,cs),
(684,560,o),
(568,726,o),
(362,726,cs),
(156,726,o),
(40,560,o),
(40,354,cs),
(40,149,o),
(157,-16,o),
(362,-16,cs)
);
},
{
closed = 1;
nodes = (
(208,70,o),
(132,200,o),
(132,354,cs),
(132,509,o),
(207,640,o),
(362,640,cs),
(517,640,o),
(592,509,o),
(592,354,cs),
(592,200,o),
(516,70,o),
(362,70,cs)
);
},
{
closed = 1;
nodes = (
(420,208,l),
(328,208,l),
(542,-69,l),
(634,-69,l)
);
}
);
};
layerId = "57B8AADA-883A-4D88-865F-303C17FF5ECC";
name = "24 de feb. de 23 09:24";
shapes = (
{
ref = O;
},
{
closed = 1;
nodes = (
(402,208,l),
(366,208,l),
(580,-69,l),
(616,-69,l)
);
}
);
width = 728;
},
{
associatedMasterId = "EE2FFE84-06F1-4AFB-BBEC-60D09A436D14";
background = {
shapes = (
{
closed = 1;
nodes = (
(567,-16,o),
(684,149,o),
(684,354,cs),
(684,560,o),
(568,726,o),
(362,726,cs),
(156,726,o),
(40,560,o),
(40,354,cs),
(40,149,o),
(157,-16,o),
(362,-16,cs)
);
},
{
closed = 1;
nodes = (
(208,70,o),
(132,200,o),
(132,354,cs),
(132,509,o),
(207,640,o),
(362,640,cs),
(517,640,o),
(592,509,o),
(592,354,cs),
(592,200,o),
(516,70,o),
(362,70,cs)
);
},
{
closed = 1;
nodes = (
(420,208,l),
(328,208,l),
(542,-69,l),
(634,-69,l)
);
}
);
};
layerId = "64775533-39F8-426A-91C6-DD7A69A21DE2";
name = "24 de feb. de 23 09:25";
shapes = (
{
ref = O;
},
{
closed = 1;
nodes = (
(402,208,l),
(366,208,l),
(580,-69,l),
(616,-69,l)
);
}
);
width = 728;
},
{
anchors = (
{
name = bottom;
pos = (362,0);
},
{
name = top;
pos = (362,710);
}
);
layerId = "574EE4B9-5C1A-4E7E-9985-C08FACB65BD8";
shapes = (
{
closed = 1;
nodes = (
(546,-69,l),
(356,208,l),
(259,208,l),
(449,-69,l)
);
},
{
alignment = -1;
ref = O;
}
);
width = 600;
},
{
anchors = (
{
name = bottom;
pos = (389,0);
},
{
name = top;
pos = (389,710);
}
);
layerId = "58B1DC7A-69F8-4375-AD2E-AC5103CCF536";
shapes = (
{
closed = 1;
nodes = (
(540,-69,l),
(378,208,l),
(265,208,l),
(427,-69,l)
);
},
{
alignment = -1;
ref = O;
}
);
width = 600;
}
);
unicode = 81;
}
{
glyphname = R;
kernLeft = "0";
kernRight = "0";
layers = (
{
anchors = (
{
name = bottom;
pos = (298,0);
},
{
name = top;
pos = (294,710);
}
);
background = {
shapes = (
{
closed = 1;
nodes = (
(90,0,l),
(122,0,l),
(122,311,l),
(287,311,ls),
(528,311,o),
(452,146,o),
(513,0,c),
(546,0,l),
(494,144,o),
(535,285,o),
(389,327,c),
(473,350,o),
(527,415,o),
(527,505,cs),
(527,631,o),
(434,710,o),
(287,710,cs),
(90,710,l)
);
},
{
closed = 1;
nodes = (
(122,680,l),
(287,680,ls),
(419,680,o),
(493,617,o),
(493,505,cs),
(493,400,o),
(419,341,o),
(287,341,cs),
(122,341,l)
);
}
);
};
layerId = "EE2FFE84-06F1-4AFB-BBEC-60D09A436D14";
shapes = (
{
closed = 1;
nodes = (
(124,0,l),
(124,311,l),
(289,311,ls),
(416,311,o),
(474,280,o),
(480,208,cs),
(496,0,l),
(529,0,l),
(512,209,ls),
(505,289,o),
(441,334,o),
(334,333,c),
(359,320,l),
(468,335,o),
(529,401,o),
(529,505,cs),
(529,636,o),
(443,710,o),
(289,710,cs),
(92,710,l),
(92,0,l)
);
},
{
closed = 1;
nodes = (
(122,680,l),
(287,680,ls),
(426,680,o),
(495,622,o),
(495,505,cs),
(495,395,o),
(426,341,o),
(287,341,cs),
(122,341,l)
);
}
);
width = 600;
},
{
associatedMasterId = "EE2FFE84-06F1-4AFB-BBEC-60D09A436D14";
layerId = "9EE13298-BF92-4B00-8E5D-8782EE099A36";
name = "26 de feb. de 23 23:27";
shapes = (
{
closed = 1;
nodes = (
(517,631,o),
(424,710,o),
(277,710,cs),
(70,710,l),
(70,0,l),
(102,0,l),
(102,311,l),
(277,311,ls),
(518,311,o),
(442,146,o),
(503,0,c),
(536,0,l),
(484,144,o),
(525,285,o),
(379,327,c),
(463,350,o),
(517,415,o),
(517,505,cs)
);
},
{
closed = 1;
nodes = (
(102,680,l),
(277,680,ls),
(409,680,o),
(483,617,o),
(483,505,cs),
(483,400,o),
(409,341,o),
(277,341,cs),
(102,341,l)
);
}
);
width = 606;
},
{
anchors = (
{
name = bottom;
pos = (298,0);
},
{
name = top;
pos = (294,710);
}
);
associatedMasterId = "EE2FFE84-06F1-4AFB-BBEC-60D09A436D14";
background = {
shapes = (
{
closed = 1;
nodes = (
(90,0,l),
(122,0,l),
(122,311,l),
(287,311,ls),
(528,311,o),
(452,146,o),
(513,0,c),
(546,0,l),
(494,144,o),
(535,285,o),
(389,327,c),
(473,350,o),
(527,415,o),
(527,505,cs),
(527,631,o),
(434,710,o),
(287,710,cs),
(90,710,l)
);
},
{
closed = 1;
nodes = (
(122,680,l),
(287,680,ls),
(419,680,o),
(493,617,o),
(493,505,cs),
(493,400,o),
(419,341,o),
(287,341,cs),
(122,341,l)
);
}
);
};
layerId = "2E344A71-077A-4643-ADAB-F8D51B2122C4";
name = "16 de may. de 23 14:46";
shapes = (
{
closed = 1;
nodes = (
(90,0,l),
(122,0,l),
(122,311,l),
(287,311,ls),
(528,311,o),
(452,146,o),
(513,0,c),
(546,0,l),
(494,144,o),
(535,285,o),
(389,327,c),
(473,350,o),
(527,415,o),
(527,505,cs),
(527,631,o),
(434,710,o),
(287,710,cs),
(90,710,l)
);
},
{
closed = 1;
nodes = (
(122,680,l),
(287,680,ls),
(419,680,o),
(493,617,o),
(493,505,cs),
(493,400,o),
(419,341,o),
(287,341,cs),
(122,341,l)
);
}
);
width = 600;
},
{
anchors = (
{
name = bottom;
pos = (315,0);
},
{
name = top;
pos = (288,710);
}
);
layerId = "574EE4B9-5C1A-4E7E-9985-C08FACB65BD8";
shapes = (
{
closed = 1;
nodes = (
(160,0,l),
(160,286,l),
(289,286,ls),
(393,286,o),
(435,265,o),
(441,200,cs),
(459,0,l),
(546,0,l),
(527,209,ls),
(518,302,o),
(473,335,o),
(360,335,c),
(391,323,l),
(464,327,o),
(540,399,o),
(540,495,cs),
(540,627,o),
(447,710,o),
(298,710,cs),
(74,710,l),
(74,0,l)
);
},
{
closed = 1;
nodes = (
(160,626,l),
(298,626,ls),
(395,626,o),
(450,579,o),
(450,497,cs),
(450,415,o),
(395,370,o),
(298,370,cs),
(160,370,l)
);
}
);
width = 600;
},
{
anchors = (
{
name = bottom;
pos = (324,0);
},
{
name = top;
pos = (289,710);
}
);
layerId = "58B1DC7A-69F8-4375-AD2E-AC5103CCF536";
shapes = (
{
closed = 1;
nodes = (
(203,0,l),
(203,254,l),
(292,254,ls),
(357,254,o),
(387,234,o),
(392,181,cs),
(408,0,l),
(557,0,l),
(541,195,ls),
(532,291,o),
(477,328,o),
(350,328,c),
(382,319,l),
(476,323,o),
(544,393,o),
(544,493,cs),
(544,626,o),
(448,710,o),
(295,710,cs),
(57,710,l),
(57,0,l)
);
},
{
closed = 1;
nodes = (
(203,579,l),
(289,579,ls),
(351,579,o),
(390,540,o),
(390,481,cs),
(390,423,o),
(351,385,o),
(289,385,cs),
(203,385,l)
);
}
);
width = 600;
}
);
unicode = 82;
}
{
color = 5;
glyphname = S;
kernLeft = "0";
kernRight = "0";
layers = (
{
anchors = (
{
name = bottom;
pos = (299,0);
},
{
name = top;
pos = (299,710);
}
);
background = {
anchors = (
{
name = bottom;
pos = (299,0);
},
{
name = top;
pos = (299,710);
}
);
shapes = (
{
closed = 1;
nodes = (
(436,-12,o),
(540,70,o),
(540,174,cs),
(540,267,o),
(467,325,o),
(313,375,cs),
(159,425,o),
(104,464,o),
(104,540,cs),
(104,635,o),
(178,694,o),
(287,694,cs),
(400,694,o),
(487,616,o),
(487,505,c),
(521,508,l),
(521,630,o),
(416,726,o),
(297,726,cs),
(161,726,o),
(70,654,o),
(70,540,cs),
(70,450,o),
(139,396,o),
(285,352,cs),
(435,307,o),
(506,255,o),
(506,174,cs),
(506,88,o),
(415,20,o),
(310,20,cs),
(191,20,o),
(90,109,o),
(90,222,c),
(57,219,l),
(57,90,o),
(171,-12,o),
(305,-12,cs)
);
}
);
};
layerId = "EE2FFE84-06F1-4AFB-BBEC-60D09A436D14";
shapes = (
{
closed = 1;
nodes = (
(434,-16,o),
(542,56,o),
(542,170,cs),
(542,272,o),
(492,330,o),
(296,382,cs),
(152,420,o),
(107,453,o),
(107,540,cs),
(107,630,o),
(178,694,o),
(291,694,cs),
(417,694,o),
(489,607,o),
(489,505,c),
(523,508,l),
(523,616,o),
(441,726,o),
(293,726,cs),
(156,726,o),
(73,644,o),
(73,542,cs),
(73,430,o),
(142,390,o),
(286,352,cs),
(466,304,o),
(508,253,o),
(508,172,cs),
(508,74,o),
(419,16,o),
(311,16,cs),
(184,16,o),
(91,112,o),
(91,222,c),
(58,219,l),
(58,89,o),
(170,-16,o),
(309,-16,cs)
);
}
);
width = 600;
},
{
anchors = (
{
name = bottom;
pos = (300,0);
},
{
name = top;
pos = (299,710);
}
);
background = {
anchors = (
{
name = bottom;
pos = (300,0);
},
{
name = top;
pos = (299,710);
}
);
shapes = (
{
closed = 1;
nodes = (
(436,-12,o),
(556,56,o),
(556,188,cs),
(556,296,o),
(453,360,o),
(334,396,cs),
(245,421,o),
(151,445,o),
(151,531,cs),
(151,599,o),
(211,642,o),
(282,642,cs),
(370,642,o),
(439,583,o),
(451,494,c),
(541,500,l),
(527,631,o),
(426,726,o),
(283,726,cs),
(157,726,o),
(61,651,o),
(61,531,cs),
(61,433,o),
(125,372,o),
(272,331,cs),
(404,294,o),
(466,251,o),
(466,179,cs),
(466,108,o),
(405,72,o),
(325,72,cs),
(222,72,o),
(155,137,o),
(136,233,c),
(46,227,l),
(58,83,o),
(172,-12,o),
(318,-12,cs)
);
}
);
};
layerId = "574EE4B9-5C1A-4E7E-9985-C08FACB65BD8";
shapes = (
{
closed = 1;
nodes = (
(456,-16,o),
(556,62,o),
(556,174,cs),
(556,292,o),
(494,351,o),
(321,400,cs),
(187,438,o),
(151,461,o),
(151,528,cs),
(151,596,o),
(207,642,o),
(295,642,cs),
(391,642,o),
(441,580,o),
(453,494,c),
(543,500,l),
(527,630,o),
(443,726,o),
(297,726,cs),
(151,726,o),
(61,643,o),
(61,524,cs),
(61,418,o),
(119,370,o),
(267,328,cs),
(432,281,o),
(466,244,o),
(466,176,cs),
(466,107,o),
(412,68,o),
(313,68,cs),
(213,68,o),
(148,127,o),
(134,233,c),
(44,227,l),
(56,83,o),
(161,-16,o),
(311,-16,cs)
);
}
);
width = 600;
},
{
anchors = (
{
name = bottom;
pos = (307,0);
},
{
name = top;
pos = (307,710);
}
);
background = {
anchors = (
{
name = bottom;
pos = (307,0);
},
{
name = top;
pos = (307,710);
}
);
shapes = (
{
closed = 1;
nodes = (
(460,-12,o),
(558,70,o),
(558,207,cs),
(558,316,o),
(467,394,o),
(327,421,cs),
(254,435,o),
(207,456,o),
(202,502,cs),
(196,558,o),
(234,595,o),
(297,595,cs),
(359,595,o),
(400,551,o),
(407,483,c),
(555,490,l),
(538,632,o),
(442,726,o),
(302,726,cs),
(151,726,o),
(55,641,o),
(55,506,cs),
(55,402,o),
(125,331,o),
(282,299,cs),
(371,279,o),
(409,250,o),
(411,204,cs),
(414,152,o),
(378,119,o),
(319,119,cs),
(243,119,o),
(198,167,o),
(185,247,c),
(40,238,l),
(49,85,o),
(156,-12,o),
(317,-12,cs)
);
}
);
};
layerId = "58B1DC7A-69F8-4375-AD2E-AC5103CCF536";
shapes = (
{
closed = 1;
nodes = (
(460,-16,o),
(560,70,o),
(560,190,cs),
(560,314,o),
(493,387,o),
(326,422,cs),
(238,440,o),
(202,466,o),
(202,518,cs),
(202,567,o),
(237,596,o),
(300,596,cs),
(362,596,o),
(400,551,o),
(407,483,c),
(555,490,l),
(538,632,o),
(442,726,o),
(302,726,cs),
(150,726,o),
(52,640,o),
(52,512,cs),
(52,392,o),
(126,330,o),
(270,300,cs),
(374,278,o),
(410,249,o),
(410,194,cs),
(410,148,o),
(375,114,o),
(306,114,cs),
(238,114,o),
(198,167,o),
(185,247,c),
(40,238,l),
(50,88,o),
(138,-16,o),
(304,-16,cs)
);
}
);
width = 600;
}
);
unicode = 83;
}
{
glyphname = T;
kernLeft = "0";
kernRight = "0";
layers = (
{
anchors = (
{
name = bottom;
pos = (300,0);
},
{
name = top;
pos = (300,710);
}
);
background = {
shapes = (
{
closed = 1;
nodes = (
(214,0,l),
(302,0,l),
(302,710,l),
(214,710,l)
);
},
{
closed = 1;
nodes = (
(14,624,l),
(502,624,l),
(502,710,l),
(14,710,l)
);
}
);
};
layerId = "EE2FFE84-06F1-4AFB-BBEC-60D09A436D14";
shapes = (
{
closed = 1;
nodes = (
(316,0,l),
(316,680,l),
(559,680,l),
(559,710,l),
(41,710,l),
(41,680,l),
(284,680,l),
(284,0,l)
);
}
);
width = 600;
},
{
anchors = (
{
name = bottom;
pos = (300,0);
},
{
name = top;
pos = (300,710);
}
);
layerId = "574EE4B9-5C1A-4E7E-9985-C08FACB65BD8";
shapes = (
{
closed = 1;
nodes = (
(343,0,l),
(343,626,l),
(559,626,l),
(559,710,l),
(41,710,l),
(41,626,l),
(257,626,l),
(257,0,l)
);
}
);
width = 600;
},
{
anchors = (
{
name = bottom;
pos = (300,0);
},
{
name = top;
pos = (300,710);
}
);
layerId = "58B1DC7A-69F8-4375-AD2E-AC5103CCF536";
shapes = (
{
closed = 1;
nodes = (
(373,0,l),
(373,579,l),
(562,579,l),
(562,710,l),
(38,710,l),
(38,579,l),
(227,579,l),
(227,0,l)
);
}
);
width = 600;
}
);
unicode = 84;
}
{
color = 5;
glyphname = U;
kernLeft = "0";
kernRight = "0";
layers = (
{
anchors = (
{
name = bottom;
pos = (300,0);
},
{
name = ogonek;
pos = (386,0);
},
{
name = top;
pos = (300,710);
}
);
background = {
anchors = (
{
name = bottom;
pos = (300,0);
},
{
name = ogonek;
pos = (386,0);
},
{
name = top;
pos = (300,710);
}
);
shapes = (
{
closed = 1;
nodes = (
(441,-16,o),
(520,79,o),
(520,248,cs),
(520,711,l),
(488,711,l),
(488,248,ls),
(488,99,o),
(421,16,o),
(300,16,cs),
(179,16,o),
(112,99,o),
(112,248,cs),
(112,711,l),
(80,711,l),
(80,248,ls),
(80,79,o),
(159,-16,o),
(300,-16,cs)
);
}
);
};
layerId = "EE2FFE84-06F1-4AFB-BBEC-60D09A436D14";
shapes = (
{
closed = 1;
nodes = (
(441,-16,o),
(520,79,o),
(520,248,cs),
(520,710,l),
(488,710,l),
(488,248,ls),
(488,99,o),
(421,16,o),
(300,16,cs),
(179,16,o),
(112,99,o),
(112,248,cs),
(112,710,l),
(80,710,l),
(80,248,ls),
(80,79,o),
(159,-16,o),
(300,-16,cs)
);
}
);
width = 600;
},
{
anchors = (
{
name = bottom;
pos = (300,0);
},
{
name = ogonek;
pos = (394,0);
},
{
name = top;
pos = (300,710);
}
);
background = {
anchors = (
{
name = bottom;
pos = (300,0);
},
{
name = ogonek;
pos = (394,0);
},
{
name = top;
pos = (300,710);
}
);
shapes = (
{
closed = 1;
nodes = (
(450,-16,o),
(537,86,o),
(537,248,cs),
(537,711,l),
(451,711,l),
(451,248,ls),
(451,133,o),
(401,68,o),
(300,68,cs),
(199,68,o),
(149,133,o),
(149,248,cs),
(149,711,l),
(63,711,l),
(63,248,ls),
(63,86,o),
(150,-16,o),
(300,-16,cs)
);
}
);
};
layerId = "574EE4B9-5C1A-4E7E-9985-C08FACB65BD8";
shapes = (
{
closed = 1;
nodes = (
(450,-16,o),
(540,86,o),
(540,248,cs),
(540,710,l),
(454,710,l),
(454,248,ls),
(454,133,o),
(401,68,o),
(300,68,cs),
(199,68,o),
(146,133,o),
(146,248,cs),
(146,710,l),
(60,710,l),
(60,248,ls),
(60,86,o),
(150,-16,o),
(300,-16,cs)
);
}
);
width = 600;
},
{
anchors = (
{
name = bottom;
pos = (300,0);
},
{
name = ogonek;
pos = (396,0);
},
{
name = top;
pos = (300,710);
}
);
background = {
anchors = (
{
name = bottom;
pos = (300,0);
},
{
name = ogonek;
pos = (396,0);
},
{
name = top;
pos = (300,710);
}
);
shapes = (
{
closed = 1;
nodes = (
(463,-16,o),
(551,83,o),
(551,255,cs),
(551,711,l),
(405,711,l),
(405,237,ls),
(405,161,o),
(370,115,o),
(300,115,cs),
(230,115,o),
(195,161,o),
(195,237,cs),
(195,711,l),
(49,711,l),
(49,255,ls),
(49,83,o),
(137,-16,o),
(300,-16,cs)
);
}
);
};
layerId = "58B1DC7A-69F8-4375-AD2E-AC5103CCF536";
shapes = (
{
closed = 1;
nodes = (
(460,-16,o),
(550,70,o),
(550,244,cs),
(550,711,l),
(404,711,l),
(404,232,ls),
(404,152,o),
(364,114,o),
(300,114,cs),
(236,114,o),
(196,152,o),
(196,232,cs),
(196,711,l),
(50,711,l),
(50,244,ls),
(50,70,o),
(140,-16,o),
(300,-16,cs)
);
}
);
width = 600;
}
);
unicode = 85;
}
{
color = 5;
glyphname = V;
kernLeft = "0";
kernRight = "0";
layers = (
{
background = {
shapes = (
{
closed = 1;
nodes = (
(318,0,l),
(567,710,l),
(532,710,l),
(294,15,l),
(306,15,l),
(68,710,l),
(33,710,l),
(282,0,l)
);
}
);
};
layerId = "EE2FFE84-06F1-4AFB-BBEC-60D09A436D14";
shapes = (
{
closed = 1;
nodes = (
(318,0,l),
(566,710,l),
(534,710,l),
(296,18,l),
(304,18,l),
(66,710,l),
(34,710,l),
(282,0,l)
);
}
);
width = 600;
},
{
background = {
shapes = (
{
closed = 1;
nodes = (
(357,0,l),
(576,710,l),
(483,710,l),
(288,53,l),
(312,53,l),
(117,710,l),
(24,710,l),
(243,0,l)
);
}
);
};
layerId = "574EE4B9-5C1A-4E7E-9985-C08FACB65BD8";
shapes = (
{
closed = 1;
nodes = (
(356,0,l),
(576,710,l),
(484,710,l),
(288,56,l),
(312,56,l),
(116,710,l),
(24,710,l),
(244,0,l)
);
}
);
width = 600;
},
{
background = {
shapes = (
{
closed = 1;
nodes = (
(371,0,l),
(585,710,l),
(429,710,l),
(287,197,l),
(313,197,l),
(171,710,l),
(15,710,l),
(229,0,l)
);
}
);
};
layerId = "58B1DC7A-69F8-4375-AD2E-AC5103CCF536";
shapes = (
{
closed = 1;
nodes = (
(374,0,l),
(586,710,l),
(426,710,l),
(286,200,l),
(314,200,l),
(174,710,l),
(14,710,l),
(226,0,l)
);
}
);
width = 600;
}
);
unicode = 86;
}
{
color = 5;
glyphname = W;
kernLeft = "0";
kernRight = "0";
layers = (
{
anchors = (
{
name = bottom;
pos = (300,0);
},
{
name = top;
pos = (300,710);
}
);
background = {
anchors = (
{
name = bottom;
pos = (300,0);
},
{
name = top;
pos = (300,710);
}
);
shapes = (
{
closed = 1;
nodes = (
(196,0,l),
(309,639,l),
(291,639,l),
(404,0,l),
(450,0,l),
(547,710,l),
(513,710,l),
(421,15,l),
(428,15,l),
(310,694,l),
(367,650,l),
(233,650,l),
(290,694,l),
(172,15,l),
(179,15,l),
(87,710,l),
(53,710,l),
(150,0,l)
);
}
);
};
layerId = "EE2FFE84-06F1-4AFB-BBEC-60D09A436D14";
shapes = (
{
closed = 1;
nodes = (
(200,0,l),
(308,618,l),
(292,618,l),
(400,0,l),
(446,0,l),
(540,710,l),
(508,710,l),
(418,16,l),
(424,16,l),
(318,630,l),
(282,630,l),
(176,16,l),
(182,16,l),
(92,710,l),
(60,710,l),
(154,0,l)
);
}
);
width = 600;
},
{
anchors = (
{
name = bottom;
pos = (300,0);
},
{
name = top;
pos = (300,710);
}
);
background = {
anchors = (
{
name = bottom;
pos = (300,0);
},
{
name = top;
pos = (300,710);
}
);
shapes = (
{
closed = 1;
nodes = (
(240,0,l),
(314,612,l),
(286,612,l),
(360,0,l),
(495,0,l),
(566,710,l),
(478,710,l),
(413,49,l),
(422,49,l),
(336,704,l),
(405,650,l),
(195,650,l),
(264,704,l),
(178,49,l),
(187,49,l),
(122,710,l),
(34,710,l),
(105,0,l)
);
}
);
};
layerId = "574EE4B9-5C1A-4E7E-9985-C08FACB65BD8";
shapes = (
{
closed = 1;
nodes = (
(238,0,l),
(314,560,l),
(286,560,l),
(362,0,l),
(492,0,l),
(560,710,l),
(470,710,l),
(414,50,l),
(424,50,l),
(344,630,l),
(256,630,l),
(176,50,l),
(186,50,l),
(130,710,l),
(40,710,l),
(108,0,l)
);
}
);
width = 600;
},
{
anchors = (
{
name = bottom;
pos = (300,0);
},
{
name = top;
pos = (300,710);
}
);
background = {
anchors = (
{
name = bottom;
pos = (300,0);
},
{
name = top;
pos = (300,710);
}
);
shapes = (
{
closed = 1;
nodes = (
(241,0,l),
(310,473,l),
(290,473,l),
(358,0,l),
(500,0,l),
(585,710,l),
(438,710,l),
(392,275,l),
(398,276,l),
(338,704,l),
(401,650,l),
(199,650,l),
(261,704,l),
(202,278,l),
(208,277,l),
(162,710,l),
(15,710,l),
(100,0,l)
);
}
);
};
layerId = "58B1DC7A-69F8-4375-AD2E-AC5103CCF536";
shapes = (
{
closed = 1;
nodes = (
(240,0,l),
(322,460,l),
(278,460,l),
(360,0,l),
(500,0,l),
(580,710,l),
(432,710,l),
(396,280,l),
(402,280,l),
(346,630,l),
(254,630,l),
(198,280,l),
(204,280,l),
(168,710,l),
(20,710,l),
(100,0,l)
);
}
);
width = 600;
}
);
unicode = 87;
}
{
glyphname = X;
kernLeft = "0";
kernRight = "0";
layers = (
{
background = {
shapes = (
{
closed = 1;
nodes = (
(209,368,l),
(193,359,l),
(-41,0,l),
(59,0,l),
(279,337,l),
(296,348,l),
(532,710,l),
(432,710,l)
);
},
{
closed = 1;
nodes = (
(-39,710,l),
(206,335,l),
(221,324,l),
(432,0,l),
(534,0,l),
(280,389,l),
(266,399,l),
(63,710,l)
);
}
);
};
guides = (
{
angle = -90;
pos = (529,0);
}
);
layerId = "EE2FFE84-06F1-4AFB-BBEC-60D09A436D14";
shapes = (
{
closed = 1;
nodes = (
(101,0,l),
(300,334,l),
(499,0,l),
(538,0,l),
(323,357,l),
(531,710,l),
(492,710,l),
(300,381,l),
(108,710,l),
(69,710,l),
(277,357,l),
(62,0,l)
);
}
);
width = 600;
},
{
associatedMasterId = "EE2FFE84-06F1-4AFB-BBEC-60D09A436D14";
background = {
shapes = (
{
closed = 1;
nodes = (
(280,368,l),
(264,359,l),
(30,0,l),
(130,0,l),
(350,337,l),
(367,348,l),
(603,710,l),
(503,710,l)
);
},
{
closed = 1;
nodes = (
(32,710,l),
(277,335,l),
(292,324,l),
(503,0,l),
(605,0,l),
(351,389,l),
(337,399,l),
(134,710,l)
);
}
);
};
layerId = "C47B0997-5802-47AD-AE45-D8AD767F0936";
name = "5 de feb. de 23 12:24";
shapes = (
{
closed = 1;
nodes = (
(322,368,l),
(284,359,l),
(50,0,l),
(88,0,l),
(308,337,l),
(347,348,l),
(583,710,l),
(545,710,l)
);
},
{
closed = 1;
nodes = (
(52,710,l),
(297,335,l),
(336,324,l),
(547,0,l),
(585,0,l),
(331,389,l),
(293,399,l),
(90,710,l)
);
}
);
width = 600;
},
{
layerId = "574EE4B9-5C1A-4E7E-9985-C08FACB65BD8";
shapes = (
{
closed = 1;
nodes = (
(152,0,l),
(299,291,l),
(446,0,l),
(547,0,l),
(354,356,l),
(545,710,l),
(446,710,l),
(301,423,l),
(156,710,l),
(55,710,l),
(246,357,l),
(53,0,l)
);
}
);
width = 600;
},
{
layerId = "58B1DC7A-69F8-4375-AD2E-AC5103CCF536";
shapes = (
{
closed = 1;
nodes = (
(198,0,l),
(300,239,l),
(401,0,l),
(570,0,l),
(395,357,l),
(568,710,l),
(401,710,l),
(300,476,l),
(200,710,l),
(32,710,l),
(205,357,l),
(30,0,l)
);
}
);
width = 600;
}
);
unicode = 88;
}
{
color = 5;
glyphname = Y;
kernLeft = "0";
kernRight = "0";
layers = (
{
anchors = (
{
name = bottom;
pos = (300,0);
},
{
name = top;
pos = (300,710);
}
);
background = {
anchors = (
{
name = bottom;
pos = (300,0);
},
{
name = top;
pos = (299,710);
}
);
shapes = (
{
closed = 1;
nodes = (
(316,0,l),
(316,290,l),
(542,710,l),
(505,710,l),
(300,326,l),
(95,710,l),
(57,710,l),
(284,290,l),
(284,0,l)
);
}
);
};
layerId = "EE2FFE84-06F1-4AFB-BBEC-60D09A436D14";
shapes = (
{
closed = 1;
nodes = (
(316,0,l),
(316,290,l),
(546,710,l),
(508,710,l),
(300,326,l),
(92,710,l),
(54,710,l),
(284,290,l),
(284,0,l)
);
}
);
width = 600;
},
{
anchors = (
{
name = bottom;
pos = (300,0);
},
{
name = top;
pos = (300,710);
}
);
background = {
anchors = (
{
name = bottom;
pos = (301,0);
},
{
name = top;
pos = (301,710);
}
);
shapes = (
{
closed = 1;
nodes = (
(344,0,l),
(344,290,l),
(555,710,l),
(457,710,l),
(301,390,l),
(144,710,l),
(46,710,l),
(258,290,l),
(258,0,l)
);
}
);
};
layerId = "574EE4B9-5C1A-4E7E-9985-C08FACB65BD8";
shapes = (
{
closed = 1;
nodes = (
(344,0,l),
(344,290,l),
(556,710,l),
(458,710,l),
(300,390,l),
(142,710,l),
(44,710,l),
(258,290,l),
(258,0,l)
);
}
);
width = 600;
},
{
anchors = (
{
name = bottom;
pos = (302,0);
},
{
name = top;
pos = (300,710);
}
);
background = {
anchors = (
{
name = bottom;
pos = (301,0);
},
{
name = top;
pos = (301,710);
}
);
shapes = (
{
closed = 1;
nodes = (
(374,0,l),
(374,285,l),
(569,710,l),
(406,710,l),
(301,448,l),
(195,710,l),
(32,710,l),
(228,285,l),
(228,0,l)
);
}
);
};
layerId = "58B1DC7A-69F8-4375-AD2E-AC5103CCF536";
shapes = (
{
closed = 1;
nodes = (
(374,0,l),
(374,282,l),
(566,710,l),
(404,710,l),
(300,448,l),
(196,710,l),
(34,710,l),
(228,282,l),
(228,0,l)
);
}
);
width = 600;
}
);
unicode = 89;
}
{
color = 5;
glyphname = Z;
kernLeft = "0";
kernRight = "0";
layers = (
{
anchors = (
{
name = bottom;
pos = (300,0);
},
{
name = top;
pos = (300,710);
}
);
background = {
anchors = (
{
name = bottom;
pos = (300,0);
},
{
name = top;
pos = (300,710);
}
);
shapes = (
{
closed = 1;
nodes = (
(537,0,l),
(537,30,l),
(99,30,l),
(529,680,l),
(529,710,l),
(81,710,l),
(81,680,l),
(494,680,l),
(64,30,l),
(64,0,l)
);
}
);
};
layerId = "EE2FFE84-06F1-4AFB-BBEC-60D09A436D14";
shapes = (
{
closed = 1;
nodes = (
(540,0,l),
(540,28,l),
(94,28,l),
(532,680,l),
(532,710,l),
(78,710,l),
(78,682,l),
(498,682,l),
(60,30,l),
(60,0,l)
);
}
);
width = 600;
},
{
anchors = (
{
name = bottom;
pos = (300,0);
},
{
name = top;
pos = (300,710);
}
);
background = {
anchors = (
{
name = bottom;
pos = (300,0);
},
{
name = top;
pos = (300,710);
}
);
shapes = (
{
closed = 1;
nodes = (
(549,0,l),
(549,84,l),
(152,84,l),
(541,617,l),
(541,710,l),
(67,710,l),
(67,626,l),
(441,626,l),
(50,89,l),
(50,0,l)
);
}
);
};
layerId = "574EE4B9-5C1A-4E7E-9985-C08FACB65BD8";
shapes = (
{
closed = 1;
nodes = (
(550,0,l),
(550,82,l),
(146,82,l),
(542,624,l),
(542,710,l),
(68,710,l),
(68,628,l),
(446,628,l),
(50,86,l),
(50,0,l)
);
}
);
width = 600;
},
{
anchors = (
{
name = bottom;
pos = (300,0);
},
{
name = top;
pos = (300,710);
}
);
background = {
anchors = (
{
name = bottom;
pos = (300,0);
},
{
name = top;
pos = (300,710);
}
);
shapes = (
{
closed = 1;
nodes = (
(563,0,l),
(563,131,l),
(211,131,l),
(555,581,l),
(555,710,l),
(58,710,l),
(58,579,l),
(370,579,l),
(36,138,l),
(36,0,l)
);
}
);
};
layerId = "58B1DC7A-69F8-4375-AD2E-AC5103CCF536";
shapes = (
{
closed = 1;
nodes = (
(560,0,l),
(560,130,l),
(216,130,l),
(552,576,l),
(552,710,l),
(58,710,l),
(58,580,l),
(376,580,l),
(40,134,l),
(40,0,l)
);
}
);
width = 600;
}
);
unicode = 90;
}
{
glyphname = bracketleft;
kernLeft = "0";
kernRight = "0";
layers = (
{
background = {
shapes = (
{
closed = 1;
nodes = (
(-68,-150,l),
(175,-150,l),
(175,-70,l),
(14,-70,l),
(14,630,l),
(175,630,l),
(175,710,l),
(-68,710,l)
);
}
);
};
layerId = "EE2FFE84-06F1-4AFB-BBEC-60D09A436D14";
shapes = (
{
alignment = 1;
pos = (600,0);
ref = bracketright;
scale = (-1,1);
}
);
width = 600;
},
{
layerId = "574EE4B9-5C1A-4E7E-9985-C08FACB65BD8";
shapes = (
{
alignment = -1;
pos = (600,0);
ref = bracketright;
scale = (-1,1);
}
);
width = 600;
},
{
layerId = "58B1DC7A-69F8-4375-AD2E-AC5103CCF536";
shapes = (
{
alignment = -1;
pos = (600,0);
ref = bracketright;
scale = (-1,1);
}
);
width = 600;
}
);
unicode = 91;
}
{
color = 3;
glyphname = bracketright;
kernLeft = "0";
kernRight = "0";
layers = (
{
layerId = "EE2FFE84-06F1-4AFB-BBEC-60D09A436D14";
shapes = (
{
closed = 1;
nodes = (
(190,770,l),
(190,740,l),
(341,740,l),
(341,-60,l),
(190,-60,l),
(190,-90,l),
(373,-90,l),
(373,770,l)
);
}
);
width = 600;
},
{
layerId = "574EE4B9-5C1A-4E7E-9985-C08FACB65BD8";
shapes = (
{
closed = 1;
nodes = (
(142,770,l),
(142,692,l),
(351,692,l),
(351,-12,l),
(142,-12,l),
(142,-90,l),
(431,-90,l),
(431,770,l)
);
}
);
width = 600;
},
{
layerId = "58B1DC7A-69F8-4375-AD2E-AC5103CCF536";
shapes = (
{
closed = 1;
nodes = (
(105,770,l),
(105,641,l),
(306,641,l),
(306,39,l),
(105,39,l),
(105,-90,l),
(450,-90,l),
(450,770,l)
);
}
);
width = 600;
}
);
unicode = 93;
}
{
glyphname = asciicircum;
kernLeft = "0";
kernRight = "0";
layers = (
{
guides = (
{
pos = (7,383);
}
);
layerId = "EE2FFE84-06F1-4AFB-BBEC-60D09A436D14";
shapes = (
{
closed = 1;
nodes = (
(454,333,l),
(324,710,l),
(276,710,l),
(146,333,l),
(180,333,l),
(302,691,l),
(298,691,l),
(420,333,l)
);
}
);
width = 600;
},
{
layerId = "574EE4B9-5C1A-4E7E-9985-C08FACB65BD8";
shapes = (
{
closed = 1;
nodes = (
(485,333,l),
(353,710,l),
(247,710,l),
(115,333,l),
(199,333,l),
(306,648,l),
(294,648,l),
(401,333,l)
);
}
);
width = 600;
},
{
layerId = "58B1DC7A-69F8-4375-AD2E-AC5103CCF536";
shapes = (
{
closed = 1;
nodes = (
(513,322,l),
(382,710,l),
(218,710,l),
(87,322,l),
(217,322,l),
(320,647,l),
(280,647,l),
(383,322,l)
);
}
);
width = 600;
}
);
unicode = 94;
}
{
glyphname = underscore;
kernLeft = "0";
kernRight = "0";
layers = (
{
background = {
shapes = (
{
closed = 1;
nodes = (
(-18,-124,l),
(452,-124,l),
(452,-44,l),
(-18,-44,l)
);
}
);
};
layerId = "EE2FFE84-06F1-4AFB-BBEC-60D09A436D14";
shapes = (
{
closed = 1;
nodes = (
(517,-74,l),
(517,-44,l),
(83,-44,l),
(83,-74,l)
);
}
);
width = 600;
},
{
layerId = "574EE4B9-5C1A-4E7E-9985-C08FACB65BD8";
shapes = (
{
closed = 1;
nodes = (
(534,-122,l),
(534,-44,l),
(66,-44,l),
(66,-122,l)
);
}
);
width = 600;
},
{
layerId = "58B1DC7A-69F8-4375-AD2E-AC5103CCF536";
shapes = (
{
closed = 1;
nodes = (
(549,-161,l),
(549,-32,l),
(51,-32,l),
(51,-161,l)
);
}
);
width = 600;
}
);
unicode = 95;
}
{
color = 5;
glyphname = a;
kernLeft = "0";
kernRight = "0";
layers = (
{
anchors = (
{
name = bottom;
pos = (272,0);
},
{
name = ogonek;
pos = (540,0);
},
{
name = top;
pos = (278,530);
}
);
background = {
anchors = (
{
name = bottom;
pos = (282,0);
},
{
name = ogonek;
pos = (540,0);
},
{
name = top;
pos = (282,530);
}
);
shapes = (
{
closed = 1;
nodes = (
(336,-10,o),
(412,34,o),
(448,115,c),
(443,25,o),
(475,0,o),
(522,0,cs),
(540,0,l),
(540,30,l),
(522,30,ls),
(491,30,o),
(478,48,o),
(478,90,cs),
(478,320,ls),
(478,468,o),
(410,542,o),
(282,542,cs),
(172,542,o),
(100,474,o),
(83,373,c),
(119,370,l),
(131,459,o),
(191,512,o),
(282,512,cs),
(385,512,o),
(446,449,o),
(446,315,c),
(256,280,ls),
(163,263,o),
(74,226,o),
(74,131,cs),
(74,48,o),
(140,-10,o),
(247,-12,cs)
);
},
{
closed = 1;
nodes = (
(165,13,o),
(106,60,o),
(106,131,cs),
(106,219,o),
(201,241,o),
(288,257,cs),
(448,287,l),
(449,219,ls),
(451,108,o),
(371,23,o),
(258,18,cs)
);
}
);
};
layerId = "EE2FFE84-06F1-4AFB-BBEC-60D09A436D14";
shapes = (
{
closed = 1;
nodes = (
(338,-12,o),
(414,51,o),
(438,122,c),
(430,122,l),
(430,20,o),
(458,-2,o),
(506,-2,cs),
(516,-2,o),
(534,-1,o),
(540,0,c),
(540,30,l),
(510,30,ls),
(478,30,o),
(462,43,o),
(462,102,cs),
(462,326,ls),
(462,472,o),
(394,542,o),
(276,542,cs),
(163,542,o),
(91,481,o),
(73,373,c),
(106,370,l),
(121,461,o),
(180,512,o),
(276,512,cs),
(380,512,o),
(432,454,o),
(432,316,c),
(225,276,ls),
(131,258,o),
(64,210,o),
(64,130,cs),
(64,44,o),
(132,-12,o),
(234,-12,cs)
);
},
{
closed = 1;
nodes = (
(146,18,o),
(96,58,o),
(96,132,cs),
(96,196,o),
(150,231,o),
(234,248,cs),
(432,287,l),
(432,204,ls),
(432,98,o),
(352,18,o),
(234,18,cs)
);
}
);
width = 600;
},
{
anchors = (
{
name = bottom;
pos = (243,0);
},
{
name = ogonek;
pos = (386,0);
},
{
name = top;
pos = (243,530);
}
);
associatedMasterId = "EE2FFE84-06F1-4AFB-BBEC-60D09A436D14";
background = {
shapes = (
{
closed = 1;
nodes = (
(323,-12,o),
(387,48,o),
(396,102,c),
(387,110,l),
(386,49,o),
(425,0,o),
(502,0,cs),
(529,0,l),
(529,76,l),
(507,76,ls),
(485,76,o),
(475,86,o),
(475,108,cs),
(475,320,ls),
(475,468,o),
(389,542,o),
(261,542,cs),
(151,542,o),
(64,474,o),
(44,374,c),
(136,367,l),
(149,421,o),
(196,460,o),
(261,460,cs),
(349,460,o),
(402,404,o),
(386,287,c),
(433,338,l),
(235,299,ls),
(117,276,o),
(35,249,o),
(35,139,cs),
(35,44,o),
(121,-12,o),
(226,-12,cs)
);
},
{
closed = 1;
nodes = (
(125,213,o),
(189,216,o),
(267,230,cs),
(435,261,l),
(391,267,l),
(391,228,ls),
(391,124,o),
(323,64,o),
(237,64,cs),
(160,64,o),
(125,98,o),
(125,139,cs)
);
}
);
};
layerId = "456932B6-354B-4A2F-81B9-CE7212349174";
name = "30 de mar. de 23 15:28";
shapes = (
{
closed = 1;
nodes = (
(217,280,ls),
(124,263,o),
(35,226,o),
(35,131,cs),
(35,48,o),
(101,-10,o),
(208,-12,cs),
(322,-10,o),
(414,62,o),
(430,192,c),
(411,192,l),
(410,155,o),
(409,127,o),
(409,90,cs),
(409,38,o),
(442,-2,o),
(483,0,cs),
(488,0,o),
(492,0,o),
(496,0,c),
(496,30,l),
(491,30,o),
(488,30,o),
(483,30,cs),
(457,31,o),
(439,56,o),
(439,90,cs),
(439,320,ls),
(439,468,o),
(371,542,o),
(243,542,cs),
(121,542,o),
(46,459,o),
(40,339,c),
(-6,376,l),
(134,366,l),
(77,338,l),
(79,446,o),
(142,512,o),
(243,512,cs),
(346,512,o),
(407,442,o),
(407,327,cs),
(407,303,l),
(430,319,l)
);
},
{
closed = 1;
nodes = (
(67,219,o),
(162,241,o),
(249,257,cs),
(425,290,l),
(409,295,l),
(410,219,ls),
(411,108,o),
(332,23,o),
(219,18,cs),
(126,13,o),
(67,60,o),
(67,131,cs)
);
}
);
width = 526;
},
{
anchors = (
{
name = bottom;
pos = (279,0);
},
{
name = ogonek;
pos = (550,0);
},
{
name = top;
pos = (284,530);
}
);
background = {
anchors = (
{
name = bottom;
pos = (289,0);
},
{
name = ogonek;
pos = (558,3);
},
{
name = top;
pos = (291,530);
}
);
shapes = (
{
closed = 1;
nodes = (
(340,-12,o),
(400,33,o),
(421,82,c),
(430,34,o),
(468,0,o),
(532,0,cs),
(558,0,l),
(558,74,l),
(537,74,ls),
(514,74,o),
(504,85,o),
(504,107,cs),
(504,320,ls),
(504,468,o),
(419,542,o),
(291,542,cs),
(181,542,o),
(94,474,o),
(74,374,c),
(164,367,l),
(177,422,o),
(225,462,o),
(291,462,cs),
(369,462,o),
(419,419,o),
(420,329,c),
(265,298,ls),
(148,276,o),
(65,248,o),
(65,139,cs),
(65,44,o),
(151,-12,o),
(256,-12,cs)
);
},
{
closed = 1;
nodes = (
(189,62,o),
(153,97,o),
(153,139,cs),
(153,213,o),
(218,218,o),
(297,232,cs),
(422,254,l),
(422,228,ls),
(422,123,o),
(354,63,o),
(267,62,cs)
);
}
);
};
layerId = "574EE4B9-5C1A-4E7E-9985-C08FACB65BD8";
shapes = (
{
closed = 1;
nodes = (
(322,-12,o),
(402,39,o),
(416,108,c),
(400,108,l),
(402,30,o),
(437,-2,o),
(506,-2,cs),
(522,-2,o),
(542,-1,o),
(550,0,c),
(550,74,l),
(516,74,ls),
(494,74,o),
(484,82,o),
(484,106,cs),
(484,326,ls),
(484,460,o),
(410,542,o),
(282,542,cs),
(162,542,o),
(84,474,o),
(64,374,c),
(153,367,l),
(169,428,o),
(208,462,o),
(282,462,cs),
(358,462,o),
(400,418,o),
(400,328,c),
(222,292,ls),
(106,269,o),
(54,222,o),
(54,132,cs),
(54,46,o),
(130,-12,o),
(230,-12,cs)
);
},
{
closed = 1;
nodes = (
(178,62,o),
(142,90,o),
(142,140,cs),
(142,184,o),
(166,210,o),
(238,224,cs),
(400,256,l),
(400,210,ls),
(400,122,o),
(346,62,o),
(238,62,cs)
);
}
);
width = 600;
},
{
anchors = (
{
name = bottom;
pos = (285,0);
},
{
name = ogonek;
pos = (560,0);
},
{
name = top;
pos = (284,540);
}
);
background = {
anchors = (
{
name = bottom;
pos = (295,0);
},
{
name = ogonek;
pos = (567,1);
},
{
name = top;
pos = (296,540);
}
);
shapes = (
{
closed = 1;
nodes = (
(346,-12,o),
(423,42,o),
(432,107,c),
(422,112,l),
(421,49,o),
(461,0,o),
(537,0,cs),
(547,0,o),
(557,0,o),
(567,0,c),
(567,126,l),
(542,126,ls),
(520,126,o),
(510,137,o),
(510,166,cs),
(510,326,ls),
(510,472,o),
(430,552,o),
(296,552,cs),
(176,552,o),
(86,489,o),
(65,373,c),
(211,366,l),
(218,404,o),
(250,428,o),
(290,428,cs),
(336,428,o),
(366,398,o),
(368,344,c),
(270,326,ls),
(132,301,o),
(56,250,o),
(56,141,cs),
(56,46,o),
(143,-12,o),
(254,-12,cs)
);
},
{
closed = 1;
nodes = (
(232,109,o),
(209,127,o),
(207,153,cs),
(204,191,o),
(236,206,o),
(295,216,cs),
(369,229,l),
(369,214,ls),
(369,150,o),
(330,109,o),
(274,109,cs)
);
}
);
};
layerId = "58B1DC7A-69F8-4375-AD2E-AC5103CCF536";
shapes = (
{
closed = 1;
nodes = (
(320,-12,o),
(383,46,o),
(389,122,c),
(375,122,l),
(379,46,o),
(420,-6,o),
(508,-6,cs),
(530,-6,o),
(552,-2,o),
(560,0,c),
(560,120,l),
(536,120,ls),
(510,120,o),
(500,129,o),
(500,158,cs),
(500,326,ls),
(500,470,o),
(423,552,o),
(280,552,cs),
(154,552,o),
(72,482,o),
(52,374,c),
(196,366,l),
(204,406,o),
(230,428,o),
(280,428,cs),
(332,428,o),
(358,400,o),
(358,338,c),
(200,304,ls),
(114,285,o),
(44,236,o),
(44,148,cs),
(44,46,o),
(134,-12,o),
(231,-12,cs)
);
},
{
closed = 1;
nodes = (
(210,106,o),
(192,126,o),
(192,156,cs),
(192,186,o),
(211,203,o),
(244,210,cs),
(358,234,l),
(358,204,ls),
(358,140,o),
(310,106,o),
(252,106,cs)
);
}
);
width = 600;
}
);
unicode = 97;
}
{
glyphname = b;
kernLeft = "0";
kernRight = "0";
layers = (
{
background = {
shapes = (
{
closed = 1;
nodes = (
(-30,0,l),
(48,0,l),
(52,108,l),
(43,91,l),
(69,26,o),
(128,-12,o),
(218,-12,cs),
(372,-12,o),
(442,120,o),
(442,265,cs),
(442,410,o),
(372,542,o),
(218,542,cs),
(128,542,o),
(69,504,o),
(44,436,c),
(56,422,l),
(56,710,l),
(-30,710,l)
);
},
{
closed = 1;
nodes = (
(48,367,o),
(91,464,o),
(200,464,cs),
(310,464,o),
(352,368,o),
(352,265,cs),
(352,166,o),
(310,70,o),
(200,70,cs),
(91,70,o),
(48,167,o),
(48,265,cs)
);
}
);
};
layerId = "EE2FFE84-06F1-4AFB-BBEC-60D09A436D14";
shapes = (
{
closed = 1;
nodes = (
(450,-12,o),
(535,95,o),
(535,265,cs),
(535,433,o),
(450,539,o),
(314,539,cs),
(234,539,o),
(158,482,o),
(130,402,c),
(130,710,l),
(100,710,l),
(100,0,l),
(122,0,l),
(125,130,l),
(161,43,o),
(234,-12,o),
(314,-12,cs)
);
},
{
closed = 1;
nodes = (
(209,17,o),
(127,126,o),
(127,265,cs),
(127,402,o),
(209,509,o),
(314,509,cs),
(430,509,o),
(503,415,o),
(503,265,cs),
(503,113,o),
(430,17,o),
(314,17,cs)
);
}
);
width = 600;
},
{
layerId = "574EE4B9-5C1A-4E7E-9985-C08FACB65BD8";
shapes = (
{
closed = 1;
nodes = (
(481,-12,o),
(551,119,o),
(551,265,cs),
(551,411,o),
(481,542,o),
(328,542,cs),
(249,542,o),
(195,513,o),
(165,460,c),
(165,710,l),
(81,710,l),
(81,0,l),
(157,0,l),
(160,76,l),
(189,21,o),
(246,-12,o),
(328,-12,cs)
);
},
{
closed = 1;
nodes = (
(201,68,o),
(157,166,o),
(157,265,cs),
(157,368,o),
(201,466,o),
(310,466,cs),
(420,466,o),
(463,370,o),
(463,265,cs),
(463,164,o),
(420,68,o),
(310,68,cs)
);
}
);
width = 600;
},
{
layerId = "58B1DC7A-69F8-4375-AD2E-AC5103CCF536";
shapes = (
{
closed = 1;
nodes = (
(480,-12,o),
(556,102,o),
(556,265,cs),
(556,428,o),
(480,542,o),
(354,542,cs),
(287,542,o),
(241,511,o),
(208,454,c),
(208,710,l),
(67,710,l),
(67,0,l),
(203,0,l),
(206,77,l),
(235,20,o),
(282,-12,o),
(354,-12,cs)
);
},
{
closed = 1;
nodes = (
(234,111,o),
(198,177,o),
(198,265,cs),
(198,354,o),
(234,420,o),
(302,420,cs),
(371,420,o),
(407,355,o),
(407,265,cs),
(407,176,o),
(371,111,o),
(302,111,cs)
);
}
);
width = 600;
}
);
unicode = 98;
}
{
color = 5;
glyphname = c;
kernLeft = "0";
kernRight = "0";
layers = (
{
anchors = (
{
name = bottom;
pos = (314,0);
},
{
name = top;
pos = (314,530);
}
);
background = {
anchors = (
{
name = bottom;
pos = (314,0);
},
{
name = top;
pos = (314,530);
}
);
shapes = (
{
closed = 1;
nodes = (
(435,-12,o),
(506,66,o),
(530,175,c),
(497,178,l),
(473,80,o),
(406,18,o),
(314,18,cs),
(196,18,o),
(121,113,o),
(121,265,cs),
(121,417,o),
(196,512,o),
(314,512,cs),
(403,512,o),
(468,455,o),
(494,363,c),
(527,365,l),
(501,471,o),
(430,542,o),
(314,542,cs),
(164,542,o),
(89,415,o),
(89,265,cs),
(89,115,o),
(164,-12,o),
(314,-12,cs)
);
}
);
};
layerId = "EE2FFE84-06F1-4AFB-BBEC-60D09A436D14";
shapes = (
{
closed = 1;
nodes = (
(425,-12,o),
(496,67,o),
(520,175,c),
(488,178,l),
(468,78,o),
(403,18,o),
(315,18,cs),
(197,18,o),
(122,113,o),
(122,265,cs),
(122,417,o),
(197,512,o),
(315,512,cs),
(403,512,o),
(462,457,o),
(486,363,c),
(518,365,l),
(492,465,o),
(425,542,o),
(315,542,cs),
(165,542,o),
(90,415,o),
(90,265,cs),
(90,115,o),
(165,-12,o),
(315,-12,cs)
);
}
);
width = 600;
},
{
anchors = (
{
name = bottom;
pos = (313,0);
},
{
name = top;
pos = (313,530);
}
);
background = {
anchors = (
{
name = bottom;
pos = (313,0);
},
{
name = top;
pos = (313,530);
}
);
shapes = (
{
closed = 1;
nodes = (
(425,-12,o),
(521,62,o),
(539,182,c),
(450,188,l),
(437,112,o),
(380,68,o),
(313,68,cs),
(215,68,o),
(159,142,o),
(159,265,cs),
(159,388,o),
(215,462,o),
(313,462,cs),
(377,462,o),
(434,421,o),
(446,352,c),
(534,358,l),
(519,472,o),
(421,542,o),
(313,542,cs),
(166,542,o),
(71,433,o),
(71,265,cs),
(71,97,o),
(166,-12,o),
(313,-12,cs)
);
}
);
};
layerId = "574EE4B9-5C1A-4E7E-9985-C08FACB65BD8";
shapes = (
{
closed = 1;
nodes = (
(432,-12,o),
(518,64,o),
(540,182,c),
(452,188,l),
(436,108,o),
(382,68,o),
(314,68,cs),
(216,68,o),
(158,142,o),
(158,265,cs),
(158,388,o),
(216,462,o),
(314,462,cs),
(382,462,o),
(432,422,o),
(448,352,c),
(536,358,l),
(514,476,o),
(432,542,o),
(314,542,cs),
(166,542,o),
(70,433,o),
(70,265,cs),
(70,97,o),
(166,-12,o),
(314,-12,cs)
);
}
);
width = 600;
},
{
anchors = (
{
name = bottom;
pos = (307,0);
},
{
name = top;
pos = (307,540);
}
);
background = {
anchors = (
{
name = bottom;
pos = (312,0);
},
{
name = top;
pos = (312,540);
}
);
shapes = (
{
closed = 1;
nodes = (
(446,-12,o),
(550,78,o),
(563,211,c),
(414,217,l),
(406,154,o),
(365,112,o),
(312,112,cs),
(244,112,o),
(204,173,o),
(204,270,cs),
(204,367,o),
(244,428,o),
(312,428,cs),
(363,428,o),
(403,386,o),
(412,324,c),
(561,332,l),
(548,463,o),
(442,552,o),
(312,552,cs),
(154,552,o),
(55,442,o),
(55,270,cs),
(55,98,o),
(154,-12,o),
(312,-12,cs)
);
}
);
};
layerId = "58B1DC7A-69F8-4375-AD2E-AC5103CCF536";
shapes = (
{
closed = 1;
nodes = (
(440,-12,o),
(537,77,o),
(556,210,c),
(408,218,l),
(394,155,o),
(362,114,o),
(306,114,cs),
(238,114,o),
(200,173,o),
(200,270,cs),
(200,367,o),
(240,426,o),
(306,426,cs),
(362,426,o),
(393,386,o),
(408,324,c),
(556,332,l),
(537,463,o),
(438,552,o),
(306,552,cs),
(152,552,o),
(50,442,o),
(50,270,cs),
(50,98,o),
(152,-12,o),
(306,-12,cs)
);
}
);
width = 600;
}
);
unicode = 99;
}
{
color = 5;
glyphname = e;
kernLeft = "0";
kernRight = "0";
layers = (
{
anchors = (
{
name = bottom;
pos = (309,0);
},
{
name = ogonek;
pos = (436,25);
},
{
name = top;
pos = (305,530);
}
);
background = {
anchors = (
{
name = bottom;
pos = (305,0);
},
{
name = ogonek;
pos = (368,0);
},
{
name = top;
pos = (305,530);
}
);
shapes = (
{
closed = 1;
nodes = (
(403,-12,o),
(484,48,o),
(515,143,c),
(482,145,l),
(453,67,o),
(385,18,o),
(305,18,cs),
(189,18,o),
(114,110,o),
(112,258,c),
(530,258,l),
(530,265,l),
(530,415,o),
(455,542,o),
(305,542,cs),
(155,542,o),
(80,415,o),
(80,265,cs),
(80,115,o),
(155,-12,o),
(305,-12,cs)
);
},
{
closed = 1;
nodes = (
(120,427,o),
(193,512,o),
(305,512,cs),
(417,512,o),
(490,427,o),
(497,288,c),
(113,288,l)
);
}
);
};
layerId = "EE2FFE84-06F1-4AFB-BBEC-60D09A436D14";
shapes = (
{
closed = 1;
nodes = (
(418,-12,o),
(493,53,o),
(519,143,c),
(486,145,l),
(464,69,o),
(404,18,o),
(310,18,cs),
(192,18,o),
(114,110,o),
(112,260,c),
(530,260,l),
(530,272,ls),
(530,416,o),
(458,542,o),
(306,542,cs),
(156,542,o),
(80,415,o),
(80,265,cs),
(80,115,o),
(158,-12,o),
(310,-12,cs)
);
},
{
closed = 1;
nodes = (
(119,427,o),
(194,512,o),
(306,512,cs),
(426,512,o),
(493,424,o),
(497,288,c),
(112,288,l)
);
}
);
width = 600;
},
{
anchors = (
{
name = bottom;
pos = (265,0);
},
{
name = ogonek;
pos = (328,0);
},
{
name = top;
pos = (265,530);
}
);
associatedMasterId = "EE2FFE84-06F1-4AFB-BBEC-60D09A436D14";
background = {
shapes = (
{
closed = 1;
nodes = (
(395,-12,o),
(493,63,o),
(514,181,c),
(533,148,l),
(394,158,l),
(422,180,l),
(403,111,o),
(347,70,o),
(283,70,cs),
(186,70,o),
(130,143,o),
(130,265,cs),
(130,387,o),
(186,460,o),
(283,460,cs),
(355,460,o),
(421,413,o),
(424,265,c),
(514,265,l),
(508,464,o),
(401,542,o),
(283,542,cs),
(136,542,o),
(40,434,o),
(40,265,cs),
(40,96,o),
(136,-12,o),
(283,-12,cs)
);
},
{
closed = 1;
nodes = (
(514,238,l),
(514,275,l),
(509,297,l),
(463,297,l),
(463,314,l),
(84,314,l),
(84,238,l)
);
}
);
};
layerId = "E9BBF2E6-3E46-4BD2-A166-D8A1CCFF5D66";
name = "24 de feb. de 23 10:25";
shapes = (
{
closed = 1;
nodes = (
(56,258,l),
(490,258,l),
(488,288,l),
(56,288,l)
);
},
{
closed = 1;
nodes = (
(490,259,l),
(490,261,o),
(490,263,o),
(490,265,cs),
(490,415,o),
(415,542,o),
(265,542,cs),
(115,542,o),
(40,415,o),
(40,265,cs),
(40,115,o),
(115,-12,o),
(265,-12,cs),
(363,-12,o),
(444,48,o),
(475,143,c),
(442,145,l),
(413,67,o),
(345,18,o),
(265,18,cs),
(147,18,o),
(72,113,o),
(72,265,cs),
(72,417,o),
(147,512,o),
(265,512,cs),
(383,512,o),
(458,417,o),
(458,265,cs),
(458,263,o),
(458,261,o),
(458,259,c)
);
}
);
width = 525;
},
{
anchors = (
{
name = bottom;
pos = (309,0);
},
{
name = ogonek;
pos = (438,24);
},
{
name = top;
pos = (306,528);
}
);
background = {
anchors = (
{
name = bottom;
pos = (309,0);
},
{
name = ogonek;
pos = (384,0);
},
{
name = top;
pos = (306,528);
}
);
shapes = (
{
closed = 1;
nodes = (
(411,-12,o),
(500,50,o),
(531,150,c),
(441,157,l),
(417,101,o),
(366,68,o),
(309,68,cs),
(218,68,o),
(163,131,o),
(156,239,c),
(540,239,l),
(539,277,l),
(530,465,o),
(426,542,o),
(309,542,cs),
(162,542,o),
(66,433,o),
(66,265,cs),
(66,97,o),
(162,-12,o),
(309,-12,cs)
);
},
{
closed = 1;
nodes = (
(171,407,o),
(225,462,o),
(309,462,cs),
(374,462,o),
(433,424,o),
(448,313,c),
(157,313,l)
);
}
);
};
layerId = "574EE4B9-5C1A-4E7E-9985-C08FACB65BD8";
shapes = (
{
closed = 1;
nodes = (
(421,-12,o),
(503,55,o),
(531,150,c),
(441,157,l),
(423,103,o),
(378,68,o),
(309,68,cs),
(217,68,o),
(160,125,o),
(154,239,c),
(540,239,l),
(540,264,ls),
(540,442,o),
(443,542,o),
(305,542,cs),
(159,542,o),
(66,433,o),
(66,265,cs),
(66,97,o),
(159,-12,o),
(309,-12,cs)
);
},
{
closed = 1;
nodes = (
(168,411,o),
(223,462,o),
(305,462,cs),
(383,462,o),
(440,415,o),
(448,313,c),
(154,313,l)
);
}
);
width = 600;
},
{
anchors = (
{
name = bottom;
pos = (300,0);
},
{
name = ogonek;
pos = (426,19);
},
{
name = top;
pos = (300,539);
}
);
background = {
anchors = (
{
name = bottom;
pos = (305,0);
},
{
name = ogonek;
pos = (380,1);
},
{
name = top;
pos = (305,539);
}
);
shapes = (
{
closed = 1;
nodes = (
(424,-12,o),
(520,60,o),
(549,169,c),
(400,184,l),
(383,138,o),
(346,112,o),
(305,112,cs),
(245,112,o),
(207,159,o),
(199,238,c),
(557,238,l),
(557,268,l),
(554,464,o),
(435,552,o),
(305,552,cs),
(147,552,o),
(47,442,o),
(47,270,cs),
(47,98,o),
(147,-12,o),
(305,-12,cs)
);
},
{
closed = 1;
nodes = (
(215,391,o),
(251,428,o),
(305,428,cs),
(353,428,o),
(391,393,o),
(404,327,c),
(203,327,l)
);
}
);
};
layerId = "58B1DC7A-69F8-4375-AD2E-AC5103CCF536";
shapes = (
{
closed = 1;
nodes = (
(425,-12,o),
(508,62,o),
(544,170,c),
(396,184,l),
(379,138,o),
(346,114,o),
(300,114,cs),
(245,114,o),
(204,155,o),
(195,238,c),
(556,238,l),
(556,266,ls),
(556,456,o),
(436,552,o),
(300,552,cs),
(150,552,o),
(44,444,o),
(44,270,cs),
(44,98,o),
(149,-12,o),
(300,-12,cs)
);
},
{
closed = 1;
nodes = (
(211,391,o),
(248,426,o),
(300,426,cs),
(352,426,o),
(389,388,o),
(401,326,c),
(199,326,l)
);
}
);
width = 600;
}
);
unicode = 101;
}
{
color = 5;
glyphname = f;
kernLeft = "0";
kernRight = "0";
layers = (
{
background = {
shapes = (
{
closed = 1;
nodes = (
(271,0,l),
(271,603,ls),
(271,653,o),
(301,683,o),
(349,683,cs),
(494,683,l),
(494,710,l),
(353,710,ls),
(284,710,o),
(241,667,o),
(241,598,cs),
(241,0,l)
);
},
{
closed = 1;
nodes = (
(494,470,l),
(494,500,l),
(80,500,l),
(80,470,l)
);
}
);
};
layerId = "EE2FFE84-06F1-4AFB-BBEC-60D09A436D14";
shapes = (
{
closed = 1;
nodes = (
(290,0,l),
(290,604,ls),
(290,654,o),
(318,682,o),
(368,682,cs),
(520,682,l),
(520,710,l),
(370,710,ls),
(302,710,o),
(260,668,o),
(260,600,cs),
(260,0,l)
);
},
{
closed = 1;
nodes = (
(510,502,l),
(510,530,l),
(80,530,l),
(80,502,l)
);
}
);
width = 600;
},
{
background = {
shapes = (
{
closed = 1;
nodes = (
(296,0,l),
(296,564,ls),
(296,609,o),
(320,636,o),
(355,636,cs),
(507,636,l),
(507,710,l),
(355,710,ls),
(257,710,o),
(212,653,o),
(212,564,cs),
(212,0,l)
);
},
{
closed = 1;
nodes = (
(500,426,l),
(500,500,l),
(70,500,l),
(70,426,l)
);
}
);
};
layerId = "574EE4B9-5C1A-4E7E-9985-C08FACB65BD8";
shapes = (
{
closed = 1;
nodes = (
(316,0,l),
(316,564,ls),
(316,608,o),
(338,636,o),
(380,636,cs),
(530,636,l),
(530,710,l),
(380,710,ls),
(280,710,o),
(232,658,o),
(232,564,cs),
(232,0,l)
);
},
{
closed = 1;
nodes = (
(520,456,l),
(520,530,l),
(70,530,l),
(70,456,l)
);
}
);
width = 600;
},
{
background = {
shapes = (
{
closed = 1;
nodes = (
(334,0,l),
(334,523,ls),
(334,561,o),
(355,585,o),
(388,585,cs),
(523,585,l),
(523,710,l),
(402,710,ls),
(257,710,o),
(193,646,o),
(193,512,cs),
(193,0,l)
);
},
{
closed = 1;
nodes = (
(515,364,l),
(515,490,l),
(59,490,l),
(59,364,l)
);
}
);
};
layerId = "58B1DC7A-69F8-4375-AD2E-AC5103CCF536";
shapes = (
{
closed = 1;
nodes = (
(342,0,l),
(342,540,ls),
(342,578,o),
(354,590,o),
(392,590,cs),
(540,590,l),
(540,710,l),
(368,710,ls),
(248,710,o),
(200,662,o),
(200,542,cs),
(200,0,l)
);
},
{
closed = 1;
nodes = (
(540,420,l),
(540,540,l),
(60,540,l),
(60,420,l)
);
}
);
width = 600;
}
);
unicode = 102;
}
{
color = 5;
glyphname = g;
kernLeft = "0";
kernRight = "0";
layers = (
{
anchors = (
{
name = top;
pos = (291,530);
}
);
background = {
anchors = (
{
name = top;
pos = (291,530);
}
);
shapes = (
{
closed = 1;
nodes = (
(424,-163,o),
(505,-78,o),
(505,57,cs),
(505,530,l),
(475,530,l),
(475,402,l),
(447,482,o),
(371,539,o),
(291,539,cs),
(155,539,o),
(70,433,o),
(70,285,cs),
(70,132,o),
(155,25,o),
(291,25,cs),
(369,25,o),
(441,78,o),
(475,159,c),
(475,57,ls),
(475,-59,o),
(405,-133,o),
(296,-133,cs),
(202,-133,o),
(133,-80,o),
(128,-4,c),
(96,-6,l),
(96,-94,o),
(184,-163,o),
(296,-163,cs)
);
},
{
closed = 1;
nodes = (
(175,55,o),
(102,150,o),
(102,285,cs),
(102,415,o),
(175,509,o),
(291,509,cs),
(396,509,o),
(478,402,o),
(478,285,cs),
(478,163,o),
(396,55,o),
(291,55,cs)
);
}
);
};
layerId = "EE2FFE84-06F1-4AFB-BBEC-60D09A436D14";
shapes = (
{
closed = 1;
nodes = (
(424,-162,o),
(505,-80,o),
(505,55,cs),
(505,530,l),
(475,530,l),
(475,402,l),
(447,482,o),
(381,542,o),
(289,542,cs),
(155,542,o),
(70,441,o),
(70,285,cs),
(70,125,o),
(155,25,o),
(289,25,cs),
(379,25,o),
(443,79,o),
(475,159,c),
(475,57,ls),
(475,-63,o),
(407,-132,o),
(292,-132,cs),
(194,-132,o),
(132,-80,o),
(128,-4,c),
(96,-6,l),
(100,-96,o),
(181,-162,o),
(292,-162,cs)
);
},
{
closed = 1;
nodes = (
(175,55,o),
(102,144,o),
(102,285,cs),
(102,423,o),
(175,512,o),
(289,512,cs),
(401,512,o),
(475,415,o),
(475,285,cs),
(475,144,o),
(401,55,o),
(289,55,cs)
);
}
);
width = 600;
},
{
anchors = (
{
name = top;
pos = (298,530);
}
);
background = {
anchors = (
{
name = top;
pos = (298,530);
}
);
shapes = (
{
closed = 1;
nodes = (
(434,-162,o),
(529,-88,o),
(529,52,cs),
(529,530,l),
(449,530,l),
(449,446,l),
(426,502,o),
(359,542,o),
(288,542,cs),
(154,542,o),
(59,436,o),
(59,285,cs),
(59,134,o),
(154,28,o),
(288,28,cs),
(353,28,o),
(417,66,o),
(445,120,c),
(445,33,ls),
(445,-42,o),
(389,-82,o),
(295,-82,cs),
(229,-82,o),
(183,-52,o),
(162,-2,c),
(74,-8,l),
(98,-101,o),
(182,-162,o),
(295,-162,cs)
);
},
{
closed = 1;
nodes = (
(204,108,o),
(147,182,o),
(147,285,cs),
(147,388,o),
(204,462,o),
(298,462,cs),
(391,462,o),
(448,388,o),
(446,285,cs),
(445,182,o),
(388,108,o),
(298,108,cs)
);
}
);
};
layerId = "574EE4B9-5C1A-4E7E-9985-C08FACB65BD8";
shapes = (
{
closed = 1;
nodes = (
(443,-162,o),
(530,-88,o),
(530,36,cs),
(530,530,l),
(450,530,l),
(450,446,l),
(426,505,o),
(361,542,o),
(287,542,cs),
(154,542,o),
(60,436,o),
(60,285,cs),
(60,134,o),
(156,28,o),
(291,28,cs),
(360,28,o),
(420,64,o),
(446,120,c),
(446,34,ls),
(446,-44,o),
(393,-82,o),
(297,-82,cs),
(215,-82,o),
(179,-52,o),
(163,-2,c),
(75,-8,l),
(97,-101,o),
(183,-162,o),
(297,-162,cs)
);
},
{
closed = 1;
nodes = (
(204,108,o),
(148,176,o),
(148,285,cs),
(148,394,o),
(202,462,o),
(295,462,cs),
(387,462,o),
(448,394,o),
(446,285,cs),
(445,176,o),
(386,108,o),
(295,108,cs)
);
}
);
width = 600;
},
{
anchors = (
{
name = top;
pos = (311,540);
}
);
background = {
anchors = (
{
name = top;
pos = (311,540);
}
);
shapes = (
{
closed = 1;
nodes = (
(468,-162,o),
(547,-82,o),
(549,84,cs),
(550,540,l),
(413,540,l),
(410,458,l),
(381,520,o),
(330,552,o),
(264,552,cs),
(143,552,o),
(60,443,o),
(60,277,cs),
(60,131,o),
(145,29,o),
(264,29,cs),
(323,29,o),
(384,60,o),
(408,107,c),
(408,58,ls),
(407,-11,o),
(374,-55,o),
(314,-55,cs),
(272,-55,o),
(242,-34,o),
(228,2,c),
(80,-8,l),
(104,-102,o),
(187,-162,o),
(314,-162,cs)
);
},
{
closed = 1;
nodes = (
(250,127,o),
(210,188,o),
(210,280,cs),
(210,371,o),
(250,431,o),
(314,431,cs),
(377,431,o),
(416,371,o),
(416,280,cs),
(416,188,o),
(377,127,o),
(314,127,cs)
);
}
);
};
layerId = "58B1DC7A-69F8-4375-AD2E-AC5103CCF536";
shapes = (
{
closed = 1;
nodes = (
(454,-162,o),
(540,-82,o),
(540,84,cs),
(540,540,l),
(402,540,l),
(398,458,l),
(369,520,o),
(320,552,o),
(254,552,cs),
(128,552,o),
(50,450,o),
(50,282,cs),
(50,131,o),
(132,28,o),
(256,28,cs),
(335,28,o),
(374,59,o),
(398,104,c),
(398,58,ls),
(398,-11,o),
(360,-48,o),
(298,-48,cs),
(256,-48,o),
(230,-34,o),
(216,2,c),
(70,-8,l),
(94,-102,o),
(170,-162,o),
(298,-162,cs)
);
},
{
closed = 1;
nodes = (
(240,138,o),
(200,190,o),
(200,282,cs),
(200,374,o),
(240,426,o),
(300,426,cs),
(360,426,o),
(398,374,o),
(398,282,cs),
(398,190,o),
(360,138,o),
(300,138,cs)
);
}
);
width = 600;
}
);
unicode = 103;
}
{
color = 5;
glyphname = h;
kernLeft = "0";
kernRight = "0";
layers = (
{
anchors = (
{
name = top;
pos = (135,710);
}
);
background = {
anchors = (
{
name = top;
pos = (135,710);
}
);
shapes = (
{
closed = 1;
nodes = (
(150,0,l),
(150,317,ls),
(150,431,o),
(213,512,o),
(324,512,cs),
(433,512,o),
(476,432,o),
(476,317,cs),
(476,0,l),
(506,0,l),
(506,341,ls),
(506,453,o),
(447,542,o),
(332,542,cs),
(236,542,o),
(153,494,o),
(146,385,c),
(150,385,l),
(150,710,l),
(120,710,l),
(120,0,l)
);
}
);
};
layerId = "EE2FFE84-06F1-4AFB-BBEC-60D09A436D14";
shapes = (
{
closed = 1;
nodes = (
(150,0,l),
(150,317,ls),
(150,431,o),
(214,512,o),
(324,512,cs),
(434,512,o),
(476,432,o),
(476,317,cs),
(476,0,l),
(506,0,l),
(506,341,ls),
(506,453,o),
(451,542,o),
(332,542,cs),
(236,542,o),
(154,489,o),
(146,385,c),
(150,385,l),
(150,710,l),
(120,710,l),
(120,0,l)
);
}
);
width = 600;
},
{
anchors = (
{
name = top;
pos = (143,710);
}
);
background = {
anchors = (
{
name = top;
pos = (143,710);
}
);
shapes = (
{
closed = 1;
nodes = (
(185,0,l),
(185,311,ls),
(185,409,o),
(240,462,o),
(325,462,cs),
(405,462,o),
(437,409,o),
(437,311,cs),
(437,0,l),
(521,0,l),
(521,341,ls),
(521,453,o),
(463,542,o),
(343,542,cs),
(267,542,o),
(196,507,o),
(172,428,c),
(185,413,l),
(185,710,l),
(101,710,l),
(101,0,l)
);
}
);
};
layerId = "574EE4B9-5C1A-4E7E-9985-C08FACB65BD8";
shapes = (
{
closed = 1;
nodes = (
(184,0,l),
(184,316,ls),
(184,414,o),
(240,468,o),
(325,468,cs),
(399,468,o),
(436,419,o),
(436,317,cs),
(436,0,l),
(520,0,l),
(520,341,ls),
(520,459,o),
(457,542,o),
(343,542,cs),
(260,542,o),
(194,503,o),
(174,415,c),
(184,413,l),
(184,710,l),
(100,710,l),
(100,0,l)
);
}
);
width = 600;
},
{
anchors = (
{
name = top;
pos = (164,723);
}
);
background = {
anchors = (
{
name = top;
pos = (164,723);
}
);
shapes = (
{
closed = 1;
nodes = (
(234,0,l),
(234,318,ls),
(234,400,o),
(264,441,o),
(315,441,cs),
(366,441,o),
(389,400,o),
(389,318,cs),
(389,0,l),
(533,0,l),
(533,347,ls),
(533,473,o),
(477,552,o),
(370,552,cs),
(304,552,o),
(246,519,o),
(221,442,c),
(234,427,l),
(234,710,l),
(93,710,l),
(93,0,l)
);
}
);
};
layerId = "58B1DC7A-69F8-4375-AD2E-AC5103CCF536";
shapes = (
{
closed = 1;
nodes = (
(230,0,l),
(230,304,ls),
(230,386,o),
(266,432,o),
(318,432,cs),
(369,432,o),
(392,400,o),
(392,318,cs),
(392,0,l),
(534,0,l),
(534,349,ls),
(534,475,o),
(477,552,o),
(372,552,cs),
(304,552,o),
(245,519,o),
(218,442,c),
(230,427,l),
(230,710,l),
(88,710,l),
(88,0,l)
);
}
);
width = 600;
}
);
unicode = 104;
}
{
color = 5;
glyphname = k;
kernLeft = "0";
kernRight = "0";
layers = (
{
anchors = (
{
name = bottom;
pos = (328,0);
},
{
name = top;
pos = (129,710);
}
);
background = {
anchors = (
{
name = bottom;
pos = (328,0);
},
{
name = top;
pos = (129,710);
}
);
shapes = (
{
closed = 1;
nodes = (
(144,0,l),
(144,156,l),
(274,283,l),
(513,0,l),
(550,0,l),
(294,301,l),
(530,530,l),
(488,530,l),
(144,195,l),
(144,710,l),
(114,710,l),
(114,0,l)
);
}
);
};
layerId = "EE2FFE84-06F1-4AFB-BBEC-60D09A436D14";
shapes = (
{
closed = 1;
nodes = (
(144,0,l),
(144,156,l),
(275,284,l),
(514,0,l),
(550,0,l),
(295,302,l),
(530,530,l),
(490,530,l),
(144,194,l),
(144,710,l),
(114,710,l),
(114,0,l)
);
}
);
width = 600;
},
{
anchors = (
{
name = bottom;
pos = (274,0);
},
{
name = top;
pos = (274,530);
}
);
associatedMasterId = "EE2FFE84-06F1-4AFB-BBEC-60D09A436D14";
background = {
shapes = (
{
closed = 1;
nodes = (
(42,0,l),
(128,0,l),
(128,710,l),
(42,710,l)
);
},
{
closed = 1;
nodes = (
(506,0,l),
(283,314,l),
(264,278,l),
(496,530,l),
(379,530,l),
(74,186,l),
(74,59,l),
(250,265,l),
(218,265,l),
(400,0,l)
);
}
);
};
layerId = "057BC141-43A0-44B5-9F16-EF09775895DB";
name = "24 de feb. de 23 10:41";
shapes = (
{
closed = 1;
nodes = (
(60,0,l),
(90,0,l),
(90,710,l),
(60,710,l)
);
},
{
closed = 1;
nodes = (
(476,530,l),
(434,530,l),
(74,179,l),
(74,141,l)
);
},
{
closed = 1;
nodes = (
(211,294,l),
(459,0,l),
(496,0,l),
(229,314,l)
);
}
);
width = 536;
},
{
anchors = (
{
name = bottom;
pos = (309,0);
},
{
name = top;
pos = (133,710);
}
);
background = {
anchors = (
{
name = bottom;
pos = (309,0);
},
{
name = top;
pos = (133,710);
}
);
shapes = (
{
closed = 1;
nodes = (
(175,0,l),
(175,123,l),
(280,245,l),
(450,0,l),
(554,0,l),
(336,305,l),
(544,530,l),
(429,530,l),
(175,245,l),
(175,710,l),
(91,710,l),
(91,0,l)
);
}
);
};
layerId = "574EE4B9-5C1A-4E7E-9985-C08FACB65BD8";
shapes = (
{
closed = 1;
nodes = (
(174,0,l),
(174,138,l),
(278,248,l),
(452,0,l),
(554,0,l),
(335,305,l),
(544,530,l),
(432,530,l),
(174,245,l),
(174,710,l),
(90,710,l),
(90,0,l)
);
}
);
width = 600;
},
{
anchors = (
{
name = bottom;
pos = (298,0);
},
{
name = top;
pos = (135,710);
}
);
background = {
anchors = (
{
name = bottom;
pos = (298,0);
},
{
name = top;
pos = (129,710);
}
);
shapes = (
{
closed = 1;
nodes = (
(199,0,l),
(199,137,l),
(259,209,l),
(400,0,l),
(572,0,l),
(354,312,l),
(560,540,l),
(371,540,l),
(199,339,l),
(199,710,l),
(58,710,l),
(58,0,l)
);
}
);
};
layerId = "58B1DC7A-69F8-4375-AD2E-AC5103CCF536";
shapes = (
{
closed = 1;
nodes = (
(206,0,l),
(206,148,l),
(264,212,l),
(400,0,l),
(572,0,l),
(356,310,l),
(564,540,l),
(396,540,l),
(206,324,l),
(206,710,l),
(64,710,l),
(64,0,l)
);
}
);
width = 600;
}
);
unicode = 107;
}
{
color = 5;
glyphname = l;
kernLeft = "0";
kernRight = "0";
layers = (
{
anchors = (
{
name = bottom;
pos = (336,0);
},
{
name = top;
pos = (335,710);
}
);
associatedMasterId = "EE2FFE84-06F1-4AFB-BBEC-60D09A436D14";
background = {
shapes = (
{
closed = 1;
nodes = (
(-26,104,l),
(-26,42,o),
(16,0,o),
(78,0,c),
(138,0,l),
(138,76,l),
(92,76,l),
(70,76,o),
(60,86,o),
(60,108,cs),
(60,710,l),
(-26,710,l)
);
}
);
};
layerId = "EEC4434F-1B6B-4D75-BA9C-C3744B1E8359";
name = "10 de may. de 23 10:57";
shapes = (
{
closed = 1;
nodes = (
(321,0,l),
(351,0,l),
(351,710,l),
(321,710,l)
);
},
{
closed = 1;
nodes = (
(122,0,l),
(519,0,l),
(519,30,l),
(122,30,l)
);
},
{
closed = 1;
nodes = (
(122,680,l),
(339,680,l),
(339,710,l),
(122,710,l)
);
}
);
width = 600;
},
{
anchors = (
{
name = bottom;
pos = (300,0);
},
{
name = center;
pos = (300,265);
},
{
name = top;
pos = (320,710);
},
{
name = topright;
pos = (400,530);
}
);
background = {
anchors = (
{
name = bottom;
pos = (326,0);
},
{
name = top;
pos = (326,710);
}
);
shapes = (
{
closed = 1;
nodes = (
(341,0,l),
(341,613,ls),
(341,680,o),
(311,710,o),
(243,710,cs),
(131,710,l),
(131,683,l),
(243,683,ls),
(292,683,o),
(311,664,o),
(311,613,cs),
(311,0,l)
);
},
{
closed = 1;
nodes = (
(539,0,l),
(539,30,l),
(102,30,l),
(102,0,l)
);
}
);
};
layerId = "EE2FFE84-06F1-4AFB-BBEC-60D09A436D14";
name = Thin;
shapes = (
{
closed = 1;
nodes = (
(350,0,l),
(350,600,ls),
(350,668,o),
(308,710,o),
(240,710,cs),
(120,710,l),
(120,682,l),
(242,682,ls),
(292,682,o),
(320,654,o),
(320,604,cs),
(320,0,l)
);
},
{
closed = 1;
nodes = (
(540,0,l),
(540,28,l),
(100,28,l),
(100,0,l)
);
}
);
width = 600;
},
{
anchors = (
{
name = bottom;
pos = (300,0);
},
{
name = center;
pos = (300,265);
},
{
name = top;
pos = (300,710);
},
{
name = topright;
pos = (400,530);
}
);
background = {
anchors = (
{
name = bottom;
pos = (330,0);
},
{
name = top;
pos = (330,710);
}
);
shapes = (
{
closed = 1;
nodes = (
(372,0,l),
(372,574,ls),
(372,662,o),
(321,710,o),
(229,710,cs),
(103,710,l),
(103,636,l),
(229,636,ls),
(270,636,o),
(288,617,o),
(288,574,cs),
(288,0,l)
);
},
{
closed = 1;
nodes = (
(558,0,l),
(558,74,l),
(83,74,l),
(83,0,l)
);
}
);
};
layerId = "574EE4B9-5C1A-4E7E-9985-C08FACB65BD8";
name = Thin;
shapes = (
{
closed = 1;
nodes = (
(377,0,l),
(377,562,ls),
(377,659,o),
(326,710,o),
(229,710,cs),
(100,710,l),
(100,636,l),
(225,636,ls),
(268,636,o),
(293,611,o),
(293,568,cs),
(293,0,l)
);
},
{
closed = 1;
nodes = (
(560,0,l),
(560,74,l),
(80,74,l),
(80,0,l)
);
}
);
width = 600;
},
{
anchors = (
{
name = bottom;
pos = (330,0);
},
{
name = center;
pos = (330,270);
},
{
name = top;
pos = (300,710);
},
{
name = topright;
pos = (415,540);
}
);
background = {
anchors = (
{
name = bottom;
pos = (326,0);
},
{
name = top;
pos = (326,710);
}
);
shapes = (
{
closed = 1;
nodes = (
(398,0,l),
(398,526,ls),
(398,648,o),
(332,710,o),
(203,710,cs),
(82,710,l),
(82,585,l),
(203,585,ls),
(240,585,o),
(257,565,o),
(257,526,cs),
(257,0,l)
);
},
{
closed = 1;
nodes = (
(559,0,l),
(559,126,l),
(75,126,l),
(75,0,l)
);
}
);
};
layerId = "58B1DC7A-69F8-4375-AD2E-AC5103CCF536";
name = Thin;
shapes = (
{
closed = 1;
nodes = (
(400,0,l),
(400,520,ls),
(400,647,o),
(337,710,o),
(210,710,cs),
(80,710,l),
(80,590,l),
(200,590,ls),
(238,590,o),
(258,570,o),
(258,532,cs),
(258,0,l)
);
},
{
closed = 1;
nodes = (
(580,0,l),
(580,120,l),
(60,120,l),
(60,0,l)
);
}
);
width = 600;
}
);
unicode = 108;
}
{
glyphname = m;
kernLeft = "0";
kernRight = "0";
layers = (
{
anchors = (
{
name = bottom;
pos = (303,0);
},
{
name = top;
pos = (309,530);
}
);
background = {
shapes = (
{
closed = 1;
nodes = (
(47,0,l),
(133,0,l),
(133,317,ls),
(133,417,o),
(155,466,o),
(198,466,cs),
(245,466,o),
(260,429,o),
(260,317,cs),
(260,0,l),
(346,0,l),
(346,317,ls),
(346,417,o),
(370,466,o),
(418,466,cs),
(459,466,o),
(473,429,o),
(473,317,cs),
(473,0,l),
(559,0,l),
(559,341,ls),
(559,470,o),
(513,542,o),
(433,542,cs),
(382,542,o),
(348,515,o),
(327,444,c),
(311,507,o),
(274,542,o),
(227,542,cs),
(181,542,o),
(150,518,o),
(128,458,c),
(125,530,l),
(47,530,l)
);
}
);
};
layerId = "EE2FFE84-06F1-4AFB-BBEC-60D09A436D14";
shapes = (
{
closed = 1;
nodes = (
(58,0,l),
(88,0,l),
(88,333,ls),
(88,433,o),
(138,512,o),
(202,512,cs),
(260,512,o),
(288,437,o),
(288,333,cs),
(288,0,l),
(318,0,l),
(318,333,ls),
(318,433,o),
(368,512,o),
(432,512,cs),
(494,512,o),
(518,462,o),
(518,333,cs),
(518,0,l),
(548,0,l),
(548,333,ls),
(548,478,o),
(513,542,o),
(434,542,cs),
(373,542,o),
(331,497,o),
(309,409,c),
(295,497,o),
(262,542,o),
(207,542,cs),
(149,542,o),
(110,505,o),
(88,430,c),
(86,530,l),
(58,530,l)
);
}
);
width = 600;
},
{
associatedMasterId = "EE2FFE84-06F1-4AFB-BBEC-60D09A436D14";
background = {
shapes = (
{
closed = 1;
nodes = (
(11,0,l),
(97,0,l),
(97,317,ls),
(97,410,o),
(145,466,o),
(226,466,cs),
(289,466,o),
(327,410,o),
(327,317,cs),
(327,0,l),
(413,0,l),
(413,317,ls),
(413,412,o),
(460,466,o),
(542,466,cs),
(606,466,o),
(643,412,o),
(643,317,cs),
(643,0,l),
(729,0,l),
(729,341,ls),
(729,469,o),
(667,542,o),
(560,542,cs),
(465,542,o),
(407,491,o),
(391,400,c),
(407,399,l),
(392,489,o),
(332,542,o),
(244,542,cs),
(159,542,o),
(100,494,o),
(83,410,c),
(94,397,l),
(89,530,l),
(11,530,l)
);
}
);
};
layerId = "09ED80C9-A39B-4FA7-92C4-302824AFB0B4";
name = "8 de feb. de 23 15:09";
shapes = (
{
closed = 1;
nodes = (
(40,0,l),
(70,0,l),
(70,317,ls),
(70,426,o),
(142,512,o),
(235,512,cs),
(314,512,o),
(360,437,o),
(360,317,cs),
(360,0,l),
(390,0,l),
(390,341,ls),
(390,459,o),
(327,542,o),
(238,542,cs),
(154,542,o),
(88,488,o),
(70,415,c),
(68,530,l),
(40,530,l)
);
},
{
closed = 1;
nodes = (
(390,308,l),
(390,422,o),
(462,512,o),
(554,512,cs),
(635,512,o),
(686,436,o),
(686,314,cs),
(686,0,l),
(716,0,l),
(716,338,ls),
(716,458,o),
(651,542,o),
(558,542,cs),
(473,542,o),
(406,486,o),
(384,397,c)
);
}
);
width = 756;
},
{
anchors = (
{
name = bottom;
pos = (303,0);
},
{
name = top;
pos = (303,530);
}
);
associatedMasterId = "EE2FFE84-06F1-4AFB-BBEC-60D09A436D14";
background = {
shapes = (
{
closed = 1;
nodes = (
(47,0,l),
(133,0,l),
(133,317,ls),
(133,417,o),
(155,466,o),
(198,466,cs),
(245,466,o),
(260,429,o),
(260,317,cs),
(260,0,l),
(346,0,l),
(346,317,ls),
(346,417,o),
(370,466,o),
(418,466,cs),
(459,466,o),
(473,429,o),
(473,317,cs),
(473,0,l),
(559,0,l),
(559,341,ls),
(559,470,o),
(513,542,o),
(433,542,cs),
(382,542,o),
(348,515,o),
(327,444,c),
(311,507,o),
(274,542,o),
(227,542,cs),
(181,542,o),
(150,518,o),
(128,458,c),
(125,530,l),
(47,530,l)
);
}
);
};
layerId = "1104E8F9-B2E6-49B0-9F47-FFD2C3FAC9ED";
name = "2 de jul. de 23 17:28";
shapes = (
{
closed = 1;
nodes = (
(58,0,l),
(88,0,l),
(88,317,ls),
(88,426,o),
(136,512,o),
(195,512,cs),
(253,512,o),
(288,437,o),
(288,317,cs),
(288,0,l),
(318,0,l),
(318,308,ls),
(318,428,o),
(364,512,o),
(425,512,cs),
(492,512,o),
(518,452,o),
(518,314,cs),
(518,0,l),
(548,0,l),
(548,338,ls),
(548,474,o),
(508,542,o),
(426,542,cs),
(370,542,o),
(331,497,o),
(309,407,c),
(289,497,o),
(252,542,o),
(199,542,cs),
(145,542,o),
(111,506,o),
(88,425,c),
(86,530,l),
(58,530,l)
);
}
);
width = 600;
},
{
anchors = (
{
name = bottom;
pos = (303,0);
},
{
name = top;
pos = (326,530);
}
);
layerId = "574EE4B9-5C1A-4E7E-9985-C08FACB65BD8";
shapes = (
{
closed = 1;
nodes = (
(47,0,l),
(132,0,l),
(132,318,ls),
(132,414,o),
(157,468,o),
(198,468,cs),
(244,468,o),
(261,425,o),
(261,318,cs),
(261,0,l),
(345,0,l),
(345,318,ls),
(345,414,o),
(372,468,o),
(418,468,cs),
(459,468,o),
(475,426,o),
(475,318,cs),
(475,0,l),
(559,0,l),
(559,318,ls),
(559,474,o),
(524,542,o),
(443,542,cs),
(388,542,o),
(345,504,o),
(326,443,c),
(310,512,o),
(282,542,o),
(236,542,cs),
(183,542,o),
(147,512,o),
(127,457,c),
(124,530,l),
(47,530,l)
);
}
);
width = 600;
},
{
anchors = (
{
name = bottom;
pos = (301,0);
},
{
name = top;
pos = (325,530);
}
);
layerId = "58B1DC7A-69F8-4375-AD2E-AC5103CCF536";
shapes = (
{
closed = 1;
nodes = (
(24,0,l),
(161,0,l),
(161,346,ls),
(161,408,o),
(173,434,o),
(198,434,cs),
(223,434,o),
(232,411,o),
(232,346,cs),
(232,0,l),
(369,0,l),
(369,346,ls),
(369,408,o),
(382,434,o),
(409,434,cs),
(433,434,o),
(441,411,o),
(441,346,cs),
(441,0,l),
(578,0,l),
(578,346,ls),
(578,471,o),
(535,542,o),
(455,542,cs),
(403,542,o),
(371,511,o),
(352,452,c),
(334,513,o),
(301,542,o),
(251,542,cs),
(204,542,o),
(168,513,o),
(147,456,c),
(143,530,l),
(24,530,l)
);
}
);
width = 600;
}
);
unicode = 109;
}
{
color = 5;
glyphname = n;
kernLeft = "0";
kernRight = "0";
layers = (
{
anchors = (
{
name = bottom;
pos = (303,0);
},
{
name = top;
pos = (303,530);
}
);
background = {
anchors = (
{
name = bottom;
pos = (303,0);
},
{
name = top;
pos = (303,530);
}
);
shapes = (
{
closed = 1;
nodes = (
(140,0,l),
(140,317,ls),
(140,431,o),
(203,512,o),
(314,512,cs),
(423,512,o),
(466,432,o),
(466,317,cs),
(466,0,l),
(496,0,l),
(496,341,ls),
(496,453,o),
(437,542,o),
(322,542,cs),
(226,542,o),
(143,494,o),
(136,385,c),
(141,385,l),
(138,530,l),
(110,530,l),
(110,0,l)
);
}
);
};
layerId = "EE2FFE84-06F1-4AFB-BBEC-60D09A436D14";
shapes = (
{
closed = 1;
nodes = (
(140,0,l),
(140,317,ls),
(140,431,o),
(205,512,o),
(315,512,cs),
(425,512,o),
(466,431,o),
(466,317,cs),
(466,0,l),
(496,0,l),
(496,341,ls),
(496,453,o),
(441,542,o),
(321,542,cs),
(226,542,o),
(145,488,o),
(135,384,c),
(140,384,l),
(138,530,l),
(110,530,l),
(110,0,l)
);
}
);
width = 600;
},
{
anchors = (
{
name = bottom;
pos = (306,0);
},
{
name = top;
pos = (306,530);
}
);
background = {
anchors = (
{
name = bottom;
pos = (306,0);
},
{
name = top;
pos = (306,530);
}
);
shapes = (
{
closed = 1;
nodes = (
(180,0,l),
(180,317,ls),
(180,415,o),
(235,468,o),
(320,468,cs),
(400,468,o),
(432,415,o),
(432,317,cs),
(432,0,l),
(516,0,l),
(516,341,ls),
(516,453,o),
(458,542,o),
(337,542,cs),
(254,542,o),
(185,500,o),
(165,406,c),
(176,395,l),
(172,530,l),
(96,530,l),
(96,0,l)
);
}
);
};
layerId = "574EE4B9-5C1A-4E7E-9985-C08FACB65BD8";
shapes = (
{
closed = 1;
nodes = (
(180,0,l),
(180,317,ls),
(180,415,o),
(238,468,o),
(320,468,cs),
(400,468,o),
(432,415,o),
(432,317,cs),
(432,0,l),
(516,0,l),
(516,341,ls),
(516,453,o),
(459,542,o),
(338,542,cs),
(255,542,o),
(186,498,o),
(166,404,c),
(176,395,l),
(173,530,l),
(96,530,l),
(96,0,l)
);
}
);
width = 600;
},
{
anchors = (
{
name = bottom;
pos = (308,0);
},
{
name = top;
pos = (308,540);
}
);
background = {
anchors = (
{
name = bottom;
pos = (308,0);
},
{
name = top;
pos = (308,540);
}
);
shapes = (
{
closed = 1;
nodes = (
(233,0,l),
(233,320,ls),
(233,402,o),
(264,443,o),
(316,443,cs),
(366,443,o),
(391,402,o),
(391,320,cs),
(391,0,l),
(532,0,l),
(532,347,ls),
(532,473,o),
(475,552,o),
(368,552,cs),
(278,552,o),
(218,490,o),
(206,372,c),
(232,369,l),
(222,540,l),
(92,540,l),
(92,0,l)
);
}
);
};
layerId = "58B1DC7A-69F8-4375-AD2E-AC5103CCF536";
shapes = (
{
closed = 1;
nodes = (
(230,0,l),
(230,304,ls),
(230,388,o),
(270,432,o),
(318,432,cs),
(372,432,o),
(392,396,o),
(392,314,cs),
(392,0,l),
(534,0,l),
(534,351,ls),
(534,473,o),
(478,552,o),
(370,552,cs),
(288,552,o),
(222,502,o),
(204,390,c),
(220,386,l),
(215,540,l),
(88,540,l),
(88,0,l)
);
}
);
width = 600;
}
);
unicode = 110;
}
{
glyphname = o;
kernLeft = "0";
kernRight = "0";
layers = (
{
anchors = (
{
name = bottom;
pos = (300,0);
},
{
name = top;
pos = (300,530);
}
);
background = {
shapes = (
{
closed = 1;
nodes = (
(372,-12,o),
(468,96,o),
(468,265,cs),
(468,434,o),
(372,542,o),
(225,542,cs),
(78,542,o),
(-18,434,o),
(-18,265,cs),
(-18,96,o),
(78,-12,o),
(225,-12,cs)
);
},
{
closed = 1;
nodes = (
(128,70,o),
(72,143,o),
(72,265,cs),
(72,387,o),
(128,460,o),
(225,460,cs),
(322,460,o),
(378,387,o),
(378,265,cs),
(378,143,o),
(322,70,o),
(225,70,cs)
);
}
);
};
layerId = "EE2FFE84-06F1-4AFB-BBEC-60D09A436D14";
shapes = (
{
closed = 1;
nodes = (
(450,-12,o),
(525,115,o),
(525,265,cs),
(525,415,o),
(450,542,o),
(300,542,cs),
(150,542,o),
(75,415,o),
(75,265,cs),
(75,115,o),
(150,-12,o),
(300,-12,cs)
);
},
{
closed = 1;
nodes = (
(182,18,o),
(107,113,o),
(107,265,cs),
(107,417,o),
(182,512,o),
(300,512,cs),
(418,512,o),
(493,417,o),
(493,265,cs),
(493,113,o),
(418,18,o),
(300,18,cs)
);
}
);
width = 600;
},
{
anchors = (
{
name = bottom;
pos = (300,0);
},
{
name = top;
pos = (300,530);
}
);
layerId = "574EE4B9-5C1A-4E7E-9985-C08FACB65BD8";
shapes = (
{
closed = 1;
nodes = (
(447,-12,o),
(542,97,o),
(542,265,cs),
(542,433,o),
(447,542,o),
(300,542,cs),
(153,542,o),
(58,433,o),
(58,265,cs),
(58,97,o),
(153,-12,o),
(300,-12,cs)
);
},
{
closed = 1;
nodes = (
(202,68,o),
(146,142,o),
(146,265,cs),
(146,388,o),
(202,462,o),
(300,462,cs),
(398,462,o),
(454,388,o),
(454,265,cs),
(454,142,o),
(398,68,o),
(300,68,cs)
);
}
);
width = 600;
},
{
anchors = (
{
name = bottom;
pos = (300,0);
},
{
name = top;
pos = (300,530);
}
);
layerId = "58B1DC7A-69F8-4375-AD2E-AC5103CCF536";
shapes = (
{
closed = 1;
nodes = (
(448,-12,o),
(557,101,o),
(557,265,cs),
(557,429,o),
(448,542,o),
(300,542,cs),
(152,542,o),
(43,429,o),
(43,265,cs),
(43,101,o),
(152,-12,o),
(300,-12,cs)
);
},
{
closed = 1;
nodes = (
(234,111,o),
(192,170,o),
(192,265,cs),
(192,360,o),
(234,419,o),
(300,419,cs),
(366,419,o),
(408,360,o),
(408,265,cs),
(408,170,o),
(366,111,o),
(300,111,cs)
);
}
);
width = 600;
}
);
unicode = 111;
}
{
color = 4;
glyphname = p;
kernLeft = "0";
kernRight = "0";
layers = (
{
background = {
shapes = (
{
closed = 1;
nodes = (
(66,-150,l),
(66,112,l),
(54,98,l),
(79,26,o),
(138,-12,o),
(223,-12,cs),
(382,-12,o),
(452,120,o),
(452,265,cs),
(452,410,o),
(382,542,o),
(223,542,cs),
(138,542,o),
(79,504,o),
(53,435,c),
(62,418,l),
(58,530,l),
(-20,530,l),
(-20,-150,l)
);
},
{
closed = 1;
nodes = (
(56,363,o),
(100,460,o),
(208,460,cs),
(317,460,o),
(360,364,o),
(360,265,cs),
(360,166,o),
(317,70,o),
(208,70,cs),
(100,70,o),
(56,167,o),
(56,265,cs)
);
}
);
};
layerId = "EE2FFE84-06F1-4AFB-BBEC-60D09A436D14";
shapes = (
{
closed = 1;
nodes = (
(120,-150,l),
(120,173,l),
(112,158,l),
(129,63,o),
(214,-9,o),
(304,-9,cs),
(440,-9,o),
(525,97,o),
(525,265,cs),
(525,435,o),
(440,542,o),
(304,542,cs),
(214,542,o),
(134,473,o),
(104,367,c),
(116,355,l),
(112,530,l),
(90,530,l),
(90,-150,l)
);
},
{
closed = 1;
nodes = (
(117,404,o),
(199,513,o),
(304,513,cs),
(420,513,o),
(493,417,o),
(493,265,cs),
(493,115,o),
(420,21,o),
(304,21,cs),
(199,21,o),
(117,128,o),
(117,265,cs)
);
}
);
width = 600;
},
{
layerId = "574EE4B9-5C1A-4E7E-9985-C08FACB65BD8";
shapes = (
{
closed = 1;
nodes = (
(164,-150,l),
(164,114,l),
(153,100,l),
(177,27,o),
(237,-12,o),
(322,-12,cs),
(481,-12,o),
(551,119,o),
(551,265,cs),
(551,411,o),
(481,542,o),
(322,542,cs),
(237,542,o),
(178,503,o),
(151,433,c),
(160,416,l),
(156,530,l),
(80,530,l),
(80,-150,l)
);
},
{
closed = 1;
nodes = (
(155,364,o),
(200,462,o),
(308,462,cs),
(417,462,o),
(461,366,o),
(461,265,cs),
(461,164,o),
(417,68,o),
(308,68,cs),
(200,68,o),
(155,166,o),
(155,265,cs)
);
}
);
width = 600;
},
{
layerId = "58B1DC7A-69F8-4375-AD2E-AC5103CCF536";
shapes = (
{
closed = 1;
nodes = (
(208,-150,l),
(208,121,l),
(192,108,l),
(226,31,o),
(276,-12,o),
(353,-12,cs),
(480,-12,o),
(556,102,o),
(556,265,cs),
(556,428,o),
(480,542,o),
(353,542,cs),
(271,542,o),
(222,499,o),
(193,424,c),
(207,410,l),
(202,530,l),
(66,530,l),
(66,-150,l)
);
},
{
closed = 1;
nodes = (
(198,353,o),
(234,419,o),
(302,419,cs),
(370,419,o),
(406,354,o),
(406,265,cs),
(406,176,o),
(370,111,o),
(302,111,cs),
(234,111,o),
(198,177,o),
(198,265,cs)
);
}
);
width = 600;
}
);
unicode = 112;
}
{
glyphname = r;
kernLeft = "0";
kernRight = "0";
layers = (
{
anchors = (
{
name = bottom;
pos = (268,0);
},
{
name = top;
pos = (319,530);
}
);
background = {
shapes = (
{
closed = 1;
nodes = (
(226,0,l),
(312,0,l),
(312,316,ls),
(312,407,o),
(349,454,o),
(430,454,cs),
(542,454,l),
(542,530,l),
(430,530,ls),
(350,530,o),
(305,490,o),
(293,400,c),
(302,392,l),
(292,530,l),
(226,530,l)
);
},
{
closed = 1;
nodes = (
(88,454,l),
(274,454,l),
(274,530,l),
(88,530,l)
);
},
{
closed = 1;
nodes = (
(88,0,l),
(485,0,l),
(485,76,l),
(88,76,l)
);
}
);
};
layerId = "EE2FFE84-06F1-4AFB-BBEC-60D09A436D14";
shapes = (
{
closed = 1;
nodes = (
(283,0,l),
(283,316,ls),
(283,421,o),
(341,503,o),
(427,503,cs),
(521,503,l),
(521,530,l),
(427,530,ls),
(344,530,o),
(293,472,o),
(268,370,c),
(280,360,l),
(275,530,l),
(253,530,l),
(253,0,l)
);
},
{
closed = 1;
nodes = (
(466,0,l),
(466,30,l),
(109,30,l),
(109,0,l)
);
},
{
closed = 1;
nodes = (
(268,500,l),
(268,530,l),
(109,530,l),
(109,500,l)
);
}
);
width = 600;
},
{
anchors = (
{
name = bottom;
pos = (269,0);
},
{
name = top;
pos = (339,530);
}
);
layerId = "574EE4B9-5C1A-4E7E-9985-C08FACB65BD8";
shapes = (
{
closed = 1;
nodes = (
(311,0,l),
(311,316,ls),
(311,407,o),
(349,456,o),
(430,456,cs),
(536,456,l),
(536,530,l),
(430,530,ls),
(350,530,o),
(305,489,o),
(292,399,c),
(301,391,l),
(291,530,l),
(227,530,l),
(227,0,l)
);
},
{
closed = 1;
nodes = (
(484,0,l),
(484,74,l),
(89,74,l),
(89,0,l)
);
},
{
closed = 1;
nodes = (
(274,456,l),
(274,530,l),
(89,530,l),
(89,456,l)
);
}
);
width = 600;
},
{
anchors = (
{
name = bottom;
pos = (276,0);
},
{
name = top;
pos = (340,530);
}
);
layerId = "58B1DC7A-69F8-4375-AD2E-AC5103CCF536";
shapes = (
{
closed = 1;
nodes = (
(345,0,l),
(345,302,ls),
(345,375,o),
(373,405,o),
(447,405,cs),
(544,405,l),
(544,530,l),
(430,530,ls),
(350,530,o),
(305,490,o),
(293,400,c),
(302,392,l),
(290,530,l),
(203,530,l),
(203,0,l)
);
},
{
closed = 1;
nodes = (
(499,0,l),
(499,125,l),
(74,125,l),
(74,0,l)
);
},
{
closed = 1;
nodes = (
(274,405,l),
(274,530,l),
(74,530,l),
(74,405,l)
);
}
);
width = 600;
}
);
unicode = 114;
}
{
glyphname = s;
kernLeft = "0";
kernRight = "0";
layers = (
{
anchors = (
{
name = bottom;
pos = (308,0);
},
{
name = top;
pos = (298,530);
}
);
background = {
shapes = (
{
closed = 1;
nodes = (
(418,458,o),
(327,542,o),
(202,542,cs),
(94,542,o),
(-2,482,o),
(-2,374,cs),
(-2,276,o),
(102,242,o),
(198,219,cs),
(254,206,o),
(328,198,o),
(328,140,cs),
(328,84,o),
(267,70,o),
(211,70,cs),
(122,70,o),
(57,129,o),
(70,217,c),
(134,178,l),
(-58,164,l),
(-17,217,l),
(-39,79,o),
(71,-12,o),
(211,-12,cs),
(315,-12,o),
(418,31,o),
(418,135,cs),
(418,237,o),
(312,269,o),
(213,294,cs),
(157,309,o),
(88,321,o),
(88,379,cs),
(88,433,o),
(139,460,o),
(193,460,cs),
(272,460,o),
(336,412,o),
(332,333,c),
(300,364,l),
(438,374,l),
(418,333,l)
);
}
);
};
layerId = "EE2FFE84-06F1-4AFB-BBEC-60D09A436D14";
shapes = (
{
closed = 1;
nodes = (
(428,-12,o),
(504,40,o),
(504,130,cs),
(504,204,o),
(439,239,o),
(309,272,cs),
(191,304,o),
(149,338,o),
(146,392,cs),
(142,462,o),
(201,512,o),
(289,512,cs),
(379,512,o),
(444,461,o),
(458,379,c),
(489,385,l),
(474,477,o),
(395,542,o),
(298,542,cs),
(186,542,o),
(110,480,o),
(114,392,cs),
(117,321,o),
(171,283,o),
(294,246,cs),
(364,225,o),
(472,208,o),
(472,130,cs),
(472,55,o),
(408,18,o),
(307,18,cs),
(206,18,o),
(127,80,o),
(127,159,c),
(96,155,l),
(97,61,o),
(190,-12,o),
(307,-12,cs)
);
}
);
width = 600;
},
{
anchors = (
{
name = bottom;
pos = (302,0);
},
{
name = top;
pos = (302,530);
}
);
layerId = "574EE4B9-5C1A-4E7E-9985-C08FACB65BD8";
shapes = (
{
closed = 1;
nodes = (
(415,-12,o),
(518,31,o),
(518,135,cs),
(518,236,o),
(413,268,o),
(313,293,cs),
(255,309,o),
(187,322,o),
(187,379,cs),
(186,434,o),
(238,462,o),
(293,462,cs),
(361,462,o),
(418,426,o),
(430,366,c),
(514,372,l),
(497,475,o),
(412,542,o),
(302,542,cs),
(194,542,o),
(98,482,o),
(99,375,cs),
(99,278,o),
(201,243,o),
(298,220,cs),
(354,207,o),
(429,198,o),
(429,140,cs),
(429,83,o),
(368,68,o),
(311,68,cs),
(237,68,o),
(179,109,o),
(169,173,c),
(82,167,l),
(89,57,o),
(189,-12,o),
(311,-12,cs)
);
}
);
width = 600;
},
{
anchors = (
{
name = bottom;
pos = (302,0);
},
{
name = top;
pos = (302,530);
}
);
layerId = "58B1DC7A-69F8-4375-AD2E-AC5103CCF536";
shapes = (
{
closed = 1;
nodes = (
(445,-12,o),
(532,42,o),
(532,146,cs),
(532,233,o),
(452,290,o),
(344,313,cs),
(269,330,o),
(229,340,o),
(226,373,cs),
(223,403,o),
(253,419,o),
(293,419,cs),
(337,419,o),
(367,400,o),
(374,358,c),
(529,364,l),
(513,473,o),
(419,542,o),
(302,542,cs),
(173,542,o),
(77,476,o),
(77,374,cs),
(77,288,o),
(157,236,o),
(274,208,cs),
(343,191,o),
(383,179,o),
(383,150,cs),
(383,122,o),
(354,111,o),
(311,111,cs),
(261,111,o),
(224,135,o),
(220,179,c),
(67,173,l),
(75,61,o),
(177,-12,o),
(311,-12,cs)
);
}
);
width = 600;
}
);
unicode = 115;
}
{
glyphname = t;
kernLeft = "0";
kernRight = "0";
layers = (
{
anchors = (
{
name = bottom;
pos = (322,0);
}
);
background = {
shapes = (
{
closed = 1;
nodes = (
(219,147,l),
(219,58,o),
(264,0,o),
(373,0,c),
(505,0,l),
(505,76,l),
(373,76,l),
(329,76,o),
(305,103,o),
(305,147,cs),
(305,650,l),
(219,650,l)
);
},
{
closed = 1;
nodes = (
(77,424,l),
(507,424,l),
(507,500,l),
(77,500,l)
);
}
);
};
layerId = "EE2FFE84-06F1-4AFB-BBEC-60D09A436D14";
shapes = (
{
closed = 1;
nodes = (
(495,0,l),
(495,27,l),
(354,27,ls),
(306,27,o),
(276,57,o),
(276,107,cs),
(276,670,l),
(246,670,l),
(246,112,ls),
(246,43,o),
(289,0,o),
(358,0,cs)
);
},
{
closed = 1;
nodes = (
(495,500,l),
(495,530,l),
(88,530,l),
(88,500,l)
);
}
);
width = 600;
},
{
anchors = (
{
name = bottom;
pos = (318,0);
}
);
layerId = "574EE4B9-5C1A-4E7E-9985-C08FACB65BD8";
shapes = (
{
closed = 1;
nodes = (
(510,0,l),
(510,74,l),
(368,74,ls),
(323,74,o),
(299,101,o),
(299,146,cs),
(299,670,l),
(215,670,l),
(215,146,ls),
(215,58,o),
(260,0,o),
(368,0,cs)
);
},
{
closed = 1;
nodes = (
(511,456,l),
(511,530,l),
(63,530,l),
(63,456,l)
);
}
);
width = 600;
},
{
anchors = (
{
name = bottom;
pos = (314,0);
}
);
layerId = "58B1DC7A-69F8-4375-AD2E-AC5103CCF536";
shapes = (
{
closed = 1;
nodes = (
(528,0,l),
(528,125,l),
(407,125,ls),
(363,125,o),
(339,152,o),
(339,197,cs),
(339,670,l),
(198,670,l),
(198,175,ls),
(198,61,o),
(256,0,o),
(380,0,cs)
);
},
{
closed = 1;
nodes = (
(530,405,l),
(530,530,l),
(52,530,l),
(52,405,l)
);
}
);
width = 600;
}
);
unicode = 116;
}
{
color = 5;
glyphname = u;
kernLeft = "0";
kernRight = "0";
layers = (
{
anchors = (
{
name = bottom;
pos = (293,0);
},
{
name = ogonek;
pos = (486,0);
},
{
name = top;
pos = (293,530);
}
);
background = {
anchors = (
{
name = bottom;
pos = (293,0);
},
{
name = ogonek;
pos = (486,0);
},
{
name = top;
pos = (293,530);
}
);
shapes = (
{
closed = 1;
nodes = (
(370,-12,o),
(453,36,o),
(460,145,c),
(455,145,l),
(458,0,l),
(486,0,l),
(486,530,l),
(456,530,l),
(456,213,ls),
(456,99,o),
(393,18,o),
(282,18,cs),
(173,18,o),
(130,98,o),
(130,213,cs),
(130,530,l),
(100,530,l),
(100,189,ls),
(100,77,o),
(159,-12,o),
(274,-12,cs)
);
}
);
};
layerId = "EE2FFE84-06F1-4AFB-BBEC-60D09A436D14";
shapes = (
{
closed = 1;
nodes = (
(381,-12,o),
(451,46,o),
(462,145,c),
(457,145,l),
(460,0,l),
(486,0,l),
(486,530,l),
(456,530,l),
(456,213,ls),
(456,94,o),
(388,18,o),
(282,18,cs),
(184,18,o),
(130,81,o),
(130,202,cs),
(130,530,l),
(100,530,l),
(100,189,ls),
(100,63,o),
(168,-12,o),
(274,-12,cs)
);
}
);
width = 600;
},
{
anchors = (
{
name = bottom;
pos = (293,0);
},
{
name = ogonek;
pos = (504,0);
},
{
name = top;
pos = (293,530);
}
);
background = {
anchors = (
{
name = bottom;
pos = (293,0);
},
{
name = ogonek;
pos = (504,0);
},
{
name = top;
pos = (293,530);
}
);
shapes = (
{
closed = 1;
nodes = (
(345,-12,o),
(414,29,o),
(434,120,c),
(424,131,l),
(424,0,l),
(504,0,l),
(504,530,l),
(420,530,l),
(420,214,ls),
(420,115,o),
(365,62,o),
(283,62,cs),
(206,62,o),
(174,115,o),
(174,214,cs),
(174,530,l),
(89,530,l),
(89,189,ls),
(89,77,o),
(147,-12,o),
(265,-12,cs)
);
}
);
};
layerId = "574EE4B9-5C1A-4E7E-9985-C08FACB65BD8";
shapes = (
{
closed = 1;
nodes = (
(353,-12,o),
(416,37,o),
(437,124,c),
(424,131,l),
(424,0,l),
(504,0,l),
(504,530,l),
(420,530,l),
(420,214,ls),
(420,119,o),
(369,62,o),
(286,62,cs),
(210,62,o),
(174,109,o),
(174,212,cs),
(174,530,l),
(90,530,l),
(90,189,ls),
(90,63,o),
(158,-12,o),
(263,-12,cs)
);
}
);
width = 600;
},
{
anchors = (
{
name = bottom;
pos = (297,0);
},
{
name = ogonek;
pos = (514,0);
},
{
name = top;
pos = (297,540);
}
);
background = {
anchors = (
{
name = bottom;
pos = (297,0);
},
{
name = ogonek;
pos = (515,0);
},
{
name = top;
pos = (297,540);
}
);
shapes = (
{
closed = 1;
nodes = (
(330,-12,o),
(389,52,o),
(400,167,c),
(375,170,l),
(384,0,l),
(515,0,l),
(515,540,l),
(374,540,l),
(374,220,ls),
(374,138,o),
(345,97,o),
(294,97,cs),
(245,97,o),
(221,138,o),
(221,220,cs),
(221,540,l),
(77,540,l),
(77,193,ls),
(77,67,o),
(133,-12,o),
(239,-12,cs)
);
}
);
};
layerId = "58B1DC7A-69F8-4375-AD2E-AC5103CCF536";
shapes = (
{
closed = 1;
nodes = (
(324,-12,o),
(389,53,o),
(400,168,c),
(376,170,l),
(382,0,l),
(514,0,l),
(514,540,l),
(372,540,l),
(372,230,ls),
(372,144,o),
(340,108,o),
(288,108,cs),
(248,108,o),
(222,139,o),
(222,222,cs),
(222,540,l),
(80,540,l),
(80,182,ls),
(80,52,o),
(138,-12,o),
(224,-12,cs)
);
}
);
width = 600;
}
);
unicode = 117;
}
{
color = 5;
glyphname = v;
kernLeft = "0";
kernRight = "0";
layers = (
{
background = {
shapes = (
{
closed = 1;
nodes = (
(318,0,l),
(516,530,l),
(485,530,l),
(300,31,l),
(115,530,l),
(84,530,l),
(282,0,l)
);
}
);
};
layerId = "EE2FFE84-06F1-4AFB-BBEC-60D09A436D14";
shapes = (
{
closed = 1;
nodes = (
(319,0,l),
(516,530,l),
(484,530,l),
(300,28,l),
(116,530,l),
(84,530,l),
(281,0,l)
);
}
);
width = 600;
},
{
background = {
shapes = (
{
closed = 1;
nodes = (
(353,0,l),
(546,530,l),
(456,530,l),
(300,88,l),
(144,530,l),
(54,530,l),
(247,0,l)
);
}
);
};
layerId = "574EE4B9-5C1A-4E7E-9985-C08FACB65BD8";
shapes = (
{
closed = 1;
nodes = (
(353,0,l),
(546,530,l),
(454,530,l),
(300,86,l),
(146,530,l),
(54,530,l),
(247,0,l)
);
}
);
width = 600;
},
{
background = {
shapes = (
{
closed = 1;
nodes = (
(381,0,l),
(570,540,l),
(418,540,l),
(300,161,l),
(181,540,l),
(30,540,l),
(219,0,l)
);
}
);
};
layerId = "58B1DC7A-69F8-4375-AD2E-AC5103CCF536";
shapes = (
{
closed = 1;
nodes = (
(388,0,l),
(566,540,l),
(414,540,l),
(300,158,l),
(186,540,l),
(34,540,l),
(212,0,l)
);
}
);
width = 600;
}
);
unicode = 118;
}
{
color = 5;
glyphname = w;
kernLeft = "0";
kernRight = "0";
layers = (
{
anchors = (
{
name = bottom;
pos = (300,0);
},
{
name = top;
pos = (300,530);
}
);
background = {
anchors = (
{
name = bottom;
pos = (300,0);
},
{
name = top;
pos = (300,530);
}
);
shapes = (
{
closed = 1;
nodes = (
(200,0,l),
(300,417,l),
(400,0,l),
(436,0,l),
(562,530,l),
(529,530,l),
(418,45,l),
(317,460,l),
(283,460,l),
(182,45,l),
(71,530,l),
(38,530,l),
(164,0,l)
);
}
);
};
layerId = "EE2FFE84-06F1-4AFB-BBEC-60D09A436D14";
shapes = (
{
closed = 1;
nodes = (
(196,0,l),
(300,414,l),
(404,0,l),
(440,0,l),
(570,530,l),
(538,530,l),
(422,30,l),
(315,460,l),
(285,460,l),
(178,30,l),
(62,530,l),
(30,530,l),
(160,0,l)
);
}
);
width = 600;
},
{
anchors = (
{
name = bottom;
pos = (300,0);
},
{
name = top;
pos = (300,530);
}
);
background = {
anchors = (
{
name = bottom;
pos = (300,0);
},
{
name = top;
pos = (300,530);
}
);
shapes = (
{
closed = 1;
nodes = (
(228,0,l),
(300,324,l),
(372,0,l),
(474,0,l),
(582,530,l),
(494,530,l),
(422,113,l),
(345,460,l),
(255,460,l),
(178,113,l),
(106,530,l),
(18,530,l),
(126,0,l)
);
}
);
};
layerId = "574EE4B9-5C1A-4E7E-9985-C08FACB65BD8";
shapes = (
{
closed = 1;
nodes = (
(230,0,l),
(300,330,l),
(370,0,l),
(476,0,l),
(580,530,l),
(488,530,l),
(421,88,l),
(345,456,l),
(255,456,l),
(179,88,l),
(112,530,l),
(20,530,l),
(125,0,l)
);
}
);
width = 600;
},
{
anchors = (
{
name = bottom;
pos = (300,0);
},
{
name = top;
pos = (300,540);
}
);
background = {
anchors = (
{
name = bottom;
pos = (300,0);
},
{
name = top;
pos = (300,540);
}
);
shapes = (
{
closed = 1;
nodes = (
(243,0,l),
(300,272,l),
(357,0,l),
(487,0,l),
(589,540,l),
(444,540,l),
(398,241,l),
(353,469,l),
(247,469,l),
(202,240,l),
(156,540,l),
(11,540,l),
(113,0,l)
);
}
);
};
layerId = "58B1DC7A-69F8-4375-AD2E-AC5103CCF536";
shapes = (
{
closed = 1;
nodes = (
(244,0,l),
(300,240,l),
(356,0,l),
(486,0,l),
(590,540,l),
(444,540,l),
(398,240,l),
(353,460,l),
(247,460,l),
(202,240,l),
(156,540,l),
(10,540,l),
(114,0,l)
);
}
);
width = 600;
}
);
unicode = 119;
}
{
color = 5;
glyphname = x;
kernLeft = "0";
kernRight = "0";
layers = (
{
background = {
shapes = (
{
closed = 1;
nodes = (
(118,0,l),
(300,248,l),
(482,0,l),
(519,0,l),
(322,266,l),
(512,530,l),
(475,530,l),
(300,285,l),
(125,530,l),
(88,530,l),
(278,266,l),
(81,0,l)
);
}
);
};
layerId = "EE2FFE84-06F1-4AFB-BBEC-60D09A436D14";
shapes = (
{
closed = 1;
nodes = (
(118,0,l),
(302,249,l),
(483,0,l),
(518,0,l),
(320,266,l),
(511,530,l),
(475,530,l),
(300,284,l),
(124,530,l),
(89,530,l),
(280,266,l),
(82,0,l)
);
}
);
width = 600;
},
{
background = {
shapes = (
{
closed = 1;
nodes = (
(157,0,l),
(300,206,l),
(442,0,l),
(545,0,l),
(353,271,l),
(536,530,l),
(432,530,l),
(300,336,l),
(167,530,l),
(64,530,l),
(248,272,l),
(54,0,l)
);
}
);
};
layerId = "574EE4B9-5C1A-4E7E-9985-C08FACB65BD8";
shapes = (
{
closed = 1;
nodes = (
(154,0,l),
(301,214,l),
(448,0,l),
(546,0,l),
(353,270,l),
(537,530,l),
(437,530,l),
(301,330,l),
(162,530,l),
(64,530,l),
(249,272,l),
(54,0,l)
);
}
);
width = 600;
},
{
background = {
shapes = (
{
closed = 1;
nodes = (
(196,0,l),
(300,161,l),
(403,0,l),
(574,0,l),
(382,276,l),
(565,540,l),
(393,540,l),
(300,392,l),
(206,540,l),
(35,540,l),
(219,277,l),
(25,0,l)
);
}
);
};
layerId = "58B1DC7A-69F8-4375-AD2E-AC5103CCF536";
shapes = (
{
closed = 1;
nodes = (
(197,0,l),
(300,162,l),
(402,0,l),
(574,0,l),
(384,276,l),
(565,540,l),
(393,540,l),
(300,392,l),
(206,540,l),
(34,540,l),
(218,276,l),
(26,0,l)
);
}
);
width = 600;
}
);
unicode = 120;
}
{
color = 4;
glyphname = y;
kernLeft = "0";
kernRight = "0";
layers = (
{
anchors = (
{
name = top;
pos = (310,530);
}
);
background = {
shapes = (
{
closed = 1;
nodes = (
(176,-39,ls),
(167,-64,o),
(151,-74,o),
(126,-74,cs),
(70,-74,l),
(70,-150,l),
(135,-150,ls),
(195,-150,o),
(233,-124,o),
(253,-67,cs),
(467,530,l),
(376,530,l),
(211,57,l),
(236,57,l),
(65,530,l),
(-27,530,l),
(166,10,l),
(237,10,l),
(207,42,l)
);
}
);
};
layerId = "EE2FFE84-06F1-4AFB-BBEC-60D09A436D14";
shapes = (
{
closed = 1;
nodes = (
(287,10,l),
(303,10,l),
(284,-39,ls),
(258,-105,o),
(239,-123,o),
(186,-123,cs),
(146,-123,l),
(146,-150,l),
(185,-150,ls),
(247,-150,o),
(283,-125,o),
(305,-67,cs),
(529,530,l),
(495,530,l),
(310,31,l),
(110,530,l),
(78,530,l)
);
}
);
width = 600;
},
{
anchors = (
{
name = top;
pos = (303,530);
}
);
layerId = "574EE4B9-5C1A-4E7E-9985-C08FACB65BD8";
shapes = (
{
closed = 1;
nodes = (
(250,10,l),
(279,10,l),
(260,-39,ls),
(250,-65,o),
(234,-76,o),
(208,-76,cs),
(153,-76,l),
(153,-150,l),
(217,-150,ls),
(277,-150,o),
(315,-124,o),
(335,-67,cs),
(549,530,l),
(460,530,l),
(306,90,l),
(147,530,l),
(57,530,l)
);
}
);
width = 600;
},
{
anchors = (
{
name = top;
pos = (304,530);
}
);
layerId = "58B1DC7A-69F8-4375-AD2E-AC5103CCF536";
shapes = (
{
closed = 1;
nodes = (
(219,39,l),
(254,39,l),
(242,10,ls),
(230,-19,o),
(213,-29,o),
(180,-29,cs),
(111,-29,l),
(111,-150,l),
(201,-150,ls),
(288,-150,o),
(340,-116,o),
(367,-40,cs),
(572,530,l),
(421,530,l),
(305,182,l),
(184,530,l),
(32,530,l)
);
}
);
width = 600;
}
);
unicode = 121;
}
{
color = 5;
glyphname = z;
kernLeft = "0";
kernRight = "0";
layers = (
{
anchors = (
{
name = bottom;
pos = (301,0);
},
{
name = top;
pos = (301,530);
}
);
background = {
anchors = (
{
name = bottom;
pos = (301,0);
},
{
name = top;
pos = (301,530);
}
);
shapes = (
{
closed = 1;
nodes = (
(509,0,l),
(509,30,l),
(127,30,l),
(501,500,l),
(501,530,l),
(101,530,l),
(101,500,l),
(465,500,l),
(91,30,l),
(91,0,l)
);
}
);
};
layerId = "EE2FFE84-06F1-4AFB-BBEC-60D09A436D14";
shapes = (
{
closed = 1;
nodes = (
(510,0,l),
(510,28,l),
(124,28,l),
(502,500,l),
(502,530,l),
(100,530,l),
(100,502,l),
(468,502,l),
(90,30,l),
(90,0,l)
);
}
);
width = 600;
},
{
anchors = (
{
name = bottom;
pos = (301,0);
},
{
name = top;
pos = (301,530);
}
);
background = {
anchors = (
{
name = bottom;
pos = (301,0);
},
{
name = top;
pos = (301,530);
}
);
shapes = (
{
closed = 1;
nodes = (
(518,0,l),
(518,74,l),
(173,74,l),
(510,437,l),
(510,530,l),
(92,530,l),
(92,456,l),
(420,456,l),
(82,91,l),
(82,0,l)
);
}
);
};
layerId = "574EE4B9-5C1A-4E7E-9985-C08FACB65BD8";
shapes = (
{
closed = 1;
nodes = (
(518,0,l),
(518,74,l),
(174,74,l),
(510,446,l),
(510,530,l),
(92,530,l),
(92,456,l),
(418,456,l),
(82,84,l),
(82,0,l)
);
}
);
width = 600;
},
{
anchors = (
{
name = bottom;
pos = (302,0);
},
{
name = top;
pos = (302,540);
}
);
background = {
anchors = (
{
name = bottom;
pos = (302,0);
},
{
name = top;
pos = (302,540);
}
);
shapes = (
{
closed = 1;
nodes = (
(545,0,l),
(545,129,l),
(254,129,l),
(534,402,l),
(534,540,l),
(67,540,l),
(67,411,l),
(341,411,l),
(55,132,l),
(55,0,l)
);
}
);
};
layerId = "58B1DC7A-69F8-4375-AD2E-AC5103CCF536";
shapes = (
{
closed = 1;
nodes = (
(536,0,l),
(536,120,l),
(248,120,l),
(526,410,l),
(526,540,l),
(74,540,l),
(74,420,l),
(342,420,l),
(64,130,l),
(64,0,l)
);
}
);
width = 600;
}
);
unicode = 122;
}
{
color = 3;
glyphname = braceleft;
kernLeft = "0";
kernRight = "0";
layers = (
{
background = {
shapes = (
{
closed = 1;
nodes = (
(95,296,l),
(214,298,o),
(259,257,o),
(259,160,cs),
(259,77,ls),
(259,-24,o),
(332,-95,o),
(438,-95,cs),
(494,-95,l),
(494,-17,l),
(378,-20,o),
(339,6,o),
(339,75,cs),
(339,167,ls),
(339,258,o),
(290,324,o),
(217,338,c),
(217,339,l),
(288,353,o),
(339,418,o),
(339,508,cs),
(339,600,ls),
(339,670,o),
(378,696,o),
(494,692,c),
(494,770,l),
(438,770,ls),
(332,770,o),
(259,699,o),
(259,598,cs),
(259,515,ls),
(259,418,o),
(214,377,o),
(95,379,c)
);
}
);
};
layerId = "EE2FFE84-06F1-4AFB-BBEC-60D09A436D14";
shapes = (
{
closed = 1;
nodes = (
(463,-93,l),
(463,-63,l),
(358,-63,o),
(307,-9,o),
(307,77,cs),
(307,169,ls),
(307,262,o),
(261,332,o),
(195,339,c),
(195,340,l),
(261,347,o),
(307,416,o),
(307,508,cs),
(307,600,ls),
(307,686,o),
(358,740,o),
(463,740,c),
(463,770,l),
(439,770,ls),
(338,770,o),
(275,704,o),
(275,598,cs),
(275,508,ls),
(275,397,o),
(228,354,o),
(105,354,c),
(105,323,l),
(228,323,o),
(275,280,o),
(275,169,cs),
(275,79,ls),
(275,-27,o),
(338,-93,o),
(439,-93,cs)
);
}
);
width = 600;
},
{
associatedMasterId = "EE2FFE84-06F1-4AFB-BBEC-60D09A436D14";
layerId = "27AC9A21-3019-4552-A298-52D9AE209BDC";
name = "24 de ene. de 23 14:05";
shapes = (
{
closed = 1;
nodes = (
(56,323,o),
(101,383,o),
(101,460,c),
(101,543,l),
(101,644,o),
(175,715,o),
(281,715,cs),
(313,715,l),
(313,634,l),
(219,634,o),
(183,608,o),
(183,543,c),
(183,453,l),
(183,352,o),
(121,280,o),
(32,280,cs),
(-2,280,l),
(-2,325,l)
);
},
{
closed = 1;
nodes = (
(-2,285,l),
(32,285,ls),
(121,285,o),
(183,213,o),
(183,112,c),
(183,22,l),
(183,-43,o),
(219,-69,o),
(313,-69,c),
(313,-150,l),
(281,-150,ls),
(175,-150,o),
(101,-79,o),
(101,22,c),
(101,105,l),
(101,182,o),
(56,242,o),
(-2,240,c)
);
}
);
width = 445;
},
{
layerId = "574EE4B9-5C1A-4E7E-9985-C08FACB65BD8";
shapes = (
{
closed = 1;
nodes = (
(494,-95,l),
(494,-17,l),
(378,-20,o),
(339,6,o),
(339,75,cs),
(339,167,ls),
(339,258,o),
(290,324,o),
(217,338,c),
(217,339,l),
(288,353,o),
(339,418,o),
(339,508,cs),
(339,600,ls),
(339,670,o),
(378,696,o),
(494,692,c),
(494,770,l),
(438,770,ls),
(332,770,o),
(259,699,o),
(259,598,cs),
(259,515,ls),
(259,418,o),
(214,377,o),
(95,379,c),
(95,296,l),
(214,298,o),
(259,257,o),
(259,160,cs),
(259,77,ls),
(259,-24,o),
(332,-95,o),
(438,-95,cs)
);
}
);
width = 600;
},
{
layerId = "58B1DC7A-69F8-4375-AD2E-AC5103CCF536";
shapes = (
{
closed = 1;
nodes = (
(495,-126,l),
(495,2,l),
(404,-2,o),
(356,31,o),
(356,100,cs),
(356,160,ls),
(356,248,o),
(295,311,o),
(205,317,c),
(205,328,l),
(294,334,o),
(356,397,o),
(356,484,cs),
(356,544,ls),
(356,612,o),
(404,645,o),
(495,641,c),
(495,770,l),
(452,770,ls),
(306,770,o),
(212,686,o),
(212,555,cs),
(212,486,ls),
(212,401,o),
(190,392,o),
(87,393,c),
(87,252,l),
(190,252,o),
(212,243,o),
(212,158,cs),
(212,89,ls),
(212,-42,o),
(306,-126,o),
(452,-126,cs)
);
}
);
width = 600;
}
);
unicode = 123;
}
{
glyphname = bar;
kernLeft = "0";
kernRight = "0";
layers = (
{
layerId = "EE2FFE84-06F1-4AFB-BBEC-60D09A436D14";
shapes = (
{
closed = 1;
nodes = (
(284,-90,l),
(316,-90,l),
(316,770,l),
(284,770,l)
);
}
);
width = 600;
},
{
layerId = "574EE4B9-5C1A-4E7E-9985-C08FACB65BD8";
shapes = (
{
closed = 1;
nodes = (
(259,-90,l),
(341,-90,l),
(341,770,l),
(259,770,l)
);
}
);
width = 600;
},
{
layerId = "58B1DC7A-69F8-4375-AD2E-AC5103CCF536";
shapes = (
{
closed = 1;
nodes = (
(230,-90,l),
(370,-90,l),
(370,770,l),
(230,770,l)
);
}
);
width = 600;
}
);
unicode = 124;
}
{
glyphname = asciitilde;
kernLeft = "0";
kernRight = "0";
layers = (
{
associatedMasterId = "EE2FFE84-06F1-4AFB-BBEC-60D09A436D14";
guides = (
{
angle = 270;
pos = (516,235);
},
{
pos = (112,235);
},
{
pos = (441,419);
}
);
layerId = "4F0FB2D7-28AD-46D9-9CCC-E76156F069EC";
name = "30 de ene. de 23 12:33";
shapes = (
{
closed = 1;
nodes = (
(285,370,l),
(160,478,o),
(36,407,o),
(36,245,c),
(116,245,l),
(116,387,o),
(212,360,o),
(285,270,c)
);
},
{
closed = 1;
nodes = (
(260,297,l),
(385,189,o),
(509,260,o),
(509,422,c),
(429,422,l),
(429,280,o),
(333,307,o),
(260,397,c)
);
}
);
width = 556;
},
{
associatedMasterId = "EE2FFE84-06F1-4AFB-BBEC-60D09A436D14";
guides = (
{
angle = 270;
pos = (516,235);
},
{
pos = (116,245);
},
{
pos = (441,419);
}
);
layerId = "C505FC5B-995D-4589-A342-07E0B778C222";
name = "30 de ene. de 23 13:00";
shapes = (
{
closed = 1;
nodes = (
(283,279,l),
(431,191,o),
(509,284,o),
(509,422,c),
(429,422,l),
(429,299,o),
(377,315,o),
(284,373,c),
(257,391,l),
(148,466,o),
(36,396,o),
(36,245,c),
(116,245,l),
(116,371,o),
(180,342,o),
(257,294,c)
);
}
);
width = 556;
},
{
background = {
shapes = (
{
closed = 1;
nodes = (
(316,293,o),
(301,403,o),
(217,403,cs),
(147,403,o),
(97,346,o),
(97,265,c),
(129,265,l),
(129,330,o),
(163,373,o),
(217,373,cs),
(283,373,o),
(298,263,o),
(382,263,cs),
(452,263,o),
(502,320,o),
(502,401,c),
(470,401,l),
(470,336,o),
(436,293,o),
(382,293,cs)
);
}
);
};
guides = (
{
angle = 270;
pos = (467,235);
},
{
pos = (67,245);
},
{
pos = (392,421);
}
);
layerId = "EE2FFE84-06F1-4AFB-BBEC-60D09A436D14";
name = Regular;
shapes = (
{
closed = 1;
nodes = (
(129,265,l),
(129,330,o),
(163,373,o),
(217,373,cs),
(286,373,o),
(295,263,o),
(382,263,cs),
(452,263,o),
(502,320,o),
(502,401,c),
(470,401,l),
(470,336,o),
(436,293,o),
(382,293,cs),
(313,293,o),
(304,403,o),
(217,403,cs),
(147,403,o),
(97,346,o),
(97,265,c)
);
}
);
width = 600;
},
{
layerId = "574EE4B9-5C1A-4E7E-9985-C08FACB65BD8";
name = Regular;
shapes = (
{
closed = 1;
nodes = (
(161,236,l),
(161,307,o),
(182,352,o),
(217,352,cs),
(278,352,o),
(265,236,o),
(382,236,cs),
(490,236,o),
(521,350,o),
(521,430,c),
(438,430,l),
(438,359,o),
(417,314,o),
(382,314,cs),
(318,314,o),
(325,430,o),
(217,430,cs),
(109,430,o),
(78,316,o),
(78,236,c)
);
}
);
width = 600;
},
{
layerId = "58B1DC7A-69F8-4375-AD2E-AC5103CCF536";
name = Regular;
shapes = (
{
closed = 1;
nodes = (
(183,228,l),
(183,278,o),
(199,308,o),
(228,308,cs),
(277,308,o),
(281,235,o),
(375,235,cs),
(489,235,o),
(550,324,o),
(550,438,c),
(416,438,l),
(416,388,o),
(400,358,o),
(371,358,cs),
(321,358,o),
(315,431,o),
(224,431,cs),
(110,431,o),
(49,342,o),
(49,228,c)
);
}
);
width = 600;
}
);
unicode = 126;
}
{
glyphname = cent;
kernLeft = "0";
kernRight = "0";
layers = (
{
layerId = "EE2FFE84-06F1-4AFB-BBEC-60D09A436D14";
shapes = (
{
closed = 1;
nodes = (
(293,-91,l),
(356,629,l),
(324,629,l),
(261,-91,l)
);
},
{
ref = c;
}
);
width = 600;
},
{
layerId = "574EE4B9-5C1A-4E7E-9985-C08FACB65BD8";
shapes = (
{
closed = 1;
nodes = (
(306,-91,l),
(369,629,l),
(294,629,l),
(231,-91,l)
);
},
{
alignment = -1;
ref = c;
}
);
width = 600;
},
{
layerId = "58B1DC7A-69F8-4375-AD2E-AC5103CCF536";
shapes = (
{
closed = 1;
nodes = (
(318,-91,l),
(381,629,l),
(298,629,l),
(235,-91,l)
);
},
{
alignment = -1;
ref = c;
}
);
width = 600;
}
);
unicode = 162;
}
{
glyphname = sterling;
kernLeft = "0";
kernRight = "0";
layers = (
{
background = {
shapes = (
{
closed = 1;
nodes = (
(67,641,o),
(67,529,cs),
(67,495,o),
(75,457,o),
(90,411,cs),
(107,361,o),
(115,317,o),
(115,278,cs),
(115,194,o),
(76,134,o),
(1,89,c),
(1,0,l),
(498,3,l),
(498,89,l),
(78,89,l),
(154,123,o),
(202,194,o),
(202,287,cs),
(202,318,o),
(197,352,o),
(185,388,cs),
(168,442,o),
(158,483,o),
(158,515,cs),
(158,588,o),
(218,640,o),
(283,640,cs),
(347,640,o),
(403,599,o),
(413,530,c),
(358,549,l),
(545,563,l),
(512,544,l),
(504,630,o),
(432,726,o),
(279,726,cs),
(161,726,o)
);
},
{
closed = 1;
nodes = (
(0,316,l),
(361,316,l),
(361,392,l),
(0,392,l)
);
}
);
};
layerId = "EE2FFE84-06F1-4AFB-BBEC-60D09A436D14";
shapes = (
{
closed = 1;
nodes = (
(546,0,l),
(546,30,l),
(93,30,l),
(208,90,o),
(251,241,o),
(225,339,c),
(419,339,l),
(419,369,l),
(219,369,l),
(196,442,o),
(186,483,o),
(186,515,cs),
(186,620,o),
(248,694,o),
(337,694,cs),
(440,694,o),
(493,633,o),
(503,555,c),
(536,559,l),
(526,657,o),
(454,726,o),
(337,726,cs),
(234,726,o),
(153,639,o),
(153,529,cs),
(153,495,o),
(160,457,o),
(175,411,c),
(187,369,l),
(58,369,l),
(58,339,l),
(194,339,l),
(197,317,o),
(199,297,o),
(199,278,cs),
(199,186,o),
(141,86,o),
(59,36,c),
(59,0,l)
);
}
);
width = 600;
},
{
associatedMasterId = "EE2FFE84-06F1-4AFB-BBEC-60D09A436D14";
layerId = "3CD0F278-7180-4E81-8DEF-1031C595535B";
name = "6 Feb 23 15:50";
shapes = (
{
closed = 1;
nodes = (
(129,613,o),
(108,541,o),
(152,411,cs),
(206,251,o),
(172,155,o),
(63,89,c),
(63,0,l),
(560,3,l),
(560,89,l),
(140,89,l),
(242,134,o),
(293,246,o),
(247,388,cs),
(206,514,o),
(217,571,o),
(262,609,cs),
(322,658,o),
(422,654,o),
(538,595,c),
(489,569,l),
(537,740,l),
(558,683,l),
(425,744,o),
(284,738,o),
(201,672,cs)
);
},
{
closed = 1;
nodes = (
(62,316,l),
(423,316,l),
(423,392,l),
(62,392,l)
);
}
);
width = 600;
},
{
layerId = "574EE4B9-5C1A-4E7E-9985-C08FACB65BD8";
shapes = (
{
closed = 1;
nodes = (
(545,3,l),
(545,87,l),
(124,87,l),
(219,130,o),
(257,222,o),
(247,317,c),
(408,317,l),
(408,391,l),
(231,391,l),
(214,444,o),
(204,484,o),
(204,515,cs),
(204,589,o),
(264,642,o),
(330,642,cs),
(389,642,o),
(439,609,o),
(457,553,c),
(556,560,l),
(541,643,o),
(469,726,o),
(326,726,cs),
(209,726,o),
(115,641,o),
(115,529,cs),
(115,495,o),
(123,457,o),
(138,411,c),
(144,391,l),
(47,391,l),
(47,317,l),
(161,317,l),
(162,303,o),
(163,290,o),
(163,278,cs),
(163,194,o),
(124,132,o),
(48,87,c),
(48,0,l)
);
}
);
width = 600;
},
{
layerId = "58B1DC7A-69F8-4375-AD2E-AC5103CCF536";
shapes = (
{
closed = 1;
nodes = (
(565,3,l),
(565,133,l),
(177,133,l),
(244,162,o),
(281,226,o),
(285,292,c),
(432,292,l),
(432,392,l),
(280,392,l),
(272,438,o),
(253,475,o),
(248,506,cs),
(242,558,o),
(279,595,o),
(333,595,cs),
(378,595,o),
(412,560,o),
(417,509,c),
(575,516,l),
(555,635,o),
(462,726,o),
(333,726,cs),
(195,726,o),
(94,644,o),
(94,529,cs),
(94,494,o),
(106,448,o),
(119,414,c),
(128,392,l),
(28,392,l),
(28,292,l),
(134,292,l),
(133,287,o),
(134,282,o),
(134,278,cs),
(128,213,o),
(87,157,o),
(28,131,c),
(28,0,l)
);
}
);
width = 600;
}
);
unicode = 163;
}
{
glyphname = currency;
kernLeft = "0";
kernRight = "0";
layers = (
{
anchors = (
{
name = top;
pos = (285,530);
}
);
layerId = "EE2FFE84-06F1-4AFB-BBEC-60D09A436D14";
shapes = (
{
closed = 1;
nodes = (
(409,97,o),
(499,187,o),
(499,297,cs),
(499,407,o),
(409,497,o),
(299,497,cs),
(189,497,o),
(99,407,o),
(99,297,cs),
(99,187,o),
(189,97,o),
(299,97,cs)
);
},
{
closed = 1;
nodes = (
(207,129,o),
(131,205,o),
(131,297,cs),
(131,389,o),
(207,465,o),
(299,465,cs),
(390,465,o),
(467,389,o),
(467,297,cs),
(467,205,o),
(390,129,o),
(299,129,cs)
);
},
{
closed = 1;
nodes = (
(414,432,l),
(435,411,l),
(528,505,l),
(507,526,l)
);
},
{
closed = 1;
nodes = (
(71,504,l),
(163,412,l),
(184,433,l),
(92,525,l)
);
},
{
closed = 1;
nodes = (
(527,90,l),
(432,185,l),
(411,164,l),
(506,69,l)
);
},
{
closed = 1;
nodes = (
(185,163,l),
(164,184,l),
(72,91,l),
(93,70,l)
);
}
);
width = 600;
},
{
anchors = (
{
name = top;
pos = (285,530);
}
);
layerId = "574EE4B9-5C1A-4E7E-9985-C08FACB65BD8";
shapes = (
{
closed = 1;
nodes = (
(409,97,o),
(499,187,o),
(499,297,cs),
(499,407,o),
(409,497,o),
(299,497,cs),
(189,497,o),
(99,407,o),
(99,297,cs),
(99,187,o),
(189,97,o),
(299,97,cs)
);
},
{
closed = 1;
nodes = (
(229,170,o),
(172,227,o),
(172,297,cs),
(172,367,o),
(229,424,o),
(299,424,cs),
(368,424,o),
(426,367,o),
(426,297,cs),
(426,227,o),
(368,170,o),
(299,170,cs)
);
},
{
closed = 1;
nodes = (
(364,415,l),
(417,362,l),
(543,489,l),
(491,541,l)
);
},
{
closed = 1;
nodes = (
(56,489,l),
(182,362,l),
(235,415,l),
(108,541,l)
);
},
{
closed = 1;
nodes = (
(543,106,l),
(417,233,l),
(364,180,l),
(491,54,l)
);
},
{
closed = 1;
nodes = (
(235,180,l),
(182,233,l),
(56,106,l),
(108,54,l)
);
}
);
width = 600;
},
{
anchors = (
{
name = top;
pos = (285,530);
}
);
layerId = "58B1DC7A-69F8-4375-AD2E-AC5103CCF536";
shapes = (
{
closed = 1;
nodes = (
(418,81,o),
(515,178,o),
(515,297,cs),
(515,416,o),
(418,513,o),
(299,513,cs),
(180,513,o),
(83,416,o),
(83,297,cs),
(83,178,o),
(180,81,o),
(299,81,cs)
);
},
{
closed = 1;
nodes = (
(249,205,o),
(207,247,o),
(207,297,cs),
(207,347,o),
(249,389,o),
(299,389,cs),
(348,389,o),
(391,347,o),
(391,297,cs),
(391,247,o),
(348,205,o),
(299,205,cs)
);
},
{
closed = 1;
nodes = (
(358,414,l),
(416,356,l),
(549,488,l),
(490,547,l)
);
},
{
closed = 1;
nodes = (
(50,488,l),
(183,356,l),
(241,414,l),
(109,547,l)
);
},
{
closed = 1;
nodes = (
(549,107,l),
(416,239,l),
(358,181,l),
(490,48,l)
);
},
{
closed = 1;
nodes = (
(241,181,l),
(183,239,l),
(50,107,l),
(109,48,l)
);
}
);
width = 600;
}
);
unicode = 164;
}
{
glyphname = yen;
kernLeft = "0";
kernRight = "0";
layers = (
{
layerId = "EE2FFE84-06F1-4AFB-BBEC-60D09A436D14";
shapes = (
{
ref = Y;
},
{
closed = 1;
nodes = (
(507,167,l),
(507,197,l),
(93,197,l),
(93,167,l)
);
},
{
closed = 1;
nodes = (
(507,279,l),
(507,309,l),
(93,309,l),
(93,279,l)
);
}
);
width = 600;
},
{
layerId = "574EE4B9-5C1A-4E7E-9985-C08FACB65BD8";
shapes = (
{
alignment = -1;
ref = Y;
},
{
closed = 1;
nodes = (
(508,143,l),
(508,221,l),
(94,221,l),
(94,143,l)
);
},
{
closed = 1;
nodes = (
(508,287,l),
(508,365,l),
(94,365,l),
(94,287,l)
);
}
);
width = 600;
},
{
layerId = "58B1DC7A-69F8-4375-AD2E-AC5103CCF536";
shapes = (
{
alignment = -1;
ref = Y;
},
{
closed = 1;
nodes = (
(526,121,l),
(526,215,l),
(76,215,l),
(76,121,l)
);
},
{
closed = 1;
nodes = (
(526,266,l),
(526,359,l),
(76,359,l),
(76,266,l)
);
}
);
width = 600;
}
);
unicode = 165;
}
{
glyphname = brokenbar;
kernLeft = "0";
kernRight = "0";
layers = (
{
guides = (
{
pos = (198,355);
},
{
pos = (195,201);
}
);
layerId = "EE2FFE84-06F1-4AFB-BBEC-60D09A436D14";
shapes = (
{
closed = 1;
nodes = (
(316,355,l),
(316,710,l),
(284,710,l),
(284,355,l)
);
},
{
closed = 1;
nodes = (
(316,-150,l),
(316,205,l),
(284,205,l),
(284,-150,l)
);
}
);
width = 600;
},
{
layerId = "574EE4B9-5C1A-4E7E-9985-C08FACB65BD8";
shapes = (
{
closed = 1;
nodes = (
(339,355,l),
(339,710,l),
(261,710,l),
(261,355,l)
);
},
{
closed = 1;
nodes = (
(339,-150,l),
(339,205,l),
(261,205,l),
(261,-150,l)
);
}
);
width = 600;
},
{
layerId = "58B1DC7A-69F8-4375-AD2E-AC5103CCF536";
shapes = (
{
closed = 1;
nodes = (
(370,355,l),
(370,710,l),
(230,710,l),
(230,355,l)
);
},
{
closed = 1;
nodes = (
(370,-150,l),
(370,205,l),
(230,205,l),
(230,-150,l)
);
}
);
width = 600;
}
);
unicode = 166;
}
{
glyphname = section;
kernLeft = "0";
kernRight = "0";
layers = (
{
background = {
shapes = (
{
closed = 1;
nodes = (
(404,620,o),
(291,681,o),
(205,681,cs),
(93,681,o),
(0,626,o),
(0,523,cs),
(0,464,o),
(48,422,o),
(146,397,c),
(136,430,l),
(38,406,o),
(-3,353,o),
(-3,287,cs),
(-3,211,o),
(49,171,o),
(197,136,cs),
(291,113,o),
(327,85,o),
(327,45,cs),
(327,1,o),
(281,-27,o),
(210,-27,cs),
(135,-27,o),
(79,12,o),
(69,76,c),
(-20,70,l),
(-10,-35,o),
(89,-109,o),
(210,-109,cs),
(313,-109,o),
(417,-60,o),
(417,38,cs),
(417,102,o),
(394,151,o),
(290,183,c),
(293,151,l),
(378,171,o),
(420,212,o),
(420,274,cs),
(420,366,o),
(370,407,o),
(215,446,cs),
(117,472,o),
(90,490,o),
(90,531,cs),
(90,571,o),
(135,599,o),
(195,599,cs),
(273,599,o),
(321,563,o),
(331,505,c),
(419,511,l)
);
},
{
closed = 1;
nodes = (
(87,335,o),
(132,363,o),
(192,363,cs),
(246,363,o),
(330,343,o),
(330,281,cs),
(330,237,o),
(283,211,o),
(212,211,c),
(118,221,o),
(87,254,o),
(87,295,cs)
);
}
);
};
layerId = "EE2FFE84-06F1-4AFB-BBEC-60D09A436D14";
shapes = (
{
closed = 1;
nodes = (
(476,606,o),
(390,681,o),
(295,681,cs),
(186,681,o),
(110,622,o),
(110,539,cs),
(110,478,o),
(157,434,o),
(243,412,c),
(151,398,o),
(107,348,o),
(107,287,cs),
(107,198,o),
(200,174,o),
(287,153,cs),
(427,119,o),
(474,85,o),
(474,38,cs),
(474,-43,o),
(381,-77,o),
(300,-77,cs),
(211,-77,o),
(135,-15,o),
(124,74,c),
(90,70,l),
(101,-30,o),
(192,-109,o),
(300,-109,cs),
(405,-109,o),
(507,-67,o),
(507,38,cs),
(507,99,o),
(462,132,o),
(380,163,c),
(447,182,o),
(510,214,o),
(510,287,cs),
(510,360,o),
(448,403,o),
(305,430,cs),
(192,451,o),
(143,482,o),
(143,540,cs),
(143,601,o),
(208,649,o),
(291,649,cs),
(374,649,o),
(441,591,o),
(455,508,c),
(489,511,l)
);
},
{
closed = 1;
nodes = (
(141,350,o),
(200,389,o),
(295,389,cs),
(397,389,o),
(477,349,o),
(477,287,cs),
(477,228,o),
(405,187,o),
(302,187,cs),
(212,187,o),
(141,228,o),
(141,287,cs)
);
}
);
width = 600;
},
{
associatedMasterId = "EE2FFE84-06F1-4AFB-BBEC-60D09A436D14";
layerId = "7700FFAE-6384-4C8E-8C6C-3FD724929929";
name = "18 de feb. de 23 12:17";
shapes = (
{
closed = 1;
nodes = (
(454,620,o),
(341,681,o),
(255,681,cs),
(143,681,o),
(50,626,o),
(50,523,cs),
(50,464,o),
(98,422,o),
(196,397,c),
(186,430,l),
(88,406,o),
(47,353,o),
(47,287,cs),
(47,211,o),
(99,171,o),
(247,136,cs),
(341,113,o),
(377,85,o),
(377,45,cs),
(377,1,o),
(331,-27,o),
(260,-27,cs),
(185,-27,o),
(129,12,o),
(119,76,c),
(30,70,l),
(40,-35,o),
(139,-109,o),
(260,-109,cs),
(363,-109,o),
(467,-60,o),
(467,38,cs),
(467,102,o),
(444,151,o),
(340,183,c),
(343,151,l),
(428,171,o),
(470,212,o),
(470,274,cs),
(470,366,o),
(420,407,o),
(265,446,cs),
(167,472,o),
(140,490,o),
(140,531,cs),
(140,571,o),
(185,599,o),
(245,599,cs),
(323,599,o),
(371,563,o),
(381,505,c),
(469,511,l)
);
},
{
closed = 1;
nodes = (
(137,335,o),
(182,363,o),
(242,363,cs),
(296,363,o),
(380,343,o),
(380,281,cs),
(380,237,o),
(333,211,o),
(262,211,c),
(168,221,o),
(137,254,o),
(137,295,cs)
);
}
);
width = 500;
},
{
layerId = "574EE4B9-5C1A-4E7E-9985-C08FACB65BD8";
shapes = (
{
closed = 1;
nodes = (
(503,620,o),
(391,681,o),
(305,681,cs),
(193,681,o),
(100,626,o),
(100,524,cs),
(100,476,o),
(131,441,o),
(192,415,c),
(126,387,o),
(97,342,o),
(97,287,cs),
(97,211,o),
(151,171,o),
(297,137,cs),
(392,113,o),
(429,85,o),
(429,45,cs),
(429,0,o),
(381,-29,o),
(310,-29,cs),
(234,-29,o),
(178,11,o),
(168,76,c),
(80,70,l),
(90,-35,o),
(189,-109,o),
(310,-109,cs),
(413,-109,o),
(517,-60,o),
(517,38,cs),
(517,91,o),
(500,134,o),
(435,165,c),
(491,187,o),
(520,224,o),
(520,274,cs),
(520,366,o),
(469,407,o),
(315,445,cs),
(216,471,o),
(188,490,o),
(188,531,cs),
(188,572,o),
(234,601,o),
(295,601,cs),
(373,601,o),
(422,564,o),
(432,505,c),
(518,511,l)
);
},
{
closed = 1;
nodes = (
(185,336,o),
(231,364,o),
(292,364,cs),
(348,364,o),
(432,343,o),
(432,281,cs),
(432,237,o),
(384,210,o),
(312,210,cs),
(218,220,o),
(185,253,o),
(185,295,cs)
);
}
);
width = 600;
},
{
layerId = "58B1DC7A-69F8-4375-AD2E-AC5103CCF536";
shapes = (
{
closed = 1;
nodes = (
(514,616,o),
(413,684,o),
(303,684,cs),
(173,684,o),
(77,619,o),
(77,519,cs),
(77,476,o),
(99,441,o),
(140,413,c),
(85,376,o),
(72,323,o),
(79,278,cs),
(92,203,o),
(167,155,o),
(284,133,cs),
(357,119,o),
(383,99,o),
(383,75,cs),
(383,50,o),
(357,35,o),
(311,35,cs),
(260,35,o),
(224,59,o),
(219,104,c),
(66,98,l),
(75,-14,o),
(177,-88,o),
(311,-88,cs),
(444,-88,o),
(532,-32,o),
(532,71,cs),
(532,113,o),
(516,150,o),
(478,180,c),
(514,206,o),
(533,242,o),
(533,288,cs),
(533,372,o),
(468,432,o),
(345,459,cs),
(258,478,o),
(229,490,o),
(227,518,cs),
(224,545,o),
(252,561,o),
(294,561,cs),
(340,561,o),
(368,542,o),
(375,500,c),
(530,506,l)
);
},
{
closed = 1;
nodes = (
(224,327,o),
(252,345,o),
(293,345,cs),
(329,345,o),
(384,332,o),
(384,294,cs),
(384,267,o),
(354,251,o),
(306,251,cs),
(244,256,o),
(224,277,o),
(224,302,cs)
);
}
);
width = 600;
}
);
unicode = 167;
}
{
glyphname = copyright;
kernLeft = "0";
kernRight = "0";
layers = (
{
background = {
shapes = (
{
closed = 1;
nodes = (
(473,464,o),
(432,538,o),
(373,538,cs),
(294,538,o),
(200,447,o),
(200,357,cs),
(200,266,o),
(294,174,o),
(373,174,cs),
(435,174,o),
(477,250,o),
(485,312,c),
(560,306,l),
(550,206,o),
(480,144,o),
(373,144,cs),
(248,144,o),
(170,225,o),
(170,357,cs),
(170,489,o),
(248,568,o),
(373,568,cs),
(477,568,o),
(547,509,o),
(556,414,c),
(481,409,l)
);
},
{
closed = 1;
nodes = (
(573,-12,o),
(738,153,o),
(738,357,cs),
(738,561,o),
(573,726,o),
(369,726,cs),
(165,726,o),
(0,561,o),
(0,357,cs),
(0,153,o),
(165,-12,o),
(369,-12,cs)
);
},
{
closed = 1;
nodes = (
(184,19,o),
(32,172,o),
(32,357,cs),
(32,542,o),
(184,695,o),
(369,695,cs),
(553,695,o),
(706,542,o),
(706,357,cs),
(706,172,o),
(553,19,o),
(369,19,cs)
);
}
);
};
layerId = "EE2FFE84-06F1-4AFB-BBEC-60D09A436D14";
shapes = (
{
closed = 1;
nodes = (
(464,-12,o),
(580,140,o),
(580,357,cs),
(580,574,o),
(464,726,o),
(299,726,cs),
(134,726,o),
(19,574,o),
(19,357,cs),
(19,140,o),
(134,-12,o),
(299,-12,cs)
);
},
{
closed = 1;
nodes = (
(151,18,o),
(49,158,o),
(49,357,cs),
(49,556,o),
(151,696,o),
(299,696,cs),
(448,696,o),
(550,556,o),
(550,357,cs),
(550,158,o),
(448,18,o),
(299,18,cs)
);
},
{
closed = 1;
nodes = (
(465,432,l),
(454,525,o),
(392,583,o),
(305,583,cs),
(197,583,o),
(129,495,o),
(129,356,cs),
(129,217,o),
(197,130,o),
(305,130,cs),
(393,130,o),
(456,191,o),
(468,289,c),
(438,294,l),
(426,208,o),
(379,160,o),
(305,160,cs),
(215,160,o),
(159,236,o),
(159,356,cs),
(159,477,o),
(215,553,o),
(305,553,cs),
(377,553,o),
(423,508,o),
(435,427,c)
);
}
);
width = 600;
},
{
layerId = "574EE4B9-5C1A-4E7E-9985-C08FACB65BD8";
shapes = (
{
closed = 1;
nodes = (
(473,-12,o),
(595,140,o),
(595,357,cs),
(595,574,o),
(473,726,o),
(299,726,cs),
(125,726,o),
(4,574,o),
(4,357,cs),
(4,140,o),
(125,-12,o),
(299,-12,cs)
);
},
{
closed = 1;
nodes = (
(160,57,o),
(72,173,o),
(72,357,cs),
(72,542,o),
(160,657,o),
(299,657,cs),
(438,657,o),
(527,542,o),
(527,357,cs),
(527,173,o),
(438,57,o),
(299,57,cs)
);
},
{
closed = 1;
nodes = (
(466,432,l),
(456,525,o),
(384,583,o),
(306,583,cs),
(200,583,o),
(130,494,o),
(130,356,cs),
(130,218,o),
(200,130,o),
(306,130,cs),
(387,130,o),
(457,191,o),
(469,289,c),
(400,294,l),
(391,231,o),
(354,199,o),
(306,199,cs),
(234,199,o),
(199,256,o),
(199,356,cs),
(199,457,o),
(234,514,o),
(306,514,cs),
(353,514,o),
(389,484,o),
(397,427,c)
);
}
);
width = 600;
},
{
layerId = "58B1DC7A-69F8-4375-AD2E-AC5103CCF536";
shapes = (
{
closed = 1;
nodes = (
(479,-12,o),
(596,133,o),
(596,357,cs),
(596,581,o),
(479,726,o),
(299,726,cs),
(119,726,o),
(3,581,o),
(3,357,cs),
(3,133,o),
(119,-12,o),
(299,-12,cs)
);
},
{
closed = 1;
nodes = (
(169,79,o),
(94,181,o),
(94,357,cs),
(94,533,o),
(169,635,o),
(299,635,cs),
(429,635,o),
(505,533,o),
(505,357,cs),
(505,181,o),
(429,79,o),
(299,79,cs)
);
},
{
closed = 1;
nodes = (
(452,428,l),
(442,525,o),
(384,583,o),
(302,583,cs),
(206,583,o),
(144,495,o),
(144,356,cs),
(144,217,o),
(206,130,o),
(302,130,cs),
(386,130,o),
(443,191,o),
(455,293,c),
(364,298,l),
(357,248,o),
(339,221,o),
(302,221,cs),
(255,221,o),
(235,272,o),
(235,356,cs),
(235,441,o),
(255,492,o),
(302,492,cs),
(337,492,o),
(355,468,o),
(361,423,c)
);
}
);
width = 600;
}
);
unicode = 169;
}
{
glyphname = ordfeminine;
layers = (
{
layerId = "EE2FFE84-06F1-4AFB-BBEC-60D09A436D14";
shapes = (
{
closed = 1;
nodes = (
(319,369,o),
(368,406,o),
(381,450,c),
(375,450,l),
(376,394,o),
(390,375,o),
(426,375,cs),
(433,375,o),
(445,375,o),
(449,375,c),
(449,400,l),
(430,400,ls),
(411,400,o),
(402,408,o),
(402,440,cs),
(402,578,ls),
(402,667,o),
(359,712,o),
(284,712,cs),
(214,712,o),
(168,673,o),
(157,607,c),
(184,605,l),
(194,659,o),
(229,687,o),
(284,687,cs),
(345,687,o),
(376,653,o),
(376,573,c),
(252,549,ls),
(191,537,o),
(151,506,o),
(151,456,cs),
(151,402,o),
(198,369,o),
(257,369,cs)
);
},
{
closed = 1;
nodes = (
(208,393,o),
(178,416,o),
(178,459,cs),
(178,494,o),
(204,516,o),
(258,527,cs),
(376,550,l),
(376,503,ls),
(376,440,o),
(330,393,o),
(258,393,cs)
);
}
);
width = 600;
},
{
layerId = "574EE4B9-5C1A-4E7E-9985-C08FACB65BD8";
shapes = (
{
closed = 1;
nodes = (
(311,369,o),
(356,402,o),
(362,447,c),
(353,447,l),
(355,396,o),
(382,374,o),
(427,374,cs),
(437,374,o),
(452,375,o),
(457,376,c),
(457,436,l),
(439,436,ls),
(424,436,o),
(418,441,o),
(418,458,cs),
(418,578,ls),
(418,664,o),
(371,715,o),
(287,715,cs),
(211,715,o),
(161,672,o),
(149,608,c),
(220,603,l),
(228,635,o),
(249,652,o),
(287,652,cs),
(326,652,o),
(348,630,o),
(348,582,c),
(244,561,ls),
(181,548,o),
(143,514,o),
(143,463,cs),
(143,405,o),
(194,369,o),
(255,369,cs)
);
},
{
closed = 1;
nodes = (
(233,428,o),
(216,443,o),
(216,468,cs),
(216,493,o),
(232,505,o),
(262,511,cs),
(348,528,l),
(348,504,ls),
(348,457,o),
(316,428,o),
(264,428,cs)
);
}
);
width = 600;
},
{
layerId = "58B1DC7A-69F8-4375-AD2E-AC5103CCF536";
shapes = (
{
closed = 1;
nodes = (
(313,369,o),
(350,405,o),
(353,452,c),
(345,452,l),
(347,405,o),
(374,372,o),
(428,372,cs),
(441,372,o),
(454,374,o),
(460,376,c),
(460,452,l),
(446,452,ls),
(430,452,o),
(423,457,o),
(423,475,cs),
(423,578,ls),
(423,667,o),
(376,718,o),
(287,718,cs),
(209,718,o),
(157,675,o),
(145,608,c),
(236,603,l),
(241,628,o),
(257,640,o),
(287,640,cs),
(318,640,o),
(334,623,o),
(334,586,c),
(237,565,ls),
(178,552,o),
(140,515,o),
(140,463,cs),
(140,405,o),
(189,369,o),
(251,369,cs)
);
},
{
closed = 1;
nodes = (
(244,443,o),
(233,455,o),
(233,473,cs),
(233,491,o),
(245,502,o),
(264,506,cs),
(334,520,l),
(334,502,ls),
(334,463,o),
(304,443,o),
(270,443,cs)
);
}
);
width = 600;
}
);
unicode = 170;
}
